<svg width="256" height="256" viewBox="0 0 256 256" fill="none" xmlns="http://www.w3.org/2000/svg">
<path d="M60.0124 57.6023C48.9964 75.2583 46.3564 97.2343 52.4684 117.066" stroke="#91888C" stroke-width="2"/>
<path d="M52.4689 117.066C30.2929 116.09 35.5169 153.402 59.8449 147.89C60.0296 147.849 60.2225 147.871 60.3924 147.952C60.5623 148.033 60.6992 148.17 60.7809 148.338C71.1649 169.698 88.0129 180.578 110.405 186.186" stroke="#CBABA0" stroke-width="2"/>
<path d="M110.405 186.186L107.933 187.098" stroke="#BEA195" stroke-width="2"/>
<path d="M107.932 187.098L102.332 188.898" stroke="#C4A49B" stroke-width="2"/>
<path d="M102.332 188.898C90.3002 190.791 78.9642 194.938 68.3242 201.338" stroke="#FFD28F" stroke-width="2"/>
<path d="M68.3245 201.338L64.2285 203.322C64.1318 203.369 64.0474 203.438 63.9818 203.523C63.9162 203.608 63.8712 203.707 63.8502 203.813C63.8293 203.918 63.8331 204.027 63.8612 204.131C63.8894 204.234 63.9411 204.33 64.0125 204.41C99.3165 244.202 158.596 244.754 195.18 206.25C195.362 206.058 195.343 205.888 195.124 205.738C192.474 203.941 189.759 202.778 186.98 202.25" stroke="#E8EEEE" stroke-width="2"/>
<path d="M186.98 202.25C176.068 195.519 164.516 191.013 152.324 188.73" stroke="#FFD28F" stroke-width="2"/>
<path d="M152.324 188.73L144.78 185.794" stroke="#BEA195" stroke-width="2"/>
<path d="M144.78 185.794C167.124 181.274 185.596 168.954 194.892 147.738C194.999 147.498 195.183 147.402 195.444 147.45C220.62 152.426 223.692 115.69 203.1 116.738" stroke="#C4A49B" stroke-width="2"/>
<path d="M203.101 116.738C212.389 81.6184 197.341 47.4744 165.757 30.2024" stroke="#91888C" stroke-width="2"/>
<path d="M165.757 30.2022C128.941 10.8502 82.4767 22.0422 60.0127 57.6022" stroke="#978D91" stroke-width="2"/>
<path d="M165.757 30.2024C165.351 30.7624 165.354 31.2211 165.765 31.5784C165.839 31.6449 165.896 31.728 165.932 31.8209C165.968 31.9137 165.981 32.0138 165.971 32.1128C165.961 32.2119 165.927 32.3071 165.874 32.3908C165.82 32.4745 165.747 32.5442 165.661 32.5944C160.509 35.5704 155.255 37.8637 149.901 39.4744C139.341 42.6477 128.69 45.4717 117.949 47.9464C103.197 51.3384 91.6367 54.5224 76.9967 58.9784C73.082 60.1731 68.6607 60.7917 63.7327 60.8344C61.4127 60.8584 60.1487 59.9304 60.0127 57.6024" stroke="#29171F" stroke-width="2"/>
<path d="M203.1 116.738C201.943 119.864 201.044 122.73 200.404 125.338C199.385 129.482 198.9 129.44 198.948 125.21C198.964 123.808 198.785 121.981 198.412 119.73" stroke="#562F29" stroke-width="2"/>
<path d="M198.412 119.73C196.892 97.874 189.191 78.8046 175.308 62.522C171.428 57.978 168.7 57.634 162.932 57.618C151.124 57.586 139.415 58.53 127.804 60.45C109.132 63.546 90.8601 67.314 72.7641 72.954C71.2334 73.4286 70.0174 74.5193 69.1161 76.226C61.0841 91.442 57.0441 107.399 56.9961 124.098" stroke="#512B23" stroke-width="2"/>
<path d="M56.9967 124.098L56.8688 128.226C56.8474 128.84 56.7327 128.858 56.5247 128.282L52.4688 117.066" stroke="#5E352E" stroke-width="2"/>
<path d="M198.413 119.73C196.482 115.186 194.623 110.685 192.837 106.226C187.141 91.9781 176.629 70.4421 159.941 66.8501C149.994 64.7061 139.197 64.0555 127.549 64.8981" stroke="#844831" stroke-width="2"/>
<path d="M127.548 64.8979C113.671 65.6819 100.132 67.6553 86.9321 70.8179C78.9161 72.7379 74.7481 75.6339 70.9081 82.6179C65.7721 91.9539 62.6921 99.3219 60.1481 110.106C59.0548 114.751 58.0041 119.415 56.9961 124.098" stroke="#8B4E36" stroke-width="2"/>
<path d="M106.733 152.298C106.658 152.655 106.73 152.962 106.949 153.218" stroke="#CBABA0" stroke-width="2"/>
<path d="M109.709 168.874C114.52 174.378 120.661 176.986 128.133 176.698" stroke="#B76051" stroke-width="2"/>
<path d="M128.132 188.13C122.106 188.29 116.196 187.642 110.404 186.186" stroke="#8B4E36" stroke-width="2"/>
<path d="M144.781 185.794C139.378 187.346 133.829 188.125 128.133 188.13" stroke="#844831" stroke-width="2"/>
<path d="M128.133 188.13V176.698" stroke="#91523C" stroke-width="2"/>
<path d="M128.133 176.698C133.306 176.176 137.866 174.418 141.813 171.426C141.966 171.309 142.093 171.161 142.185 170.992C142.278 170.823 142.334 170.637 142.349 170.445C142.365 170.253 142.341 170.061 142.277 169.88C142.214 169.699 142.113 169.533 141.981 169.394C133.637 160.586 118.085 158.202 109.709 168.874" stroke="#AF5A4C" stroke-width="2"/>
<path d="M109.709 168.874C106.216 165.194 104.413 160.557 104.301 154.962C104.298 154.751 104.361 154.544 104.48 154.37C104.6 154.195 104.77 154.062 104.968 153.989C105.166 153.915 105.382 153.905 105.586 153.959C105.79 154.012 105.973 154.128 106.109 154.29C106.429 154.674 106.789 154.879 107.189 154.906C107.216 154.909 107.244 154.903 107.267 154.888C107.291 154.873 107.308 154.85 107.317 154.823C107.325 154.797 107.324 154.769 107.314 154.743C107.304 154.717 107.285 154.696 107.261 154.682L106.461 154.138C106.194 153.962 106.168 153.754 106.381 153.514C106.525 153.349 106.714 153.25 106.949 153.218" stroke="#91523C" stroke-width="2"/>
<path d="M106.948 153.218C111.772 158.706 123.196 159.362 129.868 159.13C135.506 158.927 141.09 157.421 146.62 154.61C146.779 154.528 146.91 154.4 146.996 154.243C147.082 154.085 147.118 153.906 147.101 153.728C147.084 153.55 147.013 153.381 146.899 153.243C146.785 153.105 146.632 153.004 146.46 152.954C145.884 152.789 145.09 152.781 144.076 152.93C131.591 154.807 119.143 154.597 106.732 152.298" stroke="#C4A49B" stroke-width="2"/>
<path d="M106.733 152.298C106.37 152.314 106.264 152.063 106.413 151.546C106.444 151.442 106.496 151.346 106.564 151.262C106.633 151.179 106.718 151.11 106.814 151.06C106.909 151.01 107.013 150.98 107.121 150.971C107.228 150.962 107.335 150.976 107.437 151.01L110.045 151.89C110.18 151.936 110.326 151.941 110.465 151.905C110.604 151.87 110.73 151.795 110.829 151.69C111.944 150.501 113.232 150.277 114.693 151.018C114.944 151.146 115.21 151.205 115.493 151.194C119.213 151.09 123.629 151.698 127.085 150.25C127.169 150.215 127.243 150.16 127.3 150.09C127.358 150.02 127.399 149.937 127.417 149.849C127.436 149.761 127.433 149.67 127.409 149.583C127.384 149.497 127.339 149.418 127.277 149.354C126.005 148.018 126.493 146.57 125.685 145.322C124.653 143.738 123.069 142.73 123.653 140.434C123.738 140.114 123.848 140.103 123.981 140.402C126.205 145.234 131.813 145.458 134.621 140.882C134.749 140.674 134.802 140.447 134.781 140.202C134.469 136.858 130.157 135.354 128.053 133.09C127.719 132.73 127.533 132.258 127.533 131.77L127.549 64.8979" stroke="#91523C" stroke-width="2"/>
<path d="M152.324 188.73L151.7 190.066" stroke="#BF7525" stroke-width="2"/>
<path d="M151.701 190.066C150.341 190.498 150.645 188.514 148.853 188.234C148.575 188.197 148.421 188.317 148.389 188.594L148.229 189.93C148.191 190.229 148.034 190.437 147.757 190.554C135.517 195.794 121.981 196.21 110.525 188.618C109.719 188.079 108.855 187.573 107.933 187.098" stroke="#844831" stroke-width="2"/>
<path d="M151.7 190.066C146.74 202.362 133.78 206.474 121.524 204.034C112.932 202.327 106.535 197.282 102.332 188.898" stroke="#C4792B" stroke-width="2"/>
<path d="M186.98 202.25C153.596 229.378 101.316 228.194 68.3242 201.338" stroke="#E8C27F" stroke-width="2"/>
<path d="M160.372 88.0978C153.06 85.9138 150.996 96.6818 157.932 97.6098C164.236 98.4525 170.535 99.7805 176.828 101.594C177.078 101.666 177.34 101.684 177.597 101.645C177.854 101.606 178.099 101.512 178.316 101.369C178.533 101.226 178.716 101.038 178.853 100.817C178.99 100.596 179.077 100.348 179.108 100.09C179.108 100.05 178.036 98.1618 177.756 97.9058C172.732 93.3245 166.938 90.0551 160.372 88.0978Z" stroke="#45261C" stroke-width="2"/>
<path d="M150.62 127.866C153.228 142.322 170.66 142.146 177.436 130.882" stroke="#C4A49B" stroke-width="2"/>
<path d="M177.436 130.882C178.396 129.682 179.303 128.384 180.156 126.986C180.692 126.114 180.724 125.362 180.82 124.362C180.836 124.222 180.903 124.092 181.008 123.999C181.113 123.906 181.249 123.856 181.388 123.858C181.831 123.869 182.266 123.866 182.692 123.85C183.023 123.834 183.204 123.664 183.236 123.338L183.372 121.906C183.38 121.826 183.369 121.745 183.339 121.671C183.308 121.596 183.261 121.53 183.199 121.478C183.138 121.426 183.065 121.39 182.986 121.373C182.908 121.355 182.826 121.357 182.748 121.378L180.844 121.89C180.535 121.97 180.372 121.85 180.356 121.53L180.324 120.842C180.314 120.629 180.247 120.434 180.124 120.258C175.564 113.514 166.284 107.018 158.124 110.602C151.428 113.546 148.916 120.914 150.62 127.866" stroke="#45261C" stroke-width="2"/>
<path d="M177.437 130.882C179.282 124.381 177.431 119.453 171.885 116.098C171.533 115.885 171.453 115.962 171.645 116.33L172.765 118.466" stroke="#807F7F" stroke-width="2"/>
<path d="M172.764 118.467C172.791 118.749 172.732 118.965 172.588 119.115C172.402 119.317 172.218 119.314 172.036 119.106C171.412 118.386 168.412 114.491 167.812 114.371C167.68 114.344 167.542 114.359 167.418 114.412C167.294 114.466 167.188 114.555 167.116 114.669C167.043 114.783 167.007 114.916 167.011 115.052C167.015 115.187 167.06 115.317 167.14 115.427C175.716 127.083 158.124 137.363 154.892 123.043C154.865 122.916 154.79 122.806 154.682 122.736C154.574 122.665 154.442 122.64 154.316 122.667L153.364 122.867" stroke="#371B11" stroke-width="2"/>
<path d="M153.364 122.866L153.844 119.234C153.859 119.143 153.838 119.051 153.785 118.975C153.733 118.9 153.654 118.848 153.563 118.83C153.472 118.812 153.377 118.828 153.297 118.877C153.217 118.925 153.158 119.002 153.132 119.09L150.62 127.866" stroke="#807F7F" stroke-width="2"/>
<path d="M172.764 118.466C174.513 124.274 173.359 129.01 169.3 132.674C167.172 134.594 163.388 135.818 160.796 135.026C154.86 133.202 152.383 129.149 153.364 122.866" stroke="#B69990" stroke-width="2"/>
<path d="M183.277 148.067C183.315 147.428 183.118 146.78 182.699 146.162C182.279 145.544 181.644 144.968 180.831 144.465C180.018 143.963 179.042 143.545 177.958 143.235C176.875 142.925 175.706 142.729 174.518 142.658C173.33 142.588 172.146 142.644 171.033 142.824C169.921 143.003 168.902 143.303 168.035 143.705C167.168 144.108 166.47 144.605 165.98 145.169C165.49 145.733 165.218 146.353 165.18 146.992C165.142 147.632 165.339 148.279 165.758 148.897C166.178 149.516 166.813 150.092 167.626 150.594C168.439 151.097 169.415 151.515 170.499 151.825C171.582 152.135 172.751 152.331 173.939 152.401C175.127 152.472 176.311 152.416 177.424 152.236C178.536 152.057 179.555 151.757 180.422 151.355C181.289 150.952 181.987 150.455 182.477 149.891C182.967 149.327 183.239 148.707 183.277 148.067Z" stroke="#A55044" stroke-width="2"/>
<path d="M76.8043 101.65C77.6523 101.682 78.5643 101.554 79.5403 101.266C84.079 99.9327 88.8736 98.9167 93.9243 98.2181C96.5323 97.8607 98.2203 97.4234 98.9883 96.906C102.556 94.498 100.884 86.7141 95.7403 87.8501C92.8043 88.4981 73.9403 96.2101 76.1723 101.218C76.2277 101.343 76.3163 101.45 76.4281 101.526C76.5399 101.603 76.6703 101.646 76.8043 101.65Z" stroke="#4D2D21" stroke-width="2"/>
<path d="M78.1484 130.29C79.8978 134.109 82.6605 136.744 86.4365 138.194C94.9805 141.466 104.532 136.354 105.06 126.762" stroke="#CBABA0" stroke-width="2"/>
<path d="M105.061 126.762C107.589 104.666 81.2447 105.922 75.1007 121.81C74.994 122.088 74.842 122.117 74.6447 121.898C74.09 121.269 73.442 121.17 72.7007 121.602C72.45 121.746 72.3033 121.962 72.2607 122.25C71.9647 124.058 73.7726 125.338 75.2206 126.026C75.3388 126.083 75.441 126.169 75.5179 126.277C75.5947 126.384 75.6438 126.51 75.6607 126.642C75.9273 128.749 76.7567 129.965 78.1487 130.29" stroke="#4D2D21" stroke-width="2"/>
<path d="M105.06 126.762L102.668 119.786C102.65 119.731 102.619 119.681 102.577 119.64C102.535 119.599 102.484 119.57 102.429 119.553C102.373 119.537 102.314 119.534 102.256 119.545C102.199 119.557 102.146 119.582 102.1 119.618C101.836 119.826 102.524 123.146 102.5 123.866" stroke="#807F7F" stroke-width="2"/>
<path d="M102.5 123.866C101.497 124.026 100.905 124.424 100.724 125.058C98.4359 133.042 87.9959 131.562 86.2039 124.202C84.9959 119.226 88.3239 116.738 91.4999 113.81C91.8145 113.522 91.7586 113.365 91.3319 113.338C89.2919 113.21 86.5959 114.866 84.5879 115.45" stroke="#371B11" stroke-width="2"/>
<path d="M84.5887 115.45C78.706 118.693 76.5594 123.639 78.1487 130.29" stroke="#807F7F" stroke-width="2"/>
<path d="M102.5 123.866C103.228 136.986 86.9244 139.978 82.7484 127.57C81.3617 123.453 81.9751 119.413 84.5884 115.45" stroke="#B69990" stroke-width="2"/>
<path d="M44.2282 129.058C46.1082 126.05 49.9722 123.682 53.6362 125.098C53.9296 125.21 54.0389 125.114 53.9642 124.81L53.7482 123.946C53.7056 123.786 53.6016 123.714 53.4362 123.73C49.4522 124.194 46.1242 124.954 44.0842 128.97C44.0744 128.99 44.0725 129.015 44.079 129.037C44.0855 129.06 44.1 129.079 44.1191 129.091C44.1382 129.102 44.1604 129.105 44.1808 129.099C44.2013 129.093 44.2184 129.078 44.2282 129.058Z" stroke="#8B4E36" stroke-width="2"/>
<path d="M88.3315 147.235C88.3491 145.977 87.4507 144.758 85.8339 143.846C84.2172 142.933 82.0146 142.403 79.7107 142.371C77.4067 142.339 75.1901 142.807 73.5485 143.674C71.9069 144.541 70.9748 145.735 70.9573 146.993C70.9397 148.251 71.8381 149.47 73.4549 150.383C75.0716 151.295 77.2742 151.826 79.5782 151.858C81.8821 151.89 84.0987 151.421 85.7403 150.554C87.3819 149.687 88.314 148.494 88.3315 147.235Z" stroke="#AD5749" stroke-width="2"/>
<path d="M160.656 115.037C160.467 114.744 160.214 114.496 159.914 114.306C159.613 114.117 159.269 113.99 158.902 113.933C158.534 113.876 158.151 113.891 157.774 113.975C157.396 114.06 157.032 114.213 156.702 114.425C156.372 114.638 156.082 114.907 155.849 115.216C155.616 115.525 155.445 115.868 155.345 116.225C155.245 116.583 155.218 116.949 155.266 117.301C155.315 117.653 155.437 117.986 155.626 118.279C155.815 118.572 156.067 118.82 156.368 119.01C156.669 119.199 157.012 119.326 157.38 119.383C157.747 119.44 158.13 119.425 158.507 119.341C158.885 119.256 159.249 119.103 159.579 118.891C159.91 118.678 160.199 118.409 160.432 118.1C160.665 117.792 160.836 117.448 160.936 117.091C161.036 116.733 161.063 116.367 161.015 116.015C160.967 115.663 160.844 115.33 160.656 115.037Z" stroke="#807F7F" stroke-width="2"/>
<path d="M99.9562 117.146C99.9562 116.776 99.8834 116.41 99.7419 116.068C99.6004 115.727 99.3929 115.416 99.1314 115.155C98.87 114.893 98.5595 114.686 98.2179 114.544C97.8762 114.403 97.51 114.33 97.1402 114.33C96.7704 114.33 96.4043 114.403 96.0626 114.544C95.7209 114.686 95.4105 114.893 95.149 115.155C94.8875 115.416 94.6801 115.727 94.5386 116.068C94.3971 116.41 94.3242 116.776 94.3242 117.146C94.3242 117.893 94.6209 118.609 95.149 119.137C95.6771 119.665 96.3934 119.962 97.1402 119.962C97.8871 119.962 98.6033 119.665 99.1314 119.137C99.6595 118.609 99.9562 117.893 99.9562 117.146Z" stroke="#807F7F" stroke-width="2"/>
<path d="M165.757 30.2022C165.351 30.7622 165.354 31.2209 165.765 31.5782C165.839 31.6448 165.896 31.7278 165.932 31.8207C165.968 31.9136 165.981 32.0136 165.971 32.1127C165.961 32.2117 165.927 32.3069 165.874 32.3906C165.82 32.4743 165.747 32.5441 165.661 32.5942C160.509 35.5702 155.255 37.8636 149.901 39.4742C139.341 42.6476 128.69 45.4716 117.949 47.9462C103.197 51.3382 91.6367 54.5222 76.9967 58.9782C73.082 60.1729 68.6607 60.7915 63.7327 60.8342C61.4127 60.8582 60.1487 59.9302 60.0127 57.6022C82.4767 22.0422 128.941 10.8502 165.757 30.2022Z" fill="#2F1C24"/>
<path d="M165.756 30.2024C197.34 47.4744 212.388 81.6184 203.1 116.738C201.943 119.864 201.044 122.73 200.404 125.338C199.386 129.482 198.9 129.44 198.948 125.21C198.964 123.808 198.786 121.981 198.412 119.73C196.892 97.8744 189.191 78.8051 175.308 62.5224C171.428 57.9784 168.7 57.6344 162.932 57.6184C151.124 57.5864 139.415 58.5304 127.804 60.4504C109.132 63.5464 90.8604 67.3144 72.7644 72.9544C71.2338 73.429 70.0178 74.5197 69.1164 76.2264C61.0844 91.4424 57.0444 107.4 56.9964 124.098L56.8684 128.226C56.8471 128.84 56.7324 128.858 56.5244 128.282L52.4684 117.066C46.3564 97.2344 48.9964 75.2584 60.0124 57.6024C60.1484 59.9304 61.4124 60.8584 63.7324 60.8344C68.6604 60.7917 73.0817 60.1731 76.9964 58.9784C91.6364 54.5224 103.196 51.3384 117.948 47.9464C128.69 45.4717 139.34 42.6477 149.9 39.4744C155.255 37.8637 160.508 35.5704 165.66 32.5944C165.746 32.5442 165.819 32.4745 165.873 32.3908C165.927 32.3071 165.961 32.2119 165.971 32.1128C165.981 32.0138 165.967 31.9137 165.932 31.8209C165.896 31.728 165.838 31.6449 165.764 31.5784C165.354 31.2211 165.351 30.7624 165.756 30.2024Z" fill="#23121A"/>
<path d="M198.412 119.73C196.481 115.186 194.623 110.685 192.836 106.226C187.14 91.978 176.628 70.442 159.94 66.85C149.993 64.706 139.196 64.0553 127.548 64.898C113.671 65.682 100.132 67.6553 86.9321 70.818C78.9161 72.738 74.7481 75.634 70.9081 82.618C65.7721 91.954 62.6921 99.322 60.1481 110.106C59.0548 114.751 58.0041 119.415 56.9961 124.098C57.0441 107.399 61.0841 91.442 69.1161 76.226C70.0174 74.5193 71.2334 73.4286 72.7641 72.954C90.8601 67.314 109.132 63.546 127.804 60.45C139.415 58.53 151.124 57.586 162.932 57.618C168.7 57.634 171.428 57.978 175.308 62.522C189.191 78.8046 196.892 97.874 198.412 119.73Z" fill="#7E442B"/>
<path d="M198.413 119.73C198.786 121.981 198.965 123.807 198.949 125.21C198.901 129.439 199.386 129.482 200.405 125.338C201.045 122.73 201.944 119.863 203.101 116.738C223.693 115.69 220.621 152.426 195.445 147.45C195.184 147.402 195 147.498 194.893 147.738C185.597 168.954 167.125 181.274 144.781 185.794C139.378 187.346 133.829 188.125 128.133 188.13V176.698C133.306 176.175 137.866 174.418 141.813 171.426C141.966 171.309 142.093 171.161 142.185 170.992C142.278 170.823 142.334 170.636 142.349 170.445C142.365 170.253 142.341 170.061 142.277 169.88C142.214 169.699 142.113 169.533 141.981 169.394C133.637 160.586 118.085 158.202 109.709 168.874C106.216 165.194 104.413 160.557 104.301 154.962C104.298 154.751 104.361 154.544 104.48 154.37C104.6 154.196 104.77 154.062 104.968 153.989C105.166 153.915 105.382 153.905 105.586 153.959C105.79 154.013 105.973 154.128 106.109 154.29C106.429 154.674 106.789 154.879 107.189 154.906C107.216 154.909 107.244 154.903 107.267 154.888C107.291 154.873 107.308 154.85 107.317 154.824C107.325 154.797 107.324 154.769 107.314 154.743C107.304 154.717 107.285 154.696 107.261 154.682L106.461 154.138C106.194 153.962 106.168 153.754 106.381 153.514C106.525 153.349 106.714 153.25 106.949 153.218C111.773 158.706 123.197 159.362 129.869 159.13C135.506 158.927 141.09 157.421 146.621 154.61C146.78 154.528 146.911 154.4 146.996 154.243C147.082 154.086 147.119 153.906 147.101 153.728C147.084 153.55 147.014 153.381 146.9 153.243C146.786 153.105 146.633 153.004 146.461 152.954C145.885 152.789 145.09 152.781 144.077 152.93C131.592 154.807 119.144 154.597 106.733 152.298C106.37 152.314 106.264 152.063 106.413 151.546C106.444 151.442 106.496 151.346 106.564 151.262C106.633 151.179 106.718 151.11 106.813 151.06C106.909 151.01 107.013 150.98 107.12 150.971C107.228 150.963 107.335 150.976 107.437 151.01L110.045 151.89C110.18 151.936 110.326 151.941 110.465 151.906C110.604 151.87 110.73 151.795 110.829 151.69C111.944 150.501 113.232 150.277 114.693 151.018C114.944 151.146 115.21 151.205 115.493 151.194C119.213 151.09 123.629 151.698 127.085 150.25C127.168 150.215 127.242 150.16 127.3 150.09C127.358 150.02 127.398 149.937 127.417 149.849C127.436 149.761 127.433 149.67 127.409 149.584C127.384 149.497 127.339 149.419 127.277 149.354C126.005 148.018 126.493 146.57 125.685 145.322C124.653 143.738 123.069 142.73 123.653 140.434C123.738 140.114 123.848 140.103 123.981 140.402C126.205 145.234 131.813 145.458 134.621 140.882C134.749 140.674 134.802 140.447 134.781 140.202C134.469 136.858 130.157 135.354 128.053 133.09C127.719 132.73 127.533 132.259 127.533 131.77L127.549 64.8981C139.197 64.0555 149.994 64.7061 159.941 66.8501C176.629 70.4421 187.141 91.9781 192.837 106.226C194.624 110.685 196.482 115.186 198.413 119.73ZM160.373 88.0981C153.061 85.9141 150.997 96.6821 157.933 97.6101C164.237 98.4528 170.536 99.7808 176.829 101.594C177.078 101.667 177.341 101.684 177.598 101.646C177.854 101.607 178.1 101.513 178.317 101.369C178.534 101.226 178.717 101.038 178.854 100.817C178.99 100.596 179.077 100.348 179.109 100.09C179.109 100.05 178.037 98.1621 177.757 97.9061C172.733 93.3248 166.938 90.0555 160.373 88.0981ZM150.621 127.866C153.229 142.322 170.661 142.146 177.437 130.882C178.397 129.682 179.304 128.383 180.157 126.986C180.693 126.114 180.725 125.362 180.821 124.362C180.837 124.222 180.904 124.092 181.009 123.999C181.114 123.906 181.249 123.855 181.389 123.858C181.832 123.869 182.266 123.866 182.693 123.85C183.024 123.834 183.205 123.663 183.237 123.338L183.373 121.906C183.381 121.826 183.369 121.745 183.339 121.671C183.309 121.596 183.261 121.53 183.2 121.478C183.138 121.426 183.065 121.39 182.987 121.372C182.908 121.355 182.827 121.357 182.749 121.378L180.845 121.89C180.536 121.97 180.373 121.85 180.357 121.53L180.325 120.842C180.314 120.629 180.248 120.434 180.125 120.258C175.565 113.514 166.285 107.018 158.125 110.602C151.429 113.546 148.917 120.914 150.621 127.866ZM183.277 148.068C183.315 147.428 183.119 146.781 182.699 146.163C182.279 145.544 181.645 144.968 180.832 144.466C180.018 143.963 179.042 143.545 177.959 143.235C176.876 142.925 175.707 142.729 174.518 142.659C173.33 142.588 172.146 142.644 171.034 142.824C169.921 143.003 168.903 143.303 168.036 143.705C167.168 144.108 166.47 144.605 165.98 145.169C165.49 145.733 165.219 146.353 165.181 146.993C165.143 147.632 165.339 148.28 165.759 148.898C166.178 149.516 166.813 150.092 167.626 150.595C168.44 151.097 169.416 151.515 170.499 151.825C171.582 152.135 172.751 152.331 173.939 152.402C175.128 152.472 176.312 152.416 177.424 152.236C178.536 152.057 179.555 151.757 180.422 151.355C181.289 150.952 181.988 150.455 182.478 149.891C182.967 149.327 183.239 148.707 183.277 148.068Z" fill="#894B37"/>
<path d="M127.549 64.8979L127.533 131.77C127.533 132.258 127.719 132.73 128.053 133.09C130.157 135.354 134.469 136.858 134.781 140.202C134.802 140.447 134.749 140.674 134.621 140.882C131.813 145.458 126.205 145.234 123.981 140.402C123.848 140.103 123.738 140.114 123.653 140.434C123.069 142.73 124.653 143.738 125.685 145.322C126.493 146.57 126.005 148.018 127.277 149.354C127.339 149.418 127.384 149.497 127.409 149.583C127.433 149.67 127.436 149.761 127.417 149.849C127.398 149.937 127.358 150.02 127.3 150.09C127.242 150.16 127.169 150.215 127.085 150.25C123.629 151.698 119.213 151.09 115.493 151.194C115.21 151.205 114.944 151.146 114.693 151.018C113.232 150.277 111.944 150.501 110.829 151.69C110.73 151.795 110.604 151.87 110.465 151.905C110.326 151.941 110.18 151.936 110.045 151.89L107.437 151.01C107.335 150.976 107.228 150.962 107.121 150.971C107.013 150.98 106.909 151.01 106.813 151.06C106.718 151.11 106.633 151.179 106.564 151.262C106.496 151.346 106.444 151.442 106.413 151.546C106.264 152.063 106.37 152.314 106.733 152.298C106.658 152.655 106.73 152.962 106.949 153.218C106.714 153.25 106.525 153.349 106.381 153.514C106.168 153.754 106.194 153.962 106.461 154.138L107.261 154.682C107.285 154.695 107.304 154.717 107.314 154.743C107.324 154.769 107.325 154.797 107.317 154.823C107.308 154.85 107.291 154.872 107.267 154.887C107.244 154.903 107.216 154.909 107.189 154.906C106.789 154.879 106.429 154.674 106.109 154.29C105.973 154.128 105.79 154.012 105.586 153.958C105.382 153.905 105.166 153.915 104.968 153.989C104.77 154.062 104.6 154.195 104.48 154.37C104.361 154.544 104.298 154.751 104.301 154.962C104.413 160.557 106.216 165.194 109.709 168.874C114.52 174.378 120.661 176.986 128.133 176.698V188.13C122.106 188.29 116.197 187.642 110.405 186.186C88.0129 180.578 71.1649 169.698 60.7809 148.338C60.6992 148.169 60.5623 148.033 60.3924 147.952C60.2225 147.871 60.0296 147.849 59.8449 147.89C35.5169 153.402 30.2929 116.09 52.4689 117.066L56.5249 128.282C56.7329 128.858 56.8476 128.839 56.8689 128.226L56.9969 124.098C58.0049 119.415 59.0556 114.751 60.1489 110.106C62.6929 99.3219 65.7729 91.9539 70.9089 82.6179C74.7489 75.6339 78.9169 72.7379 86.9329 70.8179C100.133 67.6553 113.672 65.6819 127.549 64.8979ZM76.8049 101.65C77.6529 101.682 78.5649 101.554 79.5409 101.266C84.0796 99.9326 88.8742 98.9166 93.9249 98.2179C96.5329 97.8606 98.2209 97.4233 98.9889 96.9059C102.557 94.4979 100.885 86.714 95.7409 87.85C92.8049 88.498 73.9409 96.2099 76.1729 101.218C76.2283 101.343 76.317 101.45 76.4288 101.526C76.5405 101.603 76.6709 101.646 76.8049 101.65ZM78.1489 130.29C79.8982 134.109 82.6609 136.743 86.4369 138.194C94.9809 141.466 104.533 136.354 105.061 126.762C107.589 104.666 81.2449 105.922 75.1009 121.81C74.9942 122.087 74.8422 122.117 74.6449 121.898C74.0902 121.269 73.4422 121.17 72.7009 121.602C72.4502 121.746 72.3036 121.962 72.2609 122.25C71.9649 124.058 73.7729 125.338 75.2209 126.026C75.3391 126.083 75.4412 126.169 75.5181 126.276C75.595 126.384 75.644 126.51 75.6609 126.642C75.9276 128.749 76.7569 129.965 78.1489 130.29ZM44.2289 129.058C46.1089 126.05 49.9729 123.682 53.6369 125.098C53.9302 125.21 54.0396 125.114 53.9649 124.81L53.7489 123.946C53.7062 123.786 53.6022 123.714 53.4369 123.73C49.4529 124.194 46.1249 124.954 44.0849 128.97C44.075 128.99 44.0732 129.014 44.0797 129.037C44.0862 129.059 44.1006 129.079 44.1197 129.09C44.1388 129.102 44.161 129.105 44.1815 129.099C44.202 129.093 44.219 129.078 44.2289 129.058ZM88.332 147.235C88.3496 145.977 87.4512 144.758 85.8344 143.846C84.2177 142.933 82.0151 142.403 79.7111 142.37C77.4072 142.338 75.1906 142.807 73.549 143.674C71.9074 144.541 70.9753 145.735 70.9578 146.993C70.9402 148.251 71.8386 149.47 73.4554 150.382C75.0721 151.295 77.2747 151.825 79.5787 151.857C81.8826 151.89 84.0992 151.421 85.7408 150.554C87.3824 149.687 88.3145 148.493 88.332 147.235Z" fill="#985841"/>
<path d="M76.1723 101.218C73.9403 96.2101 92.8043 88.4981 95.7403 87.8501C100.884 86.7141 102.556 94.498 98.9883 96.906C98.2203 97.4234 96.5323 97.8607 93.9243 98.2181C88.8736 98.9167 84.079 99.9327 79.5403 101.266C78.5643 101.554 77.6523 101.682 76.8043 101.65C76.6703 101.646 76.5399 101.603 76.4281 101.526C76.3163 101.45 76.2277 101.343 76.1723 101.218Z" fill="#010100"/>
<path d="M157.932 97.6098C150.996 96.6818 153.06 85.9138 160.372 88.0978C166.938 90.0551 172.732 93.3245 177.756 97.9058C178.036 98.1618 179.108 100.05 179.108 100.09C179.077 100.348 178.99 100.596 178.853 100.817C178.716 101.038 178.533 101.226 178.316 101.369C178.099 101.512 177.854 101.606 177.597 101.645C177.34 101.684 177.078 101.666 176.828 101.594C170.535 99.7805 164.236 98.4525 157.932 97.6098Z" fill="#010100"/>
<path d="M177.436 130.882C179.282 124.381 177.431 119.453 171.884 116.098C171.532 115.885 171.452 115.962 171.644 116.33L172.764 118.466C172.791 118.749 172.732 118.965 172.588 119.114C172.402 119.317 172.218 119.314 172.036 119.106C171.412 118.386 168.412 114.49 167.812 114.37C167.68 114.344 167.542 114.359 167.418 114.412C167.294 114.465 167.188 114.555 167.116 114.669C167.043 114.783 167.007 114.916 167.011 115.051C167.016 115.186 167.061 115.317 167.14 115.426C175.716 127.082 158.124 137.362 154.892 123.042C154.865 122.916 154.79 122.806 154.682 122.736C154.574 122.665 154.443 122.64 154.316 122.666L153.364 122.866L153.844 119.234C153.859 119.143 153.838 119.05 153.786 118.975C153.733 118.9 153.654 118.848 153.563 118.83C153.473 118.812 153.378 118.828 153.298 118.877C153.217 118.925 153.158 119.001 153.132 119.09L150.62 127.866C148.916 120.914 151.428 113.546 158.124 110.602C166.284 107.018 175.564 113.514 180.124 120.258C180.247 120.434 180.314 120.629 180.324 120.842L180.356 121.53C180.372 121.85 180.535 121.97 180.844 121.89L182.748 121.378C182.826 121.357 182.908 121.355 182.986 121.373C183.065 121.39 183.138 121.426 183.199 121.478C183.261 121.53 183.308 121.596 183.339 121.671C183.369 121.745 183.38 121.826 183.372 121.906L183.236 123.338C183.204 123.664 183.023 123.834 182.692 123.85C182.266 123.866 181.831 123.869 181.388 123.858C181.249 123.856 181.113 123.906 181.008 123.999C180.903 124.092 180.836 124.222 180.82 124.362C180.724 125.362 180.692 126.114 180.156 126.986C179.303 128.384 178.396 129.682 177.436 130.882ZM160.655 115.037C160.466 114.744 160.214 114.496 159.913 114.306C159.612 114.117 159.268 113.99 158.901 113.934C158.534 113.877 158.151 113.891 157.773 113.975C157.396 114.06 157.032 114.213 156.702 114.426C156.371 114.639 156.081 114.907 155.849 115.216C155.616 115.525 155.445 115.868 155.345 116.226C155.245 116.583 155.218 116.949 155.266 117.301C155.314 117.654 155.436 117.986 155.625 118.279C155.814 118.572 156.066 118.821 156.367 119.01C156.668 119.199 157.012 119.326 157.379 119.383C157.746 119.44 158.13 119.426 158.507 119.341C158.885 119.257 159.249 119.104 159.579 118.891C159.909 118.678 160.199 118.409 160.432 118.101C160.665 117.792 160.836 117.449 160.936 117.091C161.036 116.733 161.063 116.367 161.014 116.015C160.966 115.663 160.844 115.331 160.655 115.037Z" fill="#010100"/>
<path d="M105.061 126.762L102.669 119.786C102.651 119.731 102.619 119.681 102.577 119.64C102.536 119.6 102.485 119.57 102.429 119.553C102.373 119.537 102.314 119.534 102.257 119.546C102.2 119.557 102.146 119.582 102.101 119.618C101.837 119.826 102.525 123.146 102.501 123.866C101.498 124.026 100.906 124.424 100.725 125.058C98.4367 133.042 87.9967 131.562 86.2047 124.202C84.9967 119.226 88.3247 116.738 91.5007 113.81C91.8153 113.522 91.7593 113.365 91.3327 113.338C89.2927 113.21 86.5967 114.866 84.5887 115.45C78.706 118.693 76.5593 123.64 78.1487 130.29C76.7567 129.965 75.9273 128.749 75.6607 126.642C75.6438 126.51 75.5947 126.384 75.5179 126.277C75.441 126.169 75.3388 126.083 75.2206 126.026C73.7726 125.338 71.9647 124.058 72.2607 122.25C72.3033 121.962 72.45 121.746 72.7007 121.602C73.442 121.17 74.09 121.269 74.6447 121.898C74.842 122.117 74.994 122.088 75.1007 121.81C81.2447 105.922 107.589 104.666 105.061 126.762ZM99.9567 117.146C99.9567 116.777 99.8838 116.41 99.7423 116.069C99.6008 115.727 99.3934 115.417 99.1319 115.155C98.8704 114.894 98.56 114.686 98.2183 114.545C97.8767 114.403 97.5105 114.33 97.1407 114.33C96.7709 114.33 96.4047 114.403 96.063 114.545C95.7214 114.686 95.4109 114.894 95.1495 115.155C94.888 115.417 94.6805 115.727 94.539 116.069C94.3975 116.41 94.3247 116.777 94.3247 117.146C94.3247 117.893 94.6214 118.61 95.1495 119.138C95.6776 119.666 96.3938 119.962 97.1407 119.962C97.8875 119.962 98.6038 119.666 99.1319 119.138C99.66 118.61 99.9567 117.893 99.9567 117.146Z" fill="#010100"/>
<path d="M102.5 123.866C103.228 136.986 86.9244 139.978 82.7484 127.57C81.3617 123.453 81.9751 119.413 84.5884 115.45C86.5964 114.866 89.2924 113.21 91.3324 113.338C91.7591 113.365 91.8151 113.522 91.5004 113.81C88.3244 116.738 84.9964 119.226 86.2044 124.202C87.9964 131.562 98.4364 133.042 100.724 125.058C100.906 124.424 101.498 124.026 102.5 123.866Z" fill="#6D3521"/>
<path d="M159.579 118.891C160.968 117.996 161.45 116.27 160.655 115.037C159.861 113.804 158.09 113.53 156.701 114.426C155.313 115.321 154.831 117.046 155.625 118.279C156.42 119.512 158.19 119.786 159.579 118.891Z" fill="#FEFDFE"/>
<path d="M97.1402 119.962C98.6955 119.962 99.9562 118.701 99.9562 117.146C99.9562 115.591 98.6955 114.33 97.1402 114.33C95.585 114.33 94.3242 115.591 94.3242 117.146C94.3242 118.701 95.585 119.962 97.1402 119.962Z" fill="#FEFDFE"/>
<path d="M172.764 118.467C174.513 124.275 173.359 129.011 169.3 132.675C167.172 134.595 163.388 135.819 160.796 135.027C154.86 133.203 152.383 129.149 153.364 122.867L154.316 122.667C154.442 122.64 154.574 122.665 154.682 122.736C154.79 122.806 154.865 122.916 154.892 123.043C158.124 137.363 175.716 127.083 167.14 115.427C167.06 115.317 167.015 115.187 167.011 115.052C167.007 114.916 167.043 114.783 167.116 114.669C167.188 114.555 167.294 114.466 167.418 114.412C167.542 114.359 167.679 114.344 167.812 114.371C168.412 114.491 171.412 118.386 172.036 119.106C172.217 119.314 172.401 119.317 172.588 119.115C172.732 118.965 172.791 118.749 172.764 118.467Z" fill="#6D3521"/>
<path d="M84.5887 115.45C81.9754 119.413 81.362 123.453 82.7487 127.57C86.9247 139.978 103.229 136.986 102.501 123.866C102.525 123.146 101.837 119.826 102.101 119.618C102.146 119.581 102.2 119.556 102.257 119.545C102.314 119.534 102.373 119.536 102.429 119.553C102.485 119.569 102.536 119.599 102.577 119.64C102.619 119.68 102.651 119.731 102.669 119.786L105.061 126.762C104.533 136.354 94.9807 141.466 86.4367 138.194C82.6607 136.743 79.898 134.109 78.1487 130.29C76.5594 123.639 78.706 118.693 84.5887 115.45Z" fill="#FEFDFE"/>
<path d="M177.436 130.882C170.66 142.146 153.228 142.322 150.62 127.866L153.132 119.09C153.158 119.001 153.217 118.925 153.297 118.876C153.377 118.828 153.472 118.811 153.563 118.829C153.654 118.848 153.733 118.9 153.785 118.975C153.838 119.05 153.859 119.143 153.844 119.234L153.364 122.866C152.383 129.149 154.86 133.202 160.796 135.026C163.388 135.818 167.172 134.594 169.3 132.674C173.359 129.01 174.513 124.274 172.764 118.466L171.644 116.33C171.452 115.962 171.532 115.885 171.884 116.098C177.431 119.453 179.281 124.381 177.436 130.882Z" fill="#FEFDFE"/>
<path d="M53.6362 125.098C49.9722 123.682 46.1082 126.05 44.2282 129.058C44.2184 129.078 44.2013 129.093 44.1808 129.099C44.1604 129.105 44.1382 129.102 44.1191 129.091C44.1 129.079 44.0855 129.06 44.079 129.037C44.0725 129.015 44.0744 128.99 44.0842 128.97C46.1242 124.954 49.4522 124.194 53.4362 123.73C53.6016 123.714 53.7056 123.786 53.7482 123.946L53.9642 124.81C54.0389 125.114 53.9296 125.21 53.6362 125.098Z" fill="#7E442B"/>
<path d="M79.5781 151.858C84.3759 151.925 88.2949 149.855 88.3315 147.235C88.3681 144.616 84.5084 142.438 79.7106 142.371C74.9128 142.304 70.9938 144.373 70.9572 146.993C70.9206 149.613 74.7803 151.791 79.5781 151.858Z" fill="#C15551"/>
<path d="M173.939 152.401C178.936 152.698 183.117 150.758 183.276 148.068C183.436 145.377 179.515 142.956 174.518 142.659C169.521 142.362 165.34 144.302 165.18 146.993C165.02 149.683 168.942 152.105 173.939 152.401Z" fill="#C15551"/>
<path d="M106.733 152.298C119.143 154.597 131.591 154.807 144.077 152.93C145.09 152.781 145.885 152.789 146.461 152.954C146.632 153.004 146.785 153.105 146.9 153.243C147.014 153.381 147.084 153.55 147.101 153.728C147.118 153.906 147.082 154.085 146.996 154.243C146.91 154.4 146.78 154.528 146.621 154.61C141.09 157.421 135.506 158.927 129.869 159.13C123.197 159.362 111.773 158.706 106.949 153.218C106.73 152.962 106.658 152.655 106.733 152.298Z" fill="#FEFDFE"/>
<path d="M128.133 176.698C120.661 176.986 114.52 174.378 109.709 168.874C118.085 158.202 133.637 160.586 141.981 169.394C142.113 169.533 142.214 169.699 142.277 169.88C142.341 170.061 142.365 170.253 142.349 170.445C142.334 170.637 142.278 170.823 142.185 170.992C142.093 171.161 141.966 171.309 141.813 171.426C137.866 174.418 133.306 176.176 128.133 176.698Z" fill="#D56860"/>
<path d="M144.781 185.794L152.325 188.73L151.701 190.066C150.341 190.498 150.645 188.514 148.853 188.234C148.575 188.197 148.421 188.317 148.389 188.594L148.229 189.93C148.191 190.229 148.034 190.437 147.757 190.554C135.517 195.794 121.981 196.21 110.525 188.618C109.719 188.08 108.855 187.573 107.933 187.098L110.405 186.186C116.197 187.642 122.106 188.29 128.133 188.13C133.829 188.125 139.378 187.346 144.781 185.794Z" fill="#7E442B"/>
<path d="M107.932 187.098C108.855 187.573 109.719 188.079 110.524 188.618C121.98 196.21 135.516 195.794 147.756 190.554C148.033 190.437 148.191 190.229 148.228 189.93L148.388 188.594C148.42 188.317 148.575 188.197 148.852 188.234C150.644 188.514 150.34 190.498 151.7 190.066C146.74 202.362 133.78 206.474 121.524 204.034C112.932 202.328 106.535 197.282 102.332 188.898L107.932 187.098Z" fill="#894B37"/>
<path d="M152.324 188.73C164.516 191.013 176.068 195.519 186.98 202.25C153.596 229.378 101.316 228.194 68.3242 201.338C78.9642 194.938 90.3002 190.791 102.332 188.898C106.535 197.282 112.932 202.327 121.524 204.034C133.78 206.474 146.74 202.362 151.7 190.066L152.324 188.73Z" fill="#FFA61F"/>
<path d="M68.3245 201.338C101.316 228.194 153.596 229.378 186.98 202.25C189.759 202.778 192.474 203.941 195.124 205.738C195.343 205.888 195.362 206.058 195.18 206.25C158.596 244.754 99.3165 244.202 64.0125 204.41C63.9411 204.33 63.8894 204.234 63.8612 204.131C63.8331 204.027 63.8293 203.918 63.8502 203.813C63.8712 203.707 63.9162 203.608 63.9818 203.523C64.0474 203.438 64.1318 203.369 64.2285 203.322L68.3245 201.338Z" fill="#D1DEDE"/>
</svg>
