<svg width="256" height="256" viewBox="0 0 256 256" fill="none" xmlns="http://www.w3.org/2000/svg">
<path d="M76.2102 34.707C57.9649 45.907 44.1489 60.9497 34.7622 79.835" stroke="#739484" stroke-width="2"/>
<path d="M34.7623 79.8352C31.8076 86.1285 29.3969 92.7152 27.5303 99.5952" stroke="#638979" stroke-width="2"/>
<path d="M27.5302 99.595C23.0502 117.307 22.8342 135.211 26.8822 153.307" stroke="#578374" stroke-width="2"/>
<path d="M26.8818 153.307C30.1885 167.75 36.3085 180.998 45.2418 193.051" stroke="#477668" stroke-width="2"/>
<path d="M45.2422 193.051C58.4902 210.859 77.6022 224.227 98.8022 230.955" stroke="#3F7062" stroke-width="2"/>
<path d="M98.8022 230.955L105.858 232.843C106.141 232.918 106.293 232.808 106.314 232.515L107.706 215.339" stroke="#246C66" stroke-width="2"/>
<path d="M107.706 215.339C107.69 214.291 107.306 209.395 108.29 209.491C108.525 209.512 108.645 209.64 108.65 209.875L109.074 233.075C109.076 233.166 109.11 233.253 109.172 233.32C109.234 233.388 109.318 233.432 109.41 233.443L127.282 235.667" stroke="#30776E" stroke-width="2"/>
<path d="M164.45 25.2989C145.015 19.1176 125.303 18.3443 105.314 22.9789" stroke="#648E7C" stroke-width="2"/>
<path d="M105.314 22.979C94.8553 25.4963 85.154 29.4057 76.21 34.707" stroke="#749987" stroke-width="2"/>
<path d="M215.042 195.899C219.474 190.448 223.293 184.515 226.498 178.099" stroke="#3D725F" stroke-width="2"/>
<path d="M226.498 178.099C240.074 150.971 241.402 118.603 231.482 90.1149C225.41 72.6989 214.058 57.5629 199.994 45.6909" stroke="#417866" stroke-width="2"/>
<path d="M199.994 45.6909C190.527 37.5522 180.154 31.3202 168.874 26.9949" stroke="#528574" stroke-width="2"/>
<path d="M168.874 26.9953L164.45 25.2993" stroke="#65917D" stroke-width="2"/>
<path d="M168.874 26.9949C168.085 28.9522 167.32 30.9282 166.578 32.9229C165.434 36.0109 164.05 37.8269 164.762 41.3789C164.821 41.6669 164.976 41.8855 165.226 42.0349L171.098 45.5549" stroke="#89B891" stroke-width="2"/>
<path d="M171.098 45.5549C164.064 42.9736 157.026 41.1923 149.986 40.2109" stroke="#656F5D" stroke-width="2"/>
<path d="M149.986 40.2111C137.058 38.0137 124.296 38.9204 111.698 42.9311C110.194 43.4111 108.629 44.1924 107.002 45.275" stroke="#778169" stroke-width="2"/>
<path d="M107.002 45.275C109.082 42.355 113.042 36.451 107.754 35.075" stroke="#526551" stroke-width="2"/>
<path d="M107.754 35.0747C107.349 34.9787 106.698 35.0641 105.802 35.3307" stroke="#778169" stroke-width="2"/>
<path d="M105.802 35.331C105.797 35.3097 105.791 35.2857 105.786 35.259" stroke="#808F75" stroke-width="2"/>
<path d="M105.786 35.259C105.567 32.8217 105.607 30.3763 105.906 27.923C106.13 26.139 105.642 24.707 105.314 22.979" stroke="#ACCFA5" stroke-width="2"/>
<path d="M105.786 35.259C94.7301 38.899 79.5701 49.931 79.3381 62.707C79.3328 62.9844 79.1968 63.1577 78.9301 63.227C72.9515 64.6937 68.1675 68.011 64.5781 73.179" stroke="#909A80" stroke-width="2"/>
<path d="M64.5782 73.179C64.4342 72.9017 64.2822 72.7363 64.1222 72.683C64.0849 72.6723 64.0529 72.6803 64.0262 72.707L63.8502 72.883C63.7169 73.0163 63.5782 73.0243 63.4342 72.907C62.6822 72.299 62.0742 71.987 61.0582 72.243C51.9782 74.515 44.7862 77.771 36.7622 81.027C36.5062 81.1337 36.2502 81.1337 35.9942 81.027C35.4769 80.8137 35.0662 80.4163 34.7622 79.835" stroke="#ACCFA5" stroke-width="2"/>
<path d="M199.994 45.6909L196.938 47.6989C196.736 47.8322 196.573 48.0029 196.45 48.2109C195.208 50.2909 193.56 51.9896 191.506 53.3069C191.322 53.4236 191.171 53.5862 191.069 53.7788C190.967 53.9713 190.916 54.1872 190.923 54.4052C190.929 54.6231 190.992 54.8356 191.106 55.0218C191.219 55.2079 191.379 55.3614 191.57 55.4669C192.754 56.1283 193.234 57.0029 193.01 58.0909" stroke="#659F7A" stroke-width="2"/>
<path d="M193.01 58.091C189.794 55.3443 186.663 53.2723 183.618 51.875" stroke="#647560" stroke-width="2"/>
<path d="M183.619 51.8752C179.395 49.2672 175.221 47.1605 171.099 45.5552" stroke="#526354" stroke-width="2"/>
<path d="M107.754 35.075C106.058 40.0456 103.976 44.8083 101.506 49.363" stroke="#2D2220" stroke-width="2"/>
<path d="M101.506 49.3632C100.333 46.3605 100.183 43.4592 101.058 40.6592C101.154 40.3498 101.042 40.1632 100.722 40.0992L100.226 40.0032" stroke="#402B2C" stroke-width="2"/>
<path d="M100.226 40.0033C101.986 38.334 104.023 37.406 106.338 37.2193C106.605 37.198 106.714 37.0566 106.666 36.7953C106.581 36.2886 106.293 35.8006 105.802 35.3313" stroke="#5B4C44" stroke-width="2"/>
<path d="M100.226 40.0032C91.6423 44.1472 81.4423 53.3472 80.4983 63.5392C80.477 63.8059 80.341 63.9819 80.0904 64.0672C75.4664 65.6299 71.709 68.4245 68.8184 72.4512" stroke="#493A38" stroke-width="2"/>
<path d="M68.8182 72.4512C62.4715 80.8192 58.6688 90.0565 57.4102 100.163" stroke="#403434" stroke-width="2"/>
<path d="M57.4102 100.163L56.8662 103.867C56.8289 104.123 56.6875 104.203 56.4422 104.107C55.6529 103.803 55.1275 104 54.8662 104.699" stroke="#3D3332" stroke-width="2"/>
<path d="M54.8662 104.699L56.9222 90.9148" stroke="#748970" stroke-width="2"/>
<path d="M56.9224 90.915C58.3517 84.4296 60.9037 78.5176 64.5784 73.179" stroke="#808F75" stroke-width="2"/>
<path d="M107.002 45.2749L102.922 49.6749" stroke="#2D2220" stroke-width="2"/>
<path d="M102.922 49.6748C102.594 49.8588 101.266 50.1148 101.506 49.3628" stroke="#1A1014" stroke-width="2"/>
<path d="M149.986 40.2109C149.474 40.5363 149.824 41.1336 151.034 42.0029C151.44 42.2909 151.394 42.4029 150.898 42.3389C134.778 40.2589 119.258 43.5869 104.066 49.5549C103.65 49.7149 103.426 50.1549 102.922 49.6749" stroke="#402B2C" stroke-width="2"/>
<path d="M183.618 51.875C178.621 50.115 173.794 48.2031 169.138 46.1391C168.429 45.8244 167.746 45.6591 167.09 45.6431C167.012 45.6441 166.938 45.6721 166.878 45.7222C166.819 45.7723 166.779 45.8414 166.764 45.9178C166.75 45.9943 166.763 46.0732 166.801 46.1412C166.838 46.2093 166.898 46.2622 166.97 46.2911C172.528 48.2324 177.669 50.7977 182.394 53.9871" stroke="#402B2C" stroke-width="2"/>
<path d="M182.394 53.9871C179.285 56.2324 175.514 57.7364 171.082 58.499C158.002 60.739 139.786 65.099 127.874 67.171C127.623 67.2137 127.413 67.331 127.242 67.523L126.586 68.2591C126.399 68.4666 126.152 68.607 125.882 68.6591L119.362 70.0351C119.1 70.0919 118.828 70.046 118.602 69.9071C116.559 68.6804 114.586 68.8057 112.682 70.2831C112.463 70.4556 112.199 70.5636 111.922 70.5951C103.234 71.5177 94.2901 73.1524 85.0901 75.499C81.5595 76.4004 79.5275 76.0217 78.9941 74.3631" stroke="#25141C" stroke-width="2"/>
<path d="M78.9945 74.363C79.7145 73.7017 80.2052 73.0483 80.4665 72.403C80.5264 72.2514 80.5439 72.0868 80.5171 71.9273C80.4903 71.7678 80.4202 71.6196 80.3145 71.499L76.5545 67.251C76.4526 67.1366 76.3144 67.0611 76.1638 67.0377C76.0133 67.0144 75.86 67.0445 75.7305 67.123C73.2559 68.595 71.2692 70.4083 69.7705 72.563" stroke="#3A2328" stroke-width="2"/>
<path d="M69.7703 72.5632L68.8184 72.4512" stroke="#25141C" stroke-width="2"/>
<path d="M193.01 58.0911C196.418 60.6724 199.421 63.5311 202.018 66.6671" stroke="#536852" stroke-width="2"/>
<path d="M202.018 66.6672C210.823 78.6459 214.805 91.9099 213.962 106.459C213.957 106.614 213.877 106.689 213.722 106.683C213.653 106.683 213.573 106.686 213.482 106.691C213.21 106.713 213.063 106.587 213.042 106.315C212.186 94.1632 209.106 82.7072 202.274 72.6352" stroke="#342426" stroke-width="2"/>
<path d="M202.274 72.6351C197.01 65.2271 190.383 59.0111 182.394 53.9871" stroke="#372628" stroke-width="2"/>
<path d="M226.498 178.099C225.922 178.313 225.423 178.259 225.002 177.939C224.841 177.813 224.726 177.637 224.676 177.439C224.625 177.241 224.641 177.031 224.722 176.843C225.466 175.147 226.122 173.931 226.274 171.923C226.375 170.691 226.645 169.278 227.082 167.683C229.858 157.619 231.994 146.339 231.522 135.675C230.602 114.907 225.986 94.1631 211.826 78.2511C211.671 78.0751 211.479 78.0218 211.25 78.0912L210.226 78.4031" stroke="#4F8C65" stroke-width="2"/>
<path d="M210.226 78.4032C208.322 73.9232 205.586 70.0112 202.018 66.6672" stroke="#354F40" stroke-width="2"/>
<path d="M202.274 72.6349C201.597 72.6883 200.946 72.5682 200.322 72.2749C200.098 72.1682 199.933 72.2296 199.826 72.4589C199.25 73.7656 198.25 74.4722 196.826 74.5789C196.618 74.5949 196.45 74.6883 196.322 74.8589L196.09 75.1869C195.951 75.3683 195.773 75.4349 195.554 75.3869C193.914 75.0189 193.09 76.0429 191.826 76.3469C190.226 76.7416 188.629 77.1869 187.034 77.6829C186.778 77.7613 186.503 77.7641 186.242 77.6909C181.794 76.4269 179.394 77.4349 175.09 78.4829C172.266 79.1709 167.922 79.7229 164.41 80.9469C162.314 81.6829 160.258 81.9549 158.146 82.5229C156.754 82.8989 155.154 82.6909 153.658 83.3869C151.346 84.4749 150.666 84.7709 148.474 84.6829C147.274 84.6349 146.229 85.0803 145.338 86.0189C145.151 86.2163 144.927 86.3496 144.666 86.4189C141.514 87.2243 138.335 87.8723 135.13 88.3629C133.426 88.6269 131.49 88.0749 129.482 89.4989C129.433 89.5337 129.392 89.5789 129.362 89.6312C129.331 89.6836 129.313 89.7418 129.308 89.802C129.303 89.8621 129.31 89.9227 129.331 89.9795C129.351 90.0363 129.384 90.088 129.426 90.1309C129.575 90.2803 129.73 90.4296 129.89 90.5789C130.157 90.8349 130.109 91.0056 129.746 91.0909C129.65 91.1123 129.554 91.1389 129.458 91.1709C129.218 91.2562 128.991 91.2349 128.778 91.1069C122.671 87.5229 116.85 83.5229 111.314 79.1069C111.237 79.046 111.142 79.011 111.043 79.0067C110.945 79.0024 110.846 79.0291 110.762 79.0829C102.098 84.5949 94.2421 89.6989 86.6021 97.5469C85.9221 98.2429 85.4262 98.2669 84.6422 98.8349C84.5195 98.9256 84.4848 98.8989 84.5382 98.7549L85.1382 97.1709C85.1559 97.1189 85.158 97.0628 85.1441 97.0096C85.1302 96.9564 85.101 96.9085 85.06 96.8718C85.0191 96.8351 84.9682 96.8113 84.9138 96.8033C84.8594 96.7953 84.8039 96.8035 84.7541 96.8269C80.8715 98.7576 76.8368 100.288 72.6501 101.419C72.3301 101.507 71.9141 101.987 71.7461 102.267C71.6075 102.507 71.3995 102.622 71.1221 102.611C69.2501 102.536 67.7408 103.227 66.5942 104.683C66.4538 104.854 66.2598 104.975 66.0422 105.027C64.6288 105.336 63.2395 105.688 61.8741 106.083C61.6341 106.152 61.3888 106.171 61.1382 106.139L58.0261 105.747C57.7328 105.71 57.6288 105.55 57.7142 105.267C58.2742 103.427 58.1728 101.726 57.4102 100.163" stroke="#190D16" stroke-width="2"/>
<path d="M69.7706 72.563L66.6907 77.507C66.6082 77.6397 66.5618 77.7917 66.5562 77.9479C66.5506 78.104 66.586 78.259 66.6588 78.3972C66.7316 78.5355 66.8392 78.6523 66.9711 78.7362C67.103 78.82 67.2546 78.8678 67.4107 78.875C71.0747 79.035 74.9867 77.131 78.9947 74.363" stroke="#321E24" stroke-width="2"/>
<path d="M66.4181 92.7152C67.3141 93.2512 67.8021 94.0912 68.6581 94.6272C68.8928 94.7712 69.0821 94.7258 69.2261 94.4912C70.3461 92.6992 69.8181 90.8512 67.9061 90.0832C65.8261 89.2512 64.7701 91.7312 66.4181 92.7152Z" stroke="#25141C" stroke-width="2"/>
<path d="M60.4343 99.7951C61.7543 101.731 64.6583 101.139 65.0983 98.8351C65.1278 98.6863 65.1221 98.5333 65.0818 98.3887C65.0415 98.244 64.9676 98.1119 64.8663 98.0031L62.9703 95.9391C62.8002 95.7528 62.5835 95.6153 62.3425 95.5409C62.1014 95.4664 61.8449 95.4577 61.5994 95.5156C61.3539 95.5735 61.1283 95.6959 60.9459 95.8703C60.7636 96.0446 60.6312 96.2645 60.5623 96.5071C60.2583 97.5711 59.7623 98.8111 60.4343 99.7951Z" stroke="#25141C" stroke-width="2"/>
<path d="M210.226 78.4031C217.722 95.5151 216.474 117.355 213.322 135.403" stroke="#314839" stroke-width="2"/>
<path d="M213.322 135.403C211.589 133.872 209.485 133.168 207.01 133.291" stroke="#8A6451" stroke-width="2"/>
<path d="M207.01 133.291C199.762 134.235 198.45 140.611 194.834 145.451" stroke="#88533C" stroke-width="2"/>
<path d="M194.834 145.451C194.861 144.886 194.965 144.344 195.146 143.827C197.858 136.115 191.554 118.843 189.082 110.731C189.037 110.584 188.952 110.452 188.838 110.35C188.723 110.249 188.584 110.181 188.434 110.155L171.194 106.987" stroke="#884937" stroke-width="2"/>
<path d="M171.194 106.987L155.618 104.339" stroke="#300D12" stroke-width="2"/>
<path d="M155.618 104.339C152.786 103.262 150.01 102.369 147.29 101.659C134.261 98.2513 122.81 92.0113 112.938 82.9393C112.741 82.758 112.509 82.6699 112.242 82.6753C111.565 82.6859 110.975 82.8673 110.474 83.2193" stroke="#834136" stroke-width="2"/>
<path d="M110.474 83.2192C101.664 86.9792 93.9889 92.2166 87.4502 98.9312C79.6422 106.955 75.2022 119.139 72.3382 129.499C71.0742 134.059 70.9329 138.838 71.9142 143.835C71.927 143.879 71.9219 143.926 71.9001 143.965C71.8784 144.005 71.8417 144.035 71.7982 144.047C71.7547 144.06 71.708 144.055 71.6682 144.033C71.6285 144.011 71.599 143.975 71.5862 143.931C70.3542 140.843 67.5462 134.411 63.9702 133.539" stroke="#895F44" stroke-width="2"/>
<path d="M63.97 133.539C61.5754 132.537 59.2794 132.622 57.082 133.795" stroke="#897A5C" stroke-width="2"/>
<path d="M57.0823 133.795C55.3009 124.094 54.5623 114.395 54.8663 104.699" stroke="#4D6252" stroke-width="2"/>
<path d="M56.9223 90.9153C56.8316 90.8886 56.7569 90.8353 56.6983 90.7553C56.5489 90.5473 56.4769 90.5233 56.4823 90.6833C56.4823 90.7526 56.4823 90.8273 56.4823 90.9073C56.4832 90.9324 56.4777 90.9572 56.4661 90.9795C56.4545 91.0018 56.4372 91.021 56.4159 91.0352C56.3945 91.0495 56.3697 91.0584 56.3436 91.0612C56.3175 91.064 56.2909 91.0606 56.2663 91.0513C53.0503 89.6833 52.0823 91.5313 49.7143 92.6673C44.4556 95.1793 39.0476 97.3233 33.4903 99.0993C33.1329 99.2113 32.6396 99.2779 32.0103 99.2993C31.7489 99.3046 31.5089 99.3766 31.2903 99.5153C29.4449 100.678 28.1916 100.705 27.5303 99.5953" stroke="#90BE95" stroke-width="2"/>
<path d="M215.042 195.899C202.695 211.382 187.341 222.611 168.978 229.587" stroke="#3B6C5B" stroke-width="2"/>
<path d="M168.978 229.587C168.802 218.139 166.93 203.835 156.394 197.507" stroke="#8BB58B" stroke-width="2"/>
<path d="M156.395 197.507C153.952 195.933 151.464 194.837 148.931 194.219" stroke="#509E71" stroke-width="2"/>
<path d="M148.93 194.219C146.813 192.971 144.442 192.294 141.818 192.187" stroke="#A29060" stroke-width="2"/>
<path d="M141.818 192.187C141.882 192.08 141.935 191.984 141.978 191.899C142.063 191.718 142.205 191.624 142.402 191.619C159.938 190.923 180.674 185.691 193.114 172.451C195.61 169.795 198.418 165.723 201.194 162.483" stroke="#294633" stroke-width="2"/>
<path d="M201.194 162.483L202.122 162.099" stroke="#A29060" stroke-width="2"/>
<path d="M202.122 162.099C208.746 160.707 214.082 153.099 215.874 147.027C217.159 142.664 216.309 138.79 213.322 135.403" stroke="#A4A176" stroke-width="2"/>
<path d="M155.618 104.339C153.098 104.923 150.106 106.467 149.626 109.235" stroke="#9C4334" stroke-width="2"/>
<path d="M149.626 109.235C148.821 109.566 148.039 109.587 147.282 109.299C133.258 103.987 120.482 96.3952 110.082 85.3632C109.998 85.272 109.945 85.157 109.931 85.0348C109.916 84.9125 109.941 84.7894 110.002 84.6832C110.301 84.1606 110.458 83.6726 110.474 83.2192" stroke="#F59566" stroke-width="2"/>
<path d="M149.626 109.235L150.738 109.675" stroke="#A26141" stroke-width="2"/>
<path d="M150.738 109.675C150.898 110.107 150.893 110.579 150.722 111.091C150.637 111.347 150.658 111.595 150.786 111.835C153.066 116.003 154.882 120.483 158.482 123.811" stroke="#FAA76B" stroke-width="2"/>
<path d="M158.482 123.811C157.496 124.307 156.741 124.233 156.218 123.587C156.16 123.514 156.118 123.43 156.093 123.341C156.068 123.251 156.062 123.158 156.074 123.067L156.114 122.779C156.157 122.454 156.024 122.342 155.714 122.443L154.298 122.907C153.973 123.014 153.832 122.897 153.874 122.555C153.949 122.049 153.768 121.699 153.33 121.507C153.032 121.374 152.882 121.47 152.882 121.795V122.139C152.884 122.305 152.832 122.467 152.734 122.6C152.636 122.734 152.498 122.832 152.34 122.881C152.181 122.93 152.012 122.926 151.856 122.87C151.7 122.814 151.566 122.709 151.474 122.571C149.64 119.841 147.056 118.219 143.722 117.707C143.466 117.67 143.384 117.774 143.474 118.019L143.706 118.635C143.829 118.977 143.733 119.057 143.418 118.875C141.874 117.979 139.418 118.323 137.714 118.067C134.538 117.587 131.722 117.771 128.722 116.035C125.73 114.307 123.186 115.523 120.034 115.499C119.8 115.499 119.616 115.595 119.482 115.787L118.978 116.523C118.797 116.779 118.552 116.897 118.242 116.875C116.274 116.747 114.472 117.243 112.834 118.363C112.584 118.534 112.312 118.59 112.018 118.531C110.296 118.169 108.898 118.659 107.826 120.003C107.656 120.222 107.576 120.467 107.586 120.739C107.65 122.382 106.81 123.518 105.066 124.147" stroke="#FCB776" stroke-width="2"/>
<path d="M105.066 124.147C94.6504 122.243 87.9944 126.491 85.0984 136.891C84.1917 140.134 84.1971 142.824 85.1144 144.963" stroke="#815C3E" stroke-width="2"/>
<path d="M85.1143 144.963L87.2663 146.667" stroke="#F3CAA7" stroke-width="2"/>
<path d="M87.2662 146.667L87.1381 148.523C87.1284 148.654 87.0838 148.78 87.0092 148.887C86.9346 148.994 86.8326 149.078 86.7141 149.131C84.6875 150.022 82.7781 151.113 80.9861 152.403C79.6021 153.403 76.5221 157.475 79.7701 157.891C80.0421 157.923 80.2715 158.041 80.4581 158.243C82.8261 160.734 85.6661 162.515 88.9781 163.587C89.2359 163.67 89.4571 163.842 89.6021 164.075C92.0661 168.115 96.3061 166.939 100.146 167.243C100.42 167.264 100.688 167.346 100.93 167.483C101.245 167.665 101.517 167.657 101.746 167.459C101.917 167.31 102.117 167.241 102.346 167.251C104.986 167.379 108.13 166.771 110.634 167.523C111.546 167.795 112.485 167.961 113.45 168.019" stroke="#FCB776" stroke-width="2"/>
<path d="M113.45 168.019C114.677 171.822 116.872 175.251 120.034 178.307" stroke="#AE5D40" stroke-width="2"/>
<path d="M120.034 178.307C125.992 182.307 132.453 182.414 139.418 178.627" stroke="#EC7C4C" stroke-width="2"/>
<path d="M139.418 178.627C141.397 177.352 143.183 175.616 144.778 173.419" stroke="#AE5D40" stroke-width="2"/>
<path d="M144.778 173.419C145.13 173.968 145.29 174.651 145.258 175.467C145.253 175.597 145.22 175.725 145.16 175.841C145.101 175.957 145.017 176.059 144.914 176.139C143.922 176.939 142.933 177.758 141.946 178.595C141.919 178.618 141.901 178.649 141.897 178.684C141.892 178.718 141.901 178.753 141.921 178.782C141.942 178.812 141.973 178.833 142.008 178.843C142.043 178.852 142.081 178.85 142.114 178.835C145.69 176.883 146.61 172.115 151.306 173.027C151.582 173.084 151.869 173.056 152.13 172.947C157.069 170.878 162.175 169.398 167.45 168.507C167.578 168.486 167.653 168.539 167.674 168.667L167.714 168.979C167.721 169.022 167.74 169.062 167.768 169.095C167.796 169.128 167.832 169.152 167.873 169.166C167.914 169.18 167.958 169.183 168.001 169.174C168.043 169.165 168.082 169.144 168.114 169.115C169.943 167.28 171.327 166.128 172.266 165.659C176.095 163.734 176.389 162.606 173.146 162.275" stroke="#FCB776" stroke-width="2"/>
<path d="M173.146 162.275C176.335 162.446 179.511 162.235 182.674 161.643" stroke="#FA9D66" stroke-width="2"/>
<path d="M182.674 161.643C183.274 162.259 183.258 162.987 182.722 163.683C175.466 173.307 165.866 181.707 153.738 183.715C153.472 183.763 153.322 183.92 153.29 184.187C153.237 184.582 153.304 184.995 153.49 185.427" stroke="#FAA76B" stroke-width="2"/>
<path d="M153.49 185.427L138.642 187.715" stroke="#815C3E" stroke-width="2"/>
<path d="M138.643 187.715C138.275 187.603 137.949 187.568 137.667 187.611" stroke="#FAA76B" stroke-width="2"/>
<path d="M137.666 187.611L126.506 187.939" stroke="#FB9E52" stroke-width="2"/>
<path d="M126.507 187.939C107.235 185.859 84.5786 181.707 75.5306 161.843C75.4079 161.576 75.2079 161.485 74.9306 161.571C71.8319 162.515 68.6666 162.677 65.4346 162.059" stroke="#815C3E" stroke-width="2"/>
<path d="M65.434 162.059C65.0554 161.808 64.674 161.675 64.29 161.659" stroke="#AFA976" stroke-width="2"/>
<path d="M64.2901 161.659C63.4821 156.059 60.6101 154.547 58.2581 150.483C54.2581 143.587 57.2101 137.203 63.9701 133.539" stroke="#FCCD8B" stroke-width="2"/>
<path d="M108.418 109.867C110.093 110.032 111.792 110.099 113.514 110.067C113.76 110.062 113.973 109.979 114.154 109.819C117.058 107.275 112.882 104.699 110.458 104.147C100.994 102.003 91.9223 106.371 86.1863 113.827C85.7543 114.387 85.573 114.864 85.6423 115.259C85.6631 115.382 85.7149 115.497 85.793 115.594C85.871 115.691 85.9727 115.766 86.0886 115.814C86.2044 115.861 86.3307 115.878 86.4555 115.863C86.5803 115.849 86.6996 115.803 86.8023 115.731C93.357 111.07 100.562 109.115 108.418 109.867Z" stroke="#AE5D40" stroke-width="2"/>
<path d="M61.5463 142.971C59.8583 149.611 66.7943 152.499 72.2263 152.395C72.2796 152.395 72.2903 152.374 72.2583 152.331C70.9303 150.283 69.5943 147.547 68.2503 144.123C67.3063 141.731 62.7143 138.355 61.5463 142.971Z" stroke="#E38A5D" stroke-width="2"/>
<path d="M57.0822 133.795C55.3968 135.022 53.9088 136.776 52.6182 139.059" stroke="#C0D09A" stroke-width="2"/>
<path d="M52.6178 139.059C51.9218 139.203 51.6338 140.539 50.8498 140.075C50.6045 139.931 50.4818 140 50.4818 140.283V140.651C50.4818 140.843 50.3885 140.918 50.2018 140.875C49.4818 140.694 48.9618 140.92 48.6418 141.555C48.5138 141.806 48.3245 141.998 48.0738 142.131C44.4098 144.136 40.7912 146.224 37.2178 148.395C34.2898 150.171 32.8258 149.427 29.9458 152.307C29.0018 153.246 27.9805 153.579 26.8818 153.307" stroke="#73AC85" stroke-width="2"/>
<path d="M171.194 106.987C173.994 109.024 176.472 111.768 178.626 115.219C178.724 115.379 178.767 115.567 178.749 115.754C178.731 115.941 178.654 116.117 178.528 116.256C178.402 116.395 178.235 116.49 178.051 116.527C177.867 116.563 177.676 116.54 177.506 116.459L174.578 115.011" stroke="#A14B34" stroke-width="2"/>
<path d="M174.578 115.011C166.122 109.347 159.834 109.707 150.738 109.675" stroke="#A15539" stroke-width="2"/>
<path d="M194.834 145.451L192.066 145.219C191.773 145.198 191.621 145.038 191.61 144.739C191.378 138.539 189.93 126.987 183.042 124.379C179.933 123.2 176.813 122.027 173.682 120.859C170.402 119.643 172.834 116.531 174.578 115.011" stroke="#F9915E" stroke-width="2"/>
<path d="M207.01 133.291C211.826 136.326 213.711 140.611 212.666 146.147C211.322 153.283 208.49 154.763 203.266 158.979C203.063 159.139 202.927 159.342 202.858 159.587L202.122 162.099" stroke="#FBAC79" stroke-width="2"/>
<path d="M201.194 162.483C198.021 163 194.976 162.534 192.058 161.083C191.966 161.036 191.858 161.027 191.758 161.058C191.658 161.089 191.574 161.159 191.522 161.251C183.018 176.563 170.05 182.147 153.49 185.427" stroke="#805136" stroke-width="2"/>
<path d="M182.674 161.643L187.274 157.331C187.436 157.18 187.532 156.973 187.544 156.752C187.556 156.531 187.482 156.314 187.338 156.147C184.146 152.435 179.09 150.883 174.37 150.147" stroke="#F9915E" stroke-width="2"/>
<path d="M174.37 150.147C174.029 148.782 174.247 147.88 175.026 147.443" stroke="#FBAC6E" stroke-width="2"/>
<path d="M175.026 147.443C178.365 147.075 180.234 146.2 180.634 144.819" stroke="#F2BE9F" stroke-width="2"/>
<path d="M180.634 144.819C181.253 144.44 181.559 143.915 181.554 143.243C181.45 132.747 175.682 123.547 164.226 123.587" stroke="#88533C" stroke-width="2"/>
<path d="M164.226 123.587C162.679 122.814 160.765 122.888 158.482 123.811" stroke="#FBAC6E" stroke-width="2"/>
<path d="M206.122 141.051C200.682 138.275 197.562 149.555 196.442 152.811C196.367 153.019 196.439 153.107 196.658 153.075C201.658 152.275 207.466 150.131 207.882 144.507C207.994 142.971 207.482 141.747 206.122 141.051Z" stroke="#E27F55" stroke-width="2"/>
<path d="M164.226 123.587C158.199 123.976 154.498 126.67 153.122 131.667" stroke="#8A6447" stroke-width="2"/>
<path d="M153.122 131.667C151.618 135.731 151.09 143.139 155.138 146.035C160.338 149.755 168.746 147.947 175.026 147.443" stroke="#F4CFAA" stroke-width="2"/>
<path d="M174.37 150.147C170.522 149.763 161.666 151.323 160.626 156.243C160.57 156.521 160.618 156.809 160.762 157.051C163.066 160.947 168.738 162.315 173.146 162.275" stroke="#FBA269" stroke-width="2"/>
<path d="M144.778 173.419L149.066 163.851C149.205 163.531 149.125 163.456 148.826 163.627C136.954 170.163 121.778 168.843 113.61 157.531C113.513 157.399 113.378 157.299 113.223 157.246C113.067 157.192 112.899 157.187 112.741 157.232C112.583 157.276 112.442 157.367 112.337 157.494C112.233 157.62 112.169 157.776 112.154 157.939C111.893 161.358 112.325 164.718 113.45 168.019" stroke="#AF6243" stroke-width="2"/>
<path d="M87.2666 146.667C92.0293 147.211 96.8106 147.627 101.611 147.915C111.987 148.539 115.379 139.827 111.779 131.299" stroke="#F4CFAA" stroke-width="2"/>
<path d="M111.778 131.299C110.92 128.184 108.682 125.8 105.066 124.147" stroke="#826141" stroke-width="2"/>
<path d="M128.066 151.899C127.048 150.694 125.797 150.238 124.314 150.531C124.194 150.555 124.083 150.612 123.992 150.695C123.902 150.779 123.836 150.885 123.802 151.003C123.242 153.046 123.93 154.099 125.866 154.163" stroke="#FDD4AC" stroke-width="2"/>
<path d="M125.866 154.163C124.65 154.819 124.317 155.614 124.866 156.547C125.005 156.777 125.202 156.923 125.458 156.987C128.216 157.67 130.368 156.763 131.914 154.267C134.514 150.091 128.722 145.787 126.458 148.843C126.277 149.083 126.325 149.262 126.602 149.379C127.701 149.859 128.189 150.699 128.066 151.899" stroke="#FCAD65" stroke-width="2"/>
<path d="M125.866 154.163C127.818 153.688 128.552 152.934 128.066 151.899" stroke="#FCC597" stroke-width="2"/>
<path d="M81.9143 157.779C86.5623 163.147 95.1623 162.595 100.986 159.939C103.906 158.603 106.418 154.723 103.034 152.707C98.9303 150.251 92.7623 148.827 88.1783 150.571C86.2983 151.283 79.3543 154.819 81.9143 157.779Z" stroke="#FBA269" stroke-width="2"/>
<path d="M111.778 131.299C110.445 130.435 109.21 129.555 108.074 128.659C100.258 122.499 89.8742 127.347 86.9222 136.115C86.0982 138.579 85.8263 141.923 85.1143 144.963" stroke="#797471" stroke-width="2"/>
<path d="M180.634 144.819C179.258 137.811 178.226 131.811 172.514 128.267C165.85 124.131 158.21 125.731 153.122 131.667" stroke="#817677" stroke-width="2"/>
<path d="M104.646 145.231C105.445 145.185 106.226 144.951 106.943 144.543C107.66 144.135 108.3 143.56 108.826 142.852C109.353 142.144 109.755 141.316 110.01 140.415C110.264 139.515 110.367 138.56 110.312 137.604C110.257 136.649 110.045 135.712 109.688 134.846C109.332 133.981 108.837 133.205 108.233 132.562C107.629 131.919 106.927 131.422 106.168 131.099C105.408 130.776 104.606 130.633 103.807 130.679C103.008 130.725 102.227 130.959 101.51 131.367C100.792 131.775 100.152 132.35 99.6263 133.058C99.1001 133.767 98.6981 134.594 98.4432 135.495C98.1882 136.395 98.0853 137.35 98.1404 138.306C98.1955 139.261 98.4075 140.198 98.7642 141.064C99.121 141.929 99.6155 142.705 100.22 143.348C100.824 143.991 101.525 144.488 102.285 144.811C103.044 145.134 103.847 145.277 104.646 145.231Z" stroke="#797471" stroke-width="2"/>
<path d="M159.944 145.627C160.763 145.68 161.586 145.536 162.367 145.204C163.148 144.872 163.872 144.358 164.496 143.691C165.121 143.024 165.634 142.218 166.007 141.318C166.38 140.418 166.605 139.442 166.669 138.446C166.799 136.435 166.267 134.463 165.19 132.965C164.113 131.467 162.578 130.566 160.925 130.459C160.106 130.406 159.283 130.55 158.502 130.882C157.72 131.214 156.997 131.728 156.372 132.395C155.748 133.062 155.235 133.868 154.862 134.768C154.489 135.668 154.264 136.644 154.199 137.64C154.069 139.651 154.601 141.623 155.679 143.121C156.756 144.618 158.29 145.52 159.944 145.627Z" stroke="#797471" stroke-width="2"/>
<path d="M159.464 137.431C159.711 137.415 159.951 137.342 160.171 137.214C160.392 137.086 160.588 136.906 160.749 136.686C160.91 136.465 161.033 136.207 161.11 135.927C161.187 135.647 161.217 135.35 161.198 135.053C161.161 134.454 160.927 133.892 160.548 133.49C160.17 133.089 159.678 132.88 159.18 132.912C158.934 132.927 158.693 133.001 158.473 133.129C158.252 133.257 158.056 133.436 157.895 133.657C157.734 133.878 157.611 134.136 157.534 134.416C157.457 134.696 157.427 134.993 157.446 135.289C157.484 135.889 157.717 136.451 158.096 136.853C158.474 137.254 158.967 137.462 159.464 137.431Z" stroke="#797471" stroke-width="2"/>
<path d="M104.991 137.111C105.404 136.973 105.729 136.63 105.895 136.155C106.062 135.681 106.056 135.115 105.878 134.581C105.79 134.317 105.663 134.069 105.503 133.851C105.344 133.633 105.156 133.449 104.949 133.311C104.742 133.172 104.522 133.081 104.299 133.043C104.077 133.004 103.857 133.02 103.653 133.088C103.24 133.225 102.915 133.568 102.748 134.043C102.582 134.517 102.588 135.083 102.766 135.617C102.854 135.881 102.981 136.129 103.14 136.347C103.3 136.565 103.488 136.749 103.695 136.888C103.901 137.026 104.122 137.117 104.345 137.156C104.567 137.194 104.787 137.179 104.991 137.111Z" stroke="#797471" stroke-width="2"/>
<path d="M64.29 161.659C55.41 156.304 51.5193 148.771 52.618 139.059" stroke="#B0C48E" stroke-width="2"/>
<path d="M65.4346 162.059L71.5146 170.443" stroke="#355341" stroke-width="2"/>
<path d="M71.5142 170.443C71.4742 172.387 70.2262 173.323 69.7462 174.859C69.0182 177.219 68.6342 179.195 66.7942 181.091C65.4395 182.483 64.2422 184.016 63.2022 185.691C63.0569 185.924 62.8401 186.102 62.5862 186.195C61.6902 186.515 61.0315 187.118 60.6102 188.003C60.4768 188.28 60.2662 188.47 59.9782 188.571C58.2822 189.174 57.2662 190.336 56.9302 192.059C56.8886 192.274 56.8028 192.478 56.6782 192.658C56.5537 192.839 56.3932 192.991 56.2067 193.106C56.0202 193.221 55.8119 193.296 55.595 193.327C55.378 193.357 55.1571 193.342 54.9462 193.283C51.8208 192.403 48.5862 192.326 45.2422 193.051" stroke="#5B9973" stroke-width="2"/>
<path d="M139.418 178.627C140.351 176.536 138.976 174.68 135.29 173.059C133.706 172.36 130.92 172.19 126.93 172.547C123.832 172.819 121.533 174.739 120.034 178.307" stroke="#9F2718" stroke-width="2"/>
<path d="M141.818 192.187L139.41 192.091C139.117 192.075 138.959 191.923 138.938 191.635L138.642 187.715" stroke="#805136" stroke-width="2"/>
<path d="M126.506 187.939C126.778 189.272 126.789 190.48 126.538 191.563" stroke="#81481C" stroke-width="2"/>
<path d="M126.539 191.563C123.989 191.75 122.17 191.787 121.082 191.675C106.626 190.147 92.6985 186.827 80.3545 178.867" stroke="#294633" stroke-width="2"/>
<path d="M80.3542 178.867C77.0582 176.456 74.1115 173.648 71.5142 170.443" stroke="#2D4C3A" stroke-width="2"/>
<path d="M80.3541 178.867L78.7781 180.099C78.5914 180.249 78.5647 180.422 78.6981 180.619L101.114 212.859" stroke="#4F8C65" stroke-width="2"/>
<path d="M101.114 212.859L99.3223 224.331C99.2914 224.532 99.334 224.736 99.4424 224.907C99.5384 225.046 99.5837 225.155 99.5784 225.235" stroke="#60AA83" stroke-width="2"/>
<path d="M99.5782 225.235L98.8022 230.955" stroke="#398F71" stroke-width="2"/>
<path d="M126.538 191.563C126.666 191.755 126.703 191.904 126.65 192.011" stroke="#A38847" stroke-width="2"/>
<path d="M126.65 192.011L124.53 192.963" stroke="#A29060" stroke-width="2"/>
<path d="M124.53 192.963C121.546 193.267 117.714 192.339 117.042 196.603" stroke="#A49D63" stroke-width="2"/>
<path d="M117.042 196.603C117.351 195.942 117.02 195.571 116.05 195.491" stroke="#409371" stroke-width="2"/>
<path d="M116.05 195.491L116.098 195.075C116.136 194.734 115.986 194.595 115.65 194.659C106.674 196.419 103.81 204.363 101.114 212.859" stroke="#5CA37B" stroke-width="2"/>
<path d="M137.666 187.611C137.234 188.843 138.634 190.395 137.49 191.723C137.314 191.926 137.09 192.032 136.818 192.043L128.186 192.395C128.015 192.406 127.855 192.363 127.706 192.267C127.45 192.107 127.098 192.022 126.65 192.011" stroke="#FA934A" stroke-width="2"/>
<path d="M148.93 194.219C148.824 194.603 148.877 194.864 149.09 195.003" stroke="#A7A974" stroke-width="2"/>
<path d="M149.09 195.003L148.338 197.635" stroke="#8C936C" stroke-width="2"/>
<path d="M148.339 197.635C147.229 198.835 146.245 200.083 145.387 201.379C144.883 202.131 143.251 201.659 142.579 201.675C139.187 201.739 135.824 202.075 132.491 202.683C127.371 203.619 124.371 196.899 124.531 192.963" stroke="#FBA866" stroke-width="2"/>
<path d="M148.338 197.635C144.898 204.547 139.386 209.243 131.298 209.307" stroke="#8DA06F" stroke-width="2"/>
<path d="M131.298 209.307C123.938 208.011 119.186 203.776 117.042 196.603" stroke="#99AB76" stroke-width="2"/>
<path d="M156.394 197.507C156.271 197.385 156.125 197.483 155.954 197.803" stroke="#8FCD9F" stroke-width="2"/>
<path d="M155.954 197.803C153.896 196.406 151.608 195.473 149.09 195.003" stroke="#39A17D" stroke-width="2"/>
<path d="M116.05 195.491C111.738 194.747 105.178 208.971 104.034 211.779C102.89 214.571 98.9221 220.827 100.666 224.371" stroke="#51B18F" stroke-width="2"/>
<path d="M100.666 224.371C100.693 224.531 100.663 224.718 100.578 224.931C100.533 225.047 100.45 225.145 100.343 225.209C100.235 225.273 100.11 225.299 99.9861 225.283L99.5781 225.235" stroke="#46A687" stroke-width="2"/>
<path d="M155.954 197.803C158.477 199.163 160.394 200.99 161.706 203.283" stroke="#74B897" stroke-width="2"/>
<path d="M161.706 203.283L159.746 202.475C159.626 202.427 159.494 202.414 159.367 202.436C159.24 202.459 159.122 202.517 159.026 202.603C156.418 204.923 151.138 204.715 146.226 205.179C146.111 205.189 145.995 205.169 145.888 205.122C145.782 205.074 145.689 205 145.618 204.907C145.304 204.486 144.88 204.36 144.346 204.531C144.122 204.6 143.93 204.718 143.77 204.883C140.058 208.67 135.901 210.145 131.298 209.307" stroke="#2A967D" stroke-width="2"/>
<path d="M161.706 203.283C164.853 208.301 166.701 213.741 167.25 219.603" stroke="#80C39F" stroke-width="2"/>
<path d="M167.25 219.603C166.706 220.163 166.354 220.963 166.194 222.003" stroke="#2A9070" stroke-width="2"/>
<path d="M166.194 222.003L161.802 226.403C161.731 226.475 161.638 226.521 161.537 226.533C161.437 226.545 161.335 226.523 161.249 226.47C161.163 226.418 161.097 226.337 161.062 226.242C161.028 226.147 161.026 226.043 161.058 225.947L161.162 225.643C161.178 225.594 161.176 225.541 161.157 225.493C161.138 225.444 161.103 225.404 161.058 225.379L160.834 225.243C160.658 225.136 160.562 224.979 160.546 224.771C160.13 219.291 161.082 213.323 159.77 208.067C159.736 207.924 159.651 207.798 159.531 207.714C159.411 207.629 159.264 207.592 159.118 207.609C158.972 207.625 158.837 207.695 158.739 207.805C158.641 207.914 158.586 208.056 158.586 208.203L158.122 232.547" stroke="#317D71" stroke-width="2"/>
<path d="M158.122 232.547C147.424 234.958 137.144 235.998 127.282 235.667" stroke="#307A6F" stroke-width="2"/>
<path d="M107.706 215.339C105.749 215.35 104.456 215.787 103.826 216.651C103.49 217.115 102.928 218.243 102.139 220.035C101.563 221.339 101.659 222.923 100.667 224.371" stroke="#2A967D" stroke-width="2"/>
<path d="M113.85 211.051C113.973 211.392 114.114 211.672 114.274 211.891C114.33 211.963 114.409 212.013 114.497 212.033C114.586 212.054 114.679 212.042 114.76 212.002C114.841 211.961 114.906 211.894 114.943 211.811C114.979 211.728 114.986 211.635 114.962 211.547L111.754 201.419C111.706 201.264 111.618 201.238 111.49 201.339C110.306 202.283 106.442 207.451 109.866 207.755C110.186 207.787 110.392 207.955 110.482 208.259C110.898 209.635 111.84 210.419 113.306 210.611C113.429 210.628 113.545 210.678 113.641 210.756C113.736 210.833 113.809 210.935 113.85 211.051Z" stroke="#51B18F" stroke-width="2"/>
<path d="M158.122 232.547L161.682 231.739" stroke="#2C555B" stroke-width="2"/>
<path d="M161.682 231.739L168.506 229.579" stroke="#25695A" stroke-width="2"/>
<path d="M168.506 229.579C168.666 229.579 168.824 229.582 168.978 229.587" stroke="#7B9B89" stroke-width="2"/>
<path d="M168.506 229.579L167.25 219.603" stroke="#75B28A" stroke-width="2"/>
<path d="M166.194 222.003C164.33 225.667 161.098 226.867 161.682 231.739" stroke="#266C5C" stroke-width="2"/>
<path d="M164.45 25.2989L168.874 26.995C168.085 28.9523 167.319 30.9283 166.578 32.9229C165.434 36.0109 164.05 37.8269 164.762 41.3789C164.821 41.6669 164.975 41.8856 165.226 42.0349L171.098 45.5549C164.063 42.9736 157.026 41.1923 149.986 40.2109C137.058 38.0136 124.295 38.9203 111.698 42.9309C110.194 43.4109 108.629 44.1923 107.002 45.2749C109.082 42.3549 113.042 36.4509 107.754 35.0749C107.349 34.9789 106.698 35.0643 105.802 35.3309C105.797 35.3096 105.791 35.2856 105.786 35.2589C105.567 32.8216 105.607 30.3763 105.906 27.9229C106.13 26.1389 105.642 24.7069 105.314 22.9789C125.303 18.3443 145.015 19.1176 164.45 25.2989Z" fill="#9CC49A"/>
<path d="M105.314 22.979C105.642 24.707 106.13 26.139 105.906 27.923C105.608 30.3763 105.568 32.8217 105.786 35.259C94.7302 38.899 79.5702 49.931 79.3382 62.707C79.3329 62.9843 79.1969 63.1577 78.9302 63.227C72.9515 64.6937 68.1675 68.011 64.5782 73.179C64.4342 72.9017 64.2822 72.7363 64.1222 72.683C64.0849 72.6723 64.0529 72.6803 64.0262 72.707L63.8502 72.883C63.7169 73.0163 63.5782 73.0243 63.4342 72.907C62.6822 72.299 62.0742 71.987 61.0582 72.243C51.9782 74.515 44.7862 77.771 36.7622 81.027C36.5062 81.1337 36.2502 81.1337 35.9942 81.027C35.4769 80.8137 35.0662 80.4163 34.7622 79.835C44.1489 60.9497 57.9649 45.907 76.2102 34.707C85.1542 29.4057 94.8555 25.4963 105.314 22.979Z" fill="#BBDAB0"/>
<path d="M168.874 26.9949C180.154 31.3202 190.528 37.5522 199.994 45.6909L196.938 47.6989C196.736 47.8322 196.573 48.0029 196.45 48.2109C195.208 50.2909 193.56 51.9895 191.506 53.3069C191.322 53.4235 191.171 53.5862 191.069 53.7787C190.967 53.9713 190.916 54.1872 190.923 54.4051C190.929 54.623 190.992 54.8355 191.106 55.0217C191.219 55.2079 191.379 55.3613 191.57 55.4669C192.754 56.1282 193.234 57.0029 193.01 58.0909C189.794 55.3442 186.664 53.2722 183.618 51.8749C179.394 49.2669 175.221 47.1602 171.098 45.5549L165.226 42.0349C164.976 41.8855 164.821 41.6669 164.762 41.3789C164.05 37.8269 165.434 36.0109 166.578 32.9229C167.32 30.9282 168.085 28.9522 168.874 26.9949Z" fill="#76AC88"/>
<path d="M107.754 35.0747C106.058 40.0454 103.975 44.8081 101.506 49.3628C100.333 46.3601 100.183 43.4587 101.058 40.6587C101.154 40.3494 101.042 40.1627 100.722 40.0987L100.226 40.0027C101.986 38.3334 104.023 37.4054 106.338 37.2188C106.605 37.1974 106.714 37.0561 106.666 36.7948C106.581 36.2881 106.293 35.8001 105.802 35.3307C106.698 35.0641 107.349 34.9787 107.754 35.0747Z" fill="#523D38"/>
<path d="M105.786 35.259C105.792 35.2857 105.797 35.3097 105.802 35.331C106.293 35.8004 106.581 36.2884 106.666 36.795C106.714 37.0564 106.605 37.1977 106.338 37.219C104.024 37.4057 101.986 38.3337 100.226 40.003C91.6422 44.147 81.4422 53.347 80.4982 63.539C80.4769 63.8057 80.3409 63.9817 80.0902 64.067C75.4662 65.6297 71.7089 68.4244 68.8182 72.451C62.4715 80.819 58.6689 90.0564 57.4102 100.163L56.8662 103.867C56.8289 104.123 56.6875 104.203 56.4422 104.107C55.6529 103.803 55.1275 104 54.8662 104.699L56.9222 90.915C58.3515 84.4297 60.9035 78.5177 64.5782 73.179C68.1675 68.011 72.9515 64.6937 78.9302 63.227C79.1969 63.1577 79.3329 62.9844 79.3382 62.707C79.5702 49.931 94.7302 38.899 105.786 35.259Z" fill="#645A4F"/>
<path d="M107.754 35.075C113.042 36.451 109.082 42.355 107.002 45.275L102.922 49.675C102.594 49.859 101.266 50.115 101.506 49.363C103.976 44.8083 106.058 40.0456 107.754 35.075Z" fill="#070608"/>
<path d="M149.986 40.2108C149.474 40.5361 149.824 41.1335 151.034 42.0028C151.44 42.2908 151.394 42.4028 150.898 42.3388C134.778 40.2588 119.258 43.5868 104.066 49.5548C103.65 49.7148 103.426 50.1548 102.922 49.6748L107.002 45.2748C108.629 44.1921 110.194 43.4108 111.698 42.9308C124.296 38.9201 137.058 38.0135 149.986 40.2108Z" fill="#523D38"/>
<path d="M100.226 40.0032L100.722 40.0992C101.042 40.1632 101.154 40.3498 101.058 40.6592C100.184 43.4592 100.333 46.3605 101.506 49.3632C101.266 50.1152 102.594 49.8592 102.922 49.6752C103.426 50.1552 103.65 49.7152 104.066 49.5552C119.258 43.5872 134.778 40.2592 150.898 42.3392C151.394 42.4032 151.44 42.2912 151.034 42.0032C149.824 41.1338 149.474 40.5365 149.986 40.2112C157.026 41.1925 164.064 42.9738 171.098 45.5552C175.221 47.1605 179.394 49.2672 183.618 51.8752C178.621 50.1152 173.794 48.2032 169.138 46.1392C168.429 45.8245 167.746 45.6592 167.09 45.6432C167.013 45.6443 166.938 45.6722 166.878 45.7223C166.819 45.7724 166.779 45.8416 166.765 45.918C166.75 45.9944 166.763 46.0733 166.801 46.1414C166.838 46.2094 166.898 46.2624 166.97 46.2912C172.528 48.2325 177.669 50.7978 182.394 53.9872C179.285 56.2325 175.514 57.7365 171.082 58.4992C158.002 60.7392 139.786 65.0992 127.874 67.1712C127.624 67.2138 127.413 67.3312 127.242 67.5232L126.586 68.2592C126.4 68.4667 126.152 68.6071 125.882 68.6592L119.362 70.0352C119.1 70.092 118.828 70.0461 118.602 69.9072C116.56 68.6805 114.586 68.8058 112.682 70.2832C112.463 70.4557 112.2 70.5637 111.922 70.5952C103.234 71.5179 94.2904 73.1525 85.0904 75.4992C81.5597 76.4005 79.5277 76.0219 78.9944 74.3632C79.7144 73.7019 80.205 73.0485 80.4664 72.4032C80.5263 72.2516 80.5438 72.087 80.5169 71.9275C80.4901 71.768 80.42 71.6198 80.3144 71.4992L76.5543 67.2512C76.4524 67.1368 76.3142 67.0613 76.1637 67.0379C76.0132 67.0146 75.8598 67.0447 75.7303 67.1232C73.2557 68.5952 71.269 70.4085 69.7703 72.5632L68.8184 72.4512C71.709 68.4245 75.4664 65.6299 80.0904 64.0672C80.341 63.9819 80.477 63.8059 80.4983 63.5392C81.4423 53.3472 91.6423 44.1472 100.226 40.0032Z" fill="#2D1920"/>
<path d="M183.618 51.875C186.663 53.2724 189.794 55.3444 193.01 58.0911C196.418 60.6724 199.421 63.5311 202.018 66.6671C210.824 78.6457 214.805 91.9097 213.962 106.459C213.957 106.614 213.877 106.688 213.722 106.683C213.653 106.683 213.573 106.686 213.482 106.691C213.21 106.712 213.064 106.587 213.042 106.315C212.186 94.1631 209.106 82.7071 202.274 72.6351C197.01 65.2271 190.384 59.0111 182.394 53.9871C177.669 50.7977 172.528 48.2324 166.97 46.2911C166.898 46.2622 166.838 46.2093 166.801 46.1412C166.763 46.0732 166.75 45.9943 166.764 45.9178C166.779 45.8414 166.819 45.7723 166.878 45.7222C166.938 45.6721 167.012 45.6441 167.09 45.6431C167.746 45.6591 168.429 45.8244 169.138 46.1391C173.794 48.2031 178.621 50.115 183.618 51.875Z" fill="#523D38"/>
<path d="M199.994 45.6909C214.058 57.5629 225.41 72.6989 231.482 90.1149C241.402 118.603 240.074 150.971 226.498 178.099C225.922 178.312 225.424 178.259 225.002 177.939C224.841 177.813 224.727 177.637 224.676 177.439C224.625 177.24 224.642 177.031 224.722 176.843C225.466 175.147 226.122 173.931 226.274 171.923C226.376 170.691 226.645 169.278 227.082 167.683C229.858 157.619 231.994 146.339 231.522 135.675C230.602 114.907 225.986 94.1629 211.826 78.2509C211.672 78.0749 211.48 78.0216 211.25 78.0909L210.226 78.4029C208.322 73.9229 205.586 70.0109 202.018 66.6669C199.421 63.5309 196.418 60.6723 193.01 58.0909C193.234 57.0029 192.754 56.1283 191.57 55.4669C191.379 55.3614 191.219 55.2079 191.106 55.0218C190.992 54.8356 190.929 54.6231 190.923 54.4052C190.916 54.1872 190.967 53.9713 191.069 53.7788C191.171 53.5862 191.322 53.4236 191.506 53.3069C193.56 51.9896 195.208 50.2909 196.45 48.2109C196.573 48.0029 196.736 47.8322 196.938 47.6989L199.994 45.6909Z" fill="#53926C"/>
<path d="M182.394 53.9868C190.383 59.0108 197.01 65.2268 202.274 72.6348C201.597 72.6881 200.946 72.5681 200.322 72.2748C200.098 72.1681 199.933 72.2295 199.826 72.4588C199.25 73.7655 198.25 74.4721 196.826 74.5788C196.618 74.5948 196.45 74.6881 196.322 74.8588L196.09 75.1868C195.951 75.3682 195.773 75.4348 195.554 75.3868C193.914 75.0188 193.09 76.0428 191.826 76.3468C190.226 76.7415 188.629 77.1868 187.034 77.6828C186.778 77.7612 186.503 77.7639 186.242 77.6908C181.794 76.4268 179.394 77.4348 175.09 78.4828C172.266 79.1708 167.922 79.7228 164.41 80.9468C162.314 81.6828 160.258 81.9548 158.146 82.5228C156.754 82.8988 155.154 82.6908 153.658 83.3868C151.346 84.4748 150.666 84.7708 148.474 84.6828C147.274 84.6348 146.229 85.0802 145.338 86.0188C145.151 86.2162 144.927 86.3495 144.666 86.4188C141.514 87.2242 138.335 87.8722 135.13 88.3628C133.426 88.6268 131.49 88.0748 129.482 89.4988C129.433 89.5336 129.392 89.5788 129.362 89.6311C129.331 89.6835 129.313 89.7417 129.308 89.8019C129.303 89.862 129.31 89.9226 129.331 89.9794C129.351 90.0362 129.384 90.0878 129.426 90.1308C129.575 90.2801 129.73 90.4295 129.89 90.5788C130.157 90.8348 130.109 91.0055 129.746 91.0908C129.65 91.1122 129.554 91.1388 129.458 91.1708C129.218 91.2561 128.991 91.2348 128.778 91.1068C122.671 87.5228 116.85 83.5228 111.314 79.1068C111.237 79.0459 111.142 79.0109 111.043 79.0066C110.945 79.0023 110.846 79.0289 110.762 79.0828C102.098 84.5948 94.2421 89.6988 86.6021 97.5468C85.9221 98.2428 85.4262 98.2668 84.6422 98.8348C84.5195 98.9255 84.4848 98.8988 84.5382 98.7548L85.1382 97.1708C85.1559 97.1188 85.158 97.0627 85.1441 97.0095C85.1302 96.9563 85.101 96.9084 85.06 96.8717C85.0191 96.835 84.9682 96.8112 84.9138 96.8032C84.8594 96.7952 84.8039 96.8034 84.7541 96.8268C80.8715 98.7575 76.8368 100.288 72.6501 101.419C72.3301 101.507 71.9141 101.987 71.7461 102.267C71.6075 102.507 71.3995 102.621 71.1221 102.611C69.2501 102.536 67.7408 103.227 66.5942 104.683C66.4538 104.854 66.2598 104.975 66.0422 105.027C64.6288 105.336 63.2395 105.688 61.8741 106.083C61.6341 106.152 61.3888 106.171 61.1382 106.139L58.0261 105.747C57.7328 105.709 57.6288 105.549 57.7142 105.267C58.2742 103.427 58.1728 101.725 57.4102 100.163C58.6688 90.0562 62.4715 80.8188 68.8182 72.4508L69.7701 72.5628L66.6902 77.5068C66.6077 77.6395 66.5613 77.7915 66.5557 77.9477C66.5501 78.1039 66.5855 78.2588 66.6583 78.3971C66.7311 78.5354 66.8387 78.6522 66.9706 78.736C67.1025 78.8198 67.2541 78.8677 67.4102 78.8748C71.0742 79.0348 74.9862 77.1308 78.9942 74.3628C79.5275 76.0215 81.5595 76.4001 85.0902 75.4988C94.2902 73.1521 103.234 71.5175 111.922 70.5948C112.2 70.5634 112.463 70.4553 112.682 70.2828C114.586 68.8055 116.559 68.6801 118.602 69.9068C118.828 70.0458 119.1 70.0916 119.362 70.0348L125.882 68.6588C126.152 68.6068 126.399 68.4663 126.586 68.2588L127.242 67.5228C127.413 67.3308 127.623 67.2135 127.874 67.1708C139.786 65.0988 158.002 60.7388 171.082 58.4988C175.514 57.7361 179.285 56.2321 182.394 53.9868ZM66.4182 92.7148C67.3142 93.2508 67.8022 94.0908 68.6582 94.6268C68.8928 94.7708 69.0821 94.7255 69.2261 94.4908C70.3461 92.6988 69.8182 90.8508 67.9062 90.0828C65.8262 89.2508 64.7702 91.7308 66.4182 92.7148ZM60.4342 99.7948C61.7542 101.731 64.6581 101.139 65.0981 98.8348C65.1277 98.686 65.122 98.533 65.0817 98.3883C65.0414 98.2437 64.9675 98.1115 64.8662 98.0028L62.9701 95.9388C62.8001 95.7525 62.5833 95.615 62.3423 95.5406C62.1013 95.4661 61.8448 95.4574 61.5993 95.5153C61.3537 95.5732 61.1282 95.6956 60.9458 95.8699C60.7635 96.0443 60.631 96.2641 60.5622 96.5068C60.2582 97.5708 59.7622 98.8108 60.4342 99.7948Z" fill="#1C0E18"/>
<path d="M202.018 66.6667C205.586 70.0107 208.322 73.9227 210.226 78.4027C217.722 95.5147 216.474 117.355 213.322 135.403C211.589 133.872 209.485 133.168 207.01 133.291C199.762 134.235 198.45 140.611 194.834 145.451C194.861 144.885 194.965 144.344 195.146 143.827C197.858 136.115 191.554 118.843 189.082 110.731C189.036 110.583 188.952 110.452 188.837 110.35C188.723 110.249 188.584 110.181 188.434 110.155L171.194 106.987L155.618 104.339C152.786 103.261 150.01 102.368 147.29 101.659C134.261 98.2507 122.81 92.0107 112.938 82.9387C112.741 82.7574 112.509 82.6694 112.242 82.6747C111.565 82.6854 110.976 82.8668 110.474 83.2188C101.664 86.9788 93.9889 92.2161 87.4503 98.9307C79.6423 106.955 75.2023 119.139 72.3383 129.499C71.0743 134.059 70.9329 138.837 71.9143 143.835C71.927 143.878 71.9219 143.925 71.9002 143.965C71.8784 144.005 71.8418 144.034 71.7983 144.047C71.7548 144.059 71.708 144.054 71.6683 144.033C71.6285 144.011 71.599 143.974 71.5863 143.931C70.3543 140.843 67.5463 134.411 63.9703 133.539C61.5756 132.536 59.2796 132.621 57.0823 133.795C55.3009 124.093 54.5623 114.395 54.8663 104.699C55.1276 104 55.6529 103.803 56.4423 104.107C56.6876 104.203 56.8289 104.123 56.8663 103.867L57.4103 100.163C58.1729 101.725 58.2743 103.427 57.7143 105.267C57.6289 105.549 57.7329 105.709 58.0263 105.747L61.1383 106.139C61.3889 106.171 61.6343 106.152 61.8743 106.083C63.2396 105.688 64.6289 105.336 66.0423 105.027C66.2599 104.975 66.4539 104.854 66.5943 104.683C67.741 103.227 69.2503 102.536 71.1223 102.611C71.3996 102.621 71.6076 102.507 71.7463 102.267C71.9143 101.987 72.3303 101.507 72.6503 101.419C76.8369 100.288 80.8716 98.7574 84.7543 96.8267C84.804 96.8034 84.8596 96.7951 84.914 96.8031C84.9684 96.8111 85.0192 96.8349 85.0602 96.8716C85.1011 96.9083 85.1303 96.9562 85.1442 97.0094C85.1581 97.0626 85.1561 97.1187 85.1383 97.1707L84.5383 98.7547C84.4849 98.8987 84.5196 98.9254 84.6423 98.8347C85.4263 98.2667 85.9223 98.2427 86.6023 97.5467C94.2423 89.6987 102.098 84.5947 110.762 79.0827C110.846 79.0289 110.945 79.0022 111.044 79.0065C111.143 79.0108 111.237 79.0459 111.314 79.1067C116.85 83.5227 122.672 87.5227 128.778 91.1067C128.992 91.2347 129.218 91.2561 129.458 91.1707C129.554 91.1387 129.65 91.1121 129.746 91.0907C130.109 91.0054 130.157 90.8347 129.89 90.5787C129.73 90.4294 129.576 90.2801 129.426 90.1307C129.384 90.0878 129.351 90.0361 129.331 89.9793C129.31 89.9225 129.303 89.8619 129.308 89.8018C129.313 89.7416 129.332 89.6834 129.362 89.6311C129.392 89.5787 129.433 89.5336 129.482 89.4987C131.49 88.0747 133.426 88.6267 135.13 88.3627C138.336 87.8721 141.514 87.2241 144.666 86.4188C144.928 86.3494 145.152 86.2161 145.338 86.0188C146.229 85.0801 147.274 84.6347 148.474 84.6827C150.666 84.7707 151.346 84.4747 153.658 83.3867C155.154 82.6907 156.754 82.8987 158.146 82.5227C160.258 81.9547 162.314 81.6827 164.41 80.9467C167.922 79.7227 172.266 79.1707 175.09 78.4827C179.394 77.4347 181.794 76.4267 186.242 77.6907C186.503 77.7639 186.778 77.7611 187.034 77.6827C188.629 77.1867 190.226 76.7414 191.826 76.3467C193.09 76.0427 193.914 75.0187 195.554 75.3867C195.773 75.4347 195.952 75.3681 196.09 75.1867L196.322 74.8587C196.45 74.6881 196.618 74.5947 196.826 74.5787C198.25 74.4721 199.25 73.7654 199.826 72.4587C199.933 72.2294 200.098 72.1681 200.322 72.2747C200.946 72.5681 201.597 72.6881 202.274 72.6347C209.106 82.7067 212.186 94.1627 213.042 106.315C213.064 106.587 213.21 106.712 213.482 106.691C213.573 106.685 213.653 106.683 213.722 106.683C213.877 106.688 213.957 106.613 213.962 106.459C214.805 91.9094 210.824 78.6454 202.018 66.6667Z" fill="#160B14"/>
<path d="M78.9947 74.363C74.9867 77.131 71.0747 79.035 67.4107 78.875C67.2546 78.8678 67.103 78.82 66.9711 78.7362C66.8392 78.6524 66.7316 78.5355 66.6588 78.3972C66.586 78.259 66.5506 78.104 66.5562 77.9479C66.5618 77.7917 66.6082 77.6397 66.6907 77.507L69.7706 72.563C71.2693 70.4083 73.256 68.595 75.7307 67.123C75.8601 67.0445 76.0135 67.0144 76.164 67.0377C76.3145 67.0611 76.4527 67.1366 76.5547 67.251L80.3147 71.499C80.4203 71.6196 80.4904 71.7678 80.5172 71.9273C80.5441 72.0868 80.5266 72.2514 80.4667 72.403C80.2053 73.0483 79.7147 73.7017 78.9947 74.363Z" fill="#472D30"/>
<path d="M64.5783 73.179C60.9036 78.5177 58.3516 84.4297 56.9223 90.915C56.8316 90.8883 56.7569 90.835 56.6983 90.755C56.5489 90.547 56.4769 90.523 56.4823 90.683C56.4823 90.7523 56.4823 90.827 56.4823 90.907C56.4832 90.9321 56.4777 90.9569 56.4661 90.9792C56.4545 91.0016 56.4372 91.0207 56.4159 91.035C56.3945 91.0492 56.3697 91.0581 56.3436 91.0609C56.3175 91.0637 56.2909 91.0603 56.2663 91.051C53.0503 89.683 52.0823 91.531 49.7143 92.667C44.4556 95.179 39.0476 97.323 33.4903 99.099C33.1329 99.211 32.6396 99.2777 32.0103 99.299C31.7489 99.3043 31.5089 99.3763 31.2903 99.515C29.4449 100.678 28.1916 100.704 27.5303 99.595C29.3969 92.715 31.8076 86.1283 34.7623 79.835C35.0663 80.4163 35.477 80.8137 35.9943 81.027C36.2503 81.1337 36.5063 81.1337 36.7623 81.027C44.7863 77.771 51.9783 74.515 61.0583 72.243C62.0743 71.987 62.6823 72.299 63.4343 72.907C63.5783 73.0243 63.7169 73.0163 63.8503 72.883L64.0263 72.707C64.0529 72.6803 64.0849 72.6723 64.1223 72.683C64.2823 72.7363 64.4343 72.9017 64.5783 73.179Z" fill="#9CC49A"/>
<path d="M226.498 178.099C223.293 184.515 219.474 190.449 215.042 195.899C202.695 211.382 187.341 222.611 168.978 229.587C168.802 218.139 166.93 203.835 156.394 197.507C153.951 195.934 151.463 194.838 148.93 194.219C146.813 192.971 144.442 192.294 141.818 192.187C141.882 192.08 141.935 191.985 141.978 191.899C142.063 191.718 142.205 191.624 142.402 191.619C159.938 190.923 180.674 185.691 193.114 172.451C195.61 169.795 198.418 165.723 201.194 162.483L202.122 162.099C208.746 160.707 214.082 153.099 215.874 147.027C217.159 142.664 216.309 138.79 213.322 135.403C216.474 117.355 217.722 95.5151 210.226 78.4031L211.25 78.0912C211.479 78.0218 211.671 78.0751 211.826 78.2511C225.986 94.1631 230.602 114.907 231.522 135.675C231.994 146.339 229.858 157.619 227.082 167.683C226.645 169.278 226.375 170.691 226.274 171.923C226.122 173.931 225.466 175.147 224.722 176.843C224.641 177.031 224.625 177.241 224.676 177.439C224.726 177.637 224.841 177.813 225.002 177.939C225.423 178.259 225.922 178.313 226.498 178.099Z" fill="#4B855D"/>
<path d="M155.618 104.339C153.098 104.923 150.106 106.467 149.626 109.235C148.821 109.565 148.039 109.587 147.282 109.299C133.258 103.987 120.482 96.3948 110.082 85.3628C109.998 85.2716 109.945 85.1566 109.931 85.0343C109.916 84.9121 109.941 84.789 110.002 84.6828C110.301 84.1601 110.458 83.6721 110.474 83.2188C110.975 82.8668 111.565 82.6855 112.242 82.6748C112.509 82.6695 112.741 82.7575 112.938 82.9388C122.81 92.0108 134.261 98.2508 147.29 101.659C150.01 102.368 152.786 103.261 155.618 104.339Z" fill="#EF7758"/>
<path d="M110.474 83.2188C110.458 83.6721 110.301 84.1601 110.002 84.6827C109.941 84.7889 109.917 84.912 109.931 85.0343C109.945 85.1565 109.998 85.2716 110.082 85.3627C120.482 96.3947 133.258 103.987 147.282 109.299C148.039 109.587 148.821 109.565 149.626 109.235L150.738 109.675C150.898 110.107 150.893 110.579 150.722 111.091C150.637 111.347 150.658 111.595 150.786 111.835C153.066 116.003 154.882 120.483 158.482 123.811C157.495 124.307 156.741 124.232 156.218 123.587C156.16 123.513 156.117 123.43 156.093 123.34C156.068 123.251 156.062 123.158 156.074 123.067L156.114 122.779C156.157 122.453 156.023 122.341 155.714 122.443L154.298 122.907C153.973 123.013 153.831 122.896 153.874 122.555C153.949 122.048 153.767 121.699 153.33 121.507C153.031 121.373 152.882 121.469 152.882 121.795V122.139C152.884 122.304 152.832 122.466 152.734 122.6C152.636 122.733 152.498 122.832 152.339 122.88C152.181 122.929 152.011 122.925 151.855 122.869C151.699 122.814 151.566 122.709 151.474 122.571C149.639 119.84 147.055 118.219 143.722 117.707C143.466 117.669 143.383 117.773 143.474 118.019L143.706 118.635C143.829 118.976 143.733 119.056 143.418 118.875C141.874 117.979 139.418 118.323 137.714 118.067C134.538 117.587 131.722 117.771 128.722 116.035C125.73 114.307 123.186 115.523 120.034 115.499C119.799 115.499 119.615 115.595 119.482 115.787L118.978 116.523C118.797 116.779 118.551 116.896 118.242 116.875C116.274 116.747 114.471 117.243 112.834 118.363C112.583 118.533 112.311 118.589 112.018 118.531C110.295 118.168 108.898 118.659 107.826 120.003C107.655 120.221 107.575 120.467 107.586 120.739C107.65 122.381 106.81 123.517 105.066 124.147C94.6502 122.243 87.9941 126.491 85.0981 136.891C84.1915 140.133 84.1968 142.824 85.1141 144.963L87.2661 146.667L87.1381 148.523C87.1284 148.653 87.0838 148.779 87.0092 148.886C86.9346 148.993 86.8326 149.078 86.7141 149.131C84.6875 150.021 82.7781 151.112 80.9861 152.403C79.6021 153.403 76.5221 157.475 79.7701 157.891C80.0421 157.923 80.2715 158.04 80.4581 158.243C82.8261 160.733 85.6661 162.515 88.9781 163.587C89.2359 163.669 89.4571 163.842 89.6021 164.075C92.0661 168.115 96.3061 166.939 100.146 167.243C100.42 167.264 100.688 167.346 100.93 167.483C101.245 167.664 101.517 167.656 101.746 167.459C101.917 167.309 102.117 167.24 102.346 167.251C104.986 167.379 108.13 166.771 110.634 167.523C111.546 167.795 112.485 167.96 113.45 168.019C114.677 171.821 116.871 175.251 120.034 178.307C125.991 182.307 132.453 182.413 139.418 178.627C141.397 177.352 143.183 175.616 144.778 173.419C145.13 173.968 145.29 174.651 145.258 175.467C145.253 175.597 145.22 175.725 145.16 175.841C145.101 175.957 145.017 176.059 144.914 176.139C143.922 176.939 142.933 177.757 141.946 178.595C141.919 178.618 141.901 178.649 141.897 178.683C141.892 178.718 141.901 178.753 141.922 178.782C141.942 178.812 141.973 178.833 142.008 178.843C142.044 178.852 142.081 178.849 142.114 178.835C145.69 176.883 146.61 172.115 151.306 173.027C151.582 173.084 151.869 173.056 152.13 172.947C157.069 170.877 162.175 169.397 167.45 168.507C167.578 168.485 167.653 168.539 167.674 168.667L167.714 168.979C167.721 169.021 167.74 169.061 167.768 169.094C167.796 169.127 167.833 169.152 167.874 169.166C167.915 169.18 167.959 169.183 168.001 169.174C168.043 169.165 168.082 169.144 168.114 169.115C169.943 167.28 171.327 166.128 172.266 165.659C176.095 163.733 176.389 162.605 173.146 162.275C176.335 162.445 179.511 162.235 182.674 161.643C183.274 162.259 183.258 162.987 182.722 163.683C175.466 173.307 165.866 181.707 153.738 183.715C153.471 183.763 153.322 183.92 153.29 184.187C153.237 184.581 153.303 184.995 153.49 185.427L138.642 187.715C138.274 187.603 137.949 187.568 137.666 187.611L126.506 187.939C107.234 185.859 84.5781 181.707 75.5301 161.843C75.4075 161.576 75.2075 161.485 74.9301 161.571C71.8315 162.515 68.6661 162.677 65.4341 162.059C65.0555 161.808 64.6741 161.675 64.2901 161.659C63.4821 156.059 60.6101 154.547 58.2581 150.483C54.2581 143.587 57.2101 137.203 63.9701 133.539C67.5461 134.411 70.3541 140.843 71.5861 143.931C71.5989 143.974 71.6284 144.011 71.6681 144.033C71.7079 144.054 71.7546 144.059 71.7981 144.047C71.8416 144.034 71.8783 144.005 71.9 143.965C71.9218 143.925 71.9269 143.878 71.9141 143.835C70.9328 138.837 71.0741 134.059 72.3381 129.499C75.2021 119.139 79.6421 106.955 87.4501 98.9307C93.9888 92.2161 101.663 86.9787 110.474 83.2188ZM108.418 109.867C110.093 110.032 111.791 110.099 113.514 110.067C113.759 110.061 113.973 109.979 114.154 109.819C117.058 107.275 112.882 104.699 110.458 104.147C100.994 102.003 91.9221 106.371 86.1861 113.827C85.7541 114.387 85.5728 114.864 85.6422 115.259C85.6629 115.381 85.7148 115.497 85.7928 115.594C85.8709 115.691 85.9725 115.766 86.0884 115.814C86.2042 115.861 86.3305 115.878 86.4553 115.863C86.5801 115.849 86.6994 115.803 86.8021 115.731C93.3568 111.069 100.562 109.115 108.418 109.867ZM61.5461 142.971C59.8581 149.611 66.7941 152.499 72.2261 152.395C72.2795 152.395 72.2901 152.373 72.2581 152.331C70.9301 150.283 69.5941 147.547 68.2501 144.123C67.3061 141.731 62.7141 138.355 61.5461 142.971Z" fill="#FBB273"/>
<path d="M66.4181 92.7147C64.7701 91.7307 65.8261 89.2507 67.9061 90.0827C69.8181 90.8507 70.3461 92.6987 69.2261 94.4907C69.0821 94.7254 68.8928 94.7707 68.6581 94.6267C67.8021 94.0907 67.3141 93.2507 66.4181 92.7147Z" fill="#2D1920"/>
<path d="M56.9222 90.9148L54.8662 104.699C54.5622 114.395 55.3009 124.093 57.0822 133.795C55.3969 135.021 53.9089 136.776 52.6182 139.059C51.9222 139.203 51.6342 140.539 50.8502 140.075C50.6049 139.931 50.4822 140 50.4822 140.283V140.651C50.4822 140.843 50.3889 140.917 50.2022 140.875C49.4822 140.693 48.9622 140.92 48.6422 141.555C48.5142 141.805 48.3249 141.997 48.0742 142.131C44.4102 144.136 40.7915 146.224 37.2182 148.395C34.2902 150.171 32.8262 149.427 29.9462 152.307C29.0022 153.245 27.9809 153.579 26.8822 153.307C22.8342 135.211 23.0502 117.307 27.5302 99.5948C28.1915 100.704 29.4449 100.677 31.2902 99.5148C31.5089 99.3761 31.7489 99.3041 32.0102 99.2988C32.6395 99.2775 33.1329 99.2108 33.4902 99.0988C39.0475 97.3228 44.4555 95.1788 49.7142 92.6668C52.0822 91.5308 53.0502 89.6828 56.2662 91.0508C56.2908 91.0601 56.3174 91.0635 56.3435 91.0607C56.3696 91.0579 56.3944 91.049 56.4158 91.0347C56.4372 91.0205 56.4544 91.0014 56.466 90.979C56.4776 90.9567 56.4832 90.9319 56.4822 90.9068C56.4822 90.8268 56.4822 90.7521 56.4822 90.6828C56.4769 90.5228 56.5489 90.5468 56.6982 90.7548C56.7569 90.8348 56.8315 90.8881 56.9222 90.9148Z" fill="#83B890"/>
<path d="M65.0983 98.8347C64.6583 101.139 61.7543 101.731 60.4343 99.7947C59.7623 98.8107 60.2583 97.5706 60.5623 96.5066C60.6312 96.264 60.7636 96.0441 60.9459 95.8698C61.1283 95.6955 61.3539 95.573 61.5994 95.5151C61.8449 95.4572 62.1014 95.4659 62.3425 95.5404C62.5835 95.6148 62.8002 95.7523 62.9703 95.9387L64.8663 98.0026C64.9676 98.1114 65.0415 98.2435 65.0818 98.3882C65.1221 98.5328 65.1278 98.6858 65.0983 98.8347Z" fill="#2D1920"/>
<path d="M108.418 109.867C100.562 109.115 93.357 111.07 86.8023 115.731C86.6996 115.803 86.5803 115.849 86.4555 115.863C86.3307 115.878 86.2044 115.861 86.0886 115.814C85.9727 115.766 85.871 115.691 85.793 115.594C85.7149 115.497 85.6631 115.382 85.6423 115.259C85.573 114.864 85.7543 114.387 86.1863 113.827C91.9223 106.371 100.994 102.003 110.458 104.147C112.882 104.699 117.058 107.275 114.154 109.819C113.973 109.979 113.76 110.062 113.514 110.067C111.792 110.099 110.093 110.032 108.418 109.867Z" fill="#60080C"/>
<path d="M155.618 104.339L171.194 106.987C173.994 109.024 176.471 111.768 178.626 115.219C178.723 115.38 178.766 115.567 178.749 115.754C178.731 115.941 178.654 116.117 178.528 116.256C178.402 116.395 178.235 116.49 178.05 116.527C177.866 116.564 177.675 116.54 177.506 116.459L174.578 115.011C166.122 109.347 159.834 109.707 150.738 109.675L149.626 109.235C150.106 106.467 153.098 104.923 155.618 104.339Z" fill="#490F0F"/>
<path d="M171.194 106.987L188.434 110.155C188.584 110.181 188.723 110.249 188.837 110.35C188.952 110.452 189.037 110.584 189.082 110.731C191.554 118.843 197.858 136.115 195.146 143.827C194.965 144.344 194.861 144.885 194.834 145.451L192.066 145.219C191.773 145.197 191.621 145.037 191.61 144.739C191.378 138.539 189.93 126.987 183.042 124.379C179.933 123.2 176.813 122.027 173.682 120.859C170.402 119.643 172.834 116.531 174.578 115.011L177.506 116.459C177.676 116.539 177.867 116.563 178.051 116.527C178.235 116.49 178.402 116.395 178.528 116.256C178.654 116.117 178.731 115.94 178.749 115.754C178.767 115.567 178.724 115.379 178.626 115.219C176.472 111.768 173.994 109.024 171.194 106.987Z" fill="#F98759"/>
<path d="M150.738 109.675C159.834 109.707 166.122 109.347 174.578 115.011C172.834 116.531 170.402 119.643 173.682 120.859C176.813 122.027 179.933 123.2 183.042 124.379C189.93 126.987 191.378 138.539 191.61 144.739C191.621 145.038 191.773 145.198 192.066 145.219L194.834 145.451C198.45 140.611 199.762 134.235 207.01 133.291C211.826 136.326 213.711 140.611 212.666 146.147C211.322 153.283 208.49 154.763 203.266 158.979C203.063 159.139 202.927 159.342 202.858 159.587L202.122 162.099L201.194 162.483C198.021 163 194.975 162.534 192.058 161.083C191.966 161.036 191.858 161.027 191.758 161.058C191.658 161.089 191.574 161.159 191.522 161.251C183.018 176.563 170.05 182.147 153.49 185.427C153.303 184.995 153.237 184.582 153.29 184.187C153.322 183.92 153.471 183.763 153.738 183.715C165.866 181.707 175.466 173.307 182.722 163.683C183.258 162.987 183.274 162.259 182.674 161.643L187.274 157.331C187.436 157.18 187.532 156.973 187.544 156.752C187.556 156.531 187.482 156.315 187.338 156.147C184.146 152.435 179.09 150.883 174.37 150.147C174.029 148.782 174.247 147.88 175.026 147.443C178.365 147.075 180.234 146.2 180.634 144.819C181.253 144.44 181.559 143.915 181.554 143.243C181.45 132.747 175.682 123.547 164.226 123.587C162.679 122.814 160.765 122.888 158.482 123.811C154.882 120.483 153.066 116.003 150.786 111.835C150.658 111.595 150.637 111.347 150.722 111.091C150.893 110.579 150.898 110.107 150.738 109.675ZM206.122 141.051C200.682 138.275 197.562 149.555 196.442 152.811C196.367 153.019 196.439 153.107 196.658 153.075C201.658 152.275 207.466 150.131 207.882 144.507C207.994 142.971 207.482 141.747 206.122 141.051Z" fill="#F99B63"/>
<path d="M158.482 123.811C160.765 122.888 162.679 122.813 164.226 123.587C158.199 123.976 154.498 126.669 153.122 131.667C151.618 135.731 151.09 143.139 155.138 146.035C160.338 149.755 168.746 147.947 175.026 147.443C174.247 147.88 174.029 148.781 174.37 150.147C170.522 149.763 161.666 151.323 160.626 156.243C160.57 156.521 160.618 156.809 160.762 157.051C163.066 160.947 168.738 162.315 173.146 162.275C176.389 162.605 176.095 163.733 172.266 165.659C171.327 166.128 169.943 167.28 168.114 169.115C168.082 169.144 168.043 169.165 168.001 169.174C167.959 169.183 167.915 169.18 167.874 169.166C167.833 169.152 167.796 169.127 167.768 169.094C167.74 169.061 167.721 169.022 167.714 168.979L167.674 168.667C167.653 168.539 167.578 168.485 167.45 168.507C162.175 169.397 157.069 170.877 152.13 172.947C151.869 173.056 151.582 173.084 151.306 173.027C146.61 172.115 145.69 176.883 142.114 178.835C142.081 178.85 142.044 178.852 142.008 178.843C141.973 178.833 141.942 178.812 141.922 178.782C141.901 178.753 141.892 178.718 141.897 178.684C141.901 178.649 141.919 178.618 141.946 178.595C142.933 177.757 143.922 176.939 144.914 176.139C145.017 176.059 145.101 175.957 145.16 175.841C145.22 175.725 145.253 175.597 145.258 175.467C145.29 174.651 145.13 173.968 144.778 173.419L149.066 163.851C149.205 163.531 149.125 163.456 148.826 163.627C136.954 170.163 121.778 168.843 113.61 157.531C113.513 157.398 113.378 157.299 113.222 157.245C113.067 157.192 112.899 157.187 112.741 157.231C112.583 157.276 112.442 157.367 112.337 157.493C112.232 157.62 112.168 157.775 112.154 157.939C111.893 161.357 112.325 164.717 113.45 168.019C112.485 167.96 111.546 167.795 110.634 167.523C108.13 166.771 104.986 167.379 102.346 167.251C102.117 167.24 101.917 167.309 101.746 167.459C101.517 167.656 101.245 167.664 100.93 167.483C100.688 167.346 100.42 167.264 100.146 167.243C96.3061 166.939 92.0661 168.115 89.6021 164.075C89.4571 163.842 89.2359 163.669 88.9781 163.587C85.6661 162.515 82.8261 160.733 80.4581 158.243C80.2715 158.04 80.0421 157.923 79.7701 157.891C76.5221 157.475 79.6021 153.403 80.9861 152.403C82.7781 151.112 84.6875 150.021 86.7141 149.131C86.8326 149.078 86.9346 148.993 87.0092 148.886C87.0838 148.779 87.1284 148.654 87.1381 148.523L87.2662 146.667C92.0288 147.211 96.8101 147.627 101.61 147.915C111.986 148.539 115.378 139.827 111.778 131.299C110.919 128.184 108.682 125.8 105.066 124.147C106.81 123.517 107.65 122.381 107.586 120.739C107.575 120.467 107.655 120.221 107.826 120.003C108.898 118.659 110.295 118.168 112.018 118.531C112.311 118.589 112.583 118.533 112.834 118.363C114.471 117.243 116.274 116.747 118.242 116.875C118.551 116.896 118.797 116.779 118.978 116.523L119.482 115.787C119.615 115.595 119.799 115.499 120.034 115.499C123.186 115.523 125.73 114.307 128.722 116.035C131.722 117.771 134.538 117.587 137.714 118.067C139.418 118.323 141.874 117.979 143.418 118.875C143.733 119.056 143.829 118.976 143.706 118.635L143.474 118.019C143.383 117.773 143.466 117.669 143.722 117.707C147.055 118.219 149.639 119.84 151.474 122.571C151.566 122.709 151.699 122.814 151.855 122.869C152.011 122.925 152.181 122.929 152.339 122.881C152.498 122.832 152.636 122.733 152.734 122.6C152.832 122.466 152.884 122.304 152.882 122.139V121.795C152.882 121.469 153.031 121.373 153.33 121.507C153.767 121.699 153.949 122.048 153.874 122.555C153.831 122.896 153.973 123.013 154.298 122.907L155.714 122.443C156.023 122.341 156.157 122.453 156.114 122.779L156.074 123.067C156.062 123.158 156.068 123.251 156.093 123.34C156.117 123.43 156.16 123.513 156.218 123.587C156.741 124.232 157.495 124.307 158.482 123.811ZM128.066 151.899C127.047 150.693 125.797 150.237 124.314 150.531C124.194 150.555 124.082 150.612 123.992 150.695C123.902 150.779 123.836 150.885 123.802 151.003C123.242 153.045 123.93 154.099 125.866 154.163C124.65 154.819 124.317 155.613 124.866 156.547C125.005 156.776 125.202 156.923 125.458 156.987C128.215 157.669 130.367 156.763 131.914 154.267C134.514 150.091 128.722 145.787 126.458 148.843C126.277 149.083 126.325 149.261 126.602 149.379C127.701 149.859 128.189 150.699 128.066 151.899ZM81.9141 157.779C86.5621 163.147 95.1621 162.595 100.986 159.939C103.906 158.603 106.418 154.723 103.034 152.707C98.9301 150.251 92.7621 148.827 88.1781 150.571C86.2981 151.283 79.3541 154.819 81.9141 157.779Z" fill="#FDBC79"/>
<path d="M105.066 124.147C108.682 125.8 110.92 128.184 111.778 131.299C110.445 130.435 109.21 129.555 108.074 128.659C100.258 122.499 89.8744 127.347 86.9224 136.115C86.0984 138.579 85.8264 141.923 85.1144 144.963C84.1971 142.824 84.1917 140.134 85.0984 136.891C87.9944 126.491 94.6504 122.243 105.066 124.147Z" fill="#070608"/>
<path d="M164.226 123.587C175.682 123.547 181.45 132.747 181.554 143.243C181.559 143.915 181.253 144.44 180.634 144.819C179.258 137.811 178.226 131.811 172.514 128.267C165.85 124.131 158.21 125.731 153.122 131.667C154.498 126.669 158.199 123.976 164.226 123.587Z" fill="#160B14"/>
<path d="M111.778 131.299C115.378 139.827 111.986 148.539 101.61 147.915C96.8103 147.627 92.0289 147.211 87.2663 146.667L85.1143 144.963C85.8263 141.923 86.0982 138.579 86.9222 136.115C89.8742 127.347 100.258 122.499 108.074 128.659C109.21 129.555 110.445 130.435 111.778 131.299ZM104.646 145.231C105.445 145.185 106.226 144.951 106.943 144.543C107.66 144.135 108.3 143.56 108.826 142.852C109.352 142.143 109.754 141.316 110.009 140.415C110.264 139.515 110.367 138.56 110.312 137.604C110.257 136.649 110.045 135.712 109.688 134.846C109.332 133.981 108.837 133.205 108.233 132.562C107.629 131.919 106.927 131.422 106.168 131.099C105.408 130.776 104.606 130.633 103.807 130.679C103.008 130.725 102.227 130.959 101.51 131.367C100.792 131.775 100.152 132.35 99.6262 133.058C99.1 133.766 98.698 134.594 98.4431 135.495C98.1881 136.395 98.0852 137.35 98.1403 138.306C98.1954 139.261 98.4074 140.198 98.7641 141.064C99.1209 141.929 99.6154 142.705 100.22 143.348C100.824 143.991 101.525 144.488 102.285 144.811C103.044 145.134 103.847 145.277 104.646 145.231Z" fill="#EBE1DA"/>
<path d="M180.634 144.819C180.234 146.2 178.365 147.075 175.026 147.443C168.746 147.947 160.338 149.755 155.138 146.035C151.09 143.139 151.618 135.731 153.122 131.667C158.21 125.731 165.85 124.131 172.514 128.267C178.226 131.811 179.258 137.811 180.634 144.819ZM159.944 145.627C160.763 145.68 161.586 145.536 162.367 145.204C163.148 144.872 163.872 144.358 164.496 143.691C165.121 143.024 165.634 142.218 166.007 141.318C166.38 140.418 166.605 139.442 166.669 138.446C166.799 136.435 166.267 134.463 165.19 132.965C164.113 131.467 162.578 130.566 160.925 130.459C160.106 130.406 159.283 130.549 158.501 130.882C157.72 131.214 156.997 131.728 156.372 132.395C155.748 133.062 155.235 133.868 154.862 134.768C154.489 135.668 154.264 136.644 154.199 137.64C154.069 139.651 154.601 141.623 155.679 143.121C156.756 144.618 158.29 145.52 159.944 145.627Z" fill="#EBE1DA"/>
<path d="M159.944 145.627C158.29 145.52 156.756 144.618 155.679 143.121C154.601 141.623 154.069 139.651 154.199 137.64C154.264 136.644 154.489 135.668 154.862 134.768C155.235 133.868 155.748 133.062 156.372 132.395C156.997 131.728 157.72 131.214 158.502 130.882C159.283 130.55 160.106 130.406 160.925 130.459C162.578 130.566 164.113 131.467 165.19 132.965C166.267 134.463 166.799 136.435 166.669 138.446C166.605 139.442 166.38 140.418 166.007 141.318C165.634 142.218 165.121 143.024 164.496 143.691C163.872 144.358 163.148 144.872 162.367 145.204C161.586 145.536 160.763 145.68 159.944 145.627ZM159.465 137.43C159.711 137.415 159.951 137.341 160.172 137.213C160.392 137.085 160.589 136.906 160.75 136.685C160.911 136.464 161.033 136.207 161.11 135.926C161.187 135.646 161.217 135.35 161.199 135.053C161.161 134.454 160.927 133.891 160.549 133.49C160.17 133.088 159.678 132.88 159.18 132.911C158.934 132.927 158.694 133.001 158.473 133.129C158.253 133.256 158.056 133.436 157.895 133.657C157.734 133.877 157.612 134.135 157.535 134.415C157.457 134.695 157.427 134.992 157.446 135.289C157.484 135.888 157.718 136.451 158.096 136.852C158.475 137.254 158.967 137.462 159.465 137.43Z" fill="#070608"/>
<path d="M104.646 145.231C103.847 145.277 103.044 145.134 102.285 144.811C101.525 144.488 100.824 143.991 100.22 143.348C99.6155 142.705 99.121 141.928 98.7642 141.063C98.4075 140.198 98.1955 139.261 98.1404 138.306C98.0853 137.35 98.1882 136.395 98.4432 135.495C98.6981 134.594 99.1001 133.766 99.6263 133.058C100.152 132.35 100.792 131.775 101.51 131.367C102.227 130.959 103.008 130.725 103.807 130.679C104.606 130.633 105.408 130.775 106.168 131.098C106.927 131.421 107.629 131.919 108.233 132.562C108.837 133.205 109.332 133.981 109.688 134.846C110.045 135.711 110.257 136.648 110.312 137.604C110.367 138.559 110.264 139.515 110.01 140.415C109.755 141.315 109.353 142.143 108.826 142.852C108.3 143.56 107.66 144.134 106.943 144.543C106.226 144.951 105.445 145.185 104.646 145.231ZM104.992 137.11C105.404 136.973 105.73 136.629 105.896 136.155C106.062 135.681 106.056 135.115 105.879 134.581C105.791 134.317 105.663 134.069 105.504 133.851C105.345 133.633 105.156 133.449 104.949 133.31C104.743 133.172 104.522 133.081 104.3 133.042C104.077 133.004 103.857 133.019 103.653 133.087C103.24 133.224 102.915 133.568 102.749 134.042C102.582 134.517 102.589 135.083 102.766 135.616C102.854 135.881 102.981 136.129 103.141 136.347C103.3 136.565 103.489 136.749 103.695 136.887C103.902 137.026 104.123 137.117 104.345 137.155C104.568 137.194 104.787 137.178 104.992 137.11Z" fill="#070608"/>
<path d="M63.9699 133.539C57.2099 137.203 54.258 143.587 58.258 150.483C60.61 154.547 63.482 156.059 64.29 161.659C55.41 156.305 51.5193 148.771 52.618 139.059C53.9086 136.777 55.3966 135.022 57.082 133.795C59.2793 132.622 61.5753 132.537 63.9699 133.539Z" fill="#FCE8A3"/>
<path d="M157.446 135.289C157.524 136.537 158.428 137.496 159.464 137.431C160.5 137.365 161.277 136.301 161.198 135.053C161.12 133.805 160.216 132.846 159.18 132.912C158.144 132.977 157.367 134.041 157.446 135.289Z" fill="#EBE1DA"/>
<path d="M102.766 135.617C103.136 136.728 104.132 137.396 104.992 137.11C105.851 136.825 106.248 135.692 105.879 134.581C105.509 133.47 104.513 132.801 103.653 133.087C102.794 133.373 102.397 134.506 102.766 135.617Z" fill="#EBE1DA"/>
<path d="M207.01 133.291C209.485 133.168 211.589 133.872 213.322 135.403C216.309 138.79 217.159 142.664 215.874 147.027C214.082 153.099 208.746 160.707 202.122 162.099L202.858 159.587C202.927 159.342 203.063 159.139 203.266 158.979C208.49 154.763 211.322 153.283 212.666 146.147C213.711 140.611 211.826 136.326 207.01 133.291Z" fill="#FDBD8E"/>
<path d="M52.6178 139.059C51.5192 148.771 55.4098 156.304 64.2898 161.659C64.6738 161.675 65.0552 161.808 65.4338 162.059L71.5138 170.443C71.4738 172.387 70.2258 173.323 69.7458 174.859C69.0178 177.219 68.6339 179.195 66.7938 181.091C65.4392 182.483 64.2418 184.016 63.2018 185.691C63.0566 185.924 62.8398 186.102 62.5858 186.195C61.6898 186.515 61.0312 187.118 60.6098 188.003C60.4765 188.28 60.2658 188.47 59.9778 188.571C58.2818 189.174 57.2658 190.336 56.9298 192.059C56.8882 192.274 56.8024 192.478 56.6779 192.659C56.5534 192.839 56.3928 192.991 56.2063 193.106C56.0199 193.221 55.8116 193.296 55.5946 193.327C55.3777 193.357 55.1567 193.342 54.9458 193.283C51.8205 192.403 48.5858 192.326 45.2418 193.051C36.3085 180.998 30.1885 167.75 26.8818 153.307C27.9805 153.579 29.0018 153.246 29.9458 152.307C32.8258 149.427 34.2898 150.171 37.2178 148.395C40.7912 146.224 44.4098 144.136 48.0738 142.131C48.3245 141.998 48.5138 141.806 48.6418 141.555C48.9618 140.92 49.4818 140.694 50.2018 140.875C50.3885 140.918 50.4818 140.843 50.4818 140.651V140.283C50.4818 140 50.6045 139.931 50.8498 140.075C51.6338 140.539 51.9218 139.203 52.6178 139.059Z" fill="#639F79"/>
<path d="M72.2263 152.395C66.7943 152.499 59.8583 149.611 61.5463 142.971C62.7143 138.355 67.3063 141.731 68.2503 144.123C69.5943 147.547 70.9303 150.283 72.2583 152.331C72.2903 152.374 72.2796 152.395 72.2263 152.395Z" fill="#CA6246"/>
<path d="M206.122 141.051C207.482 141.747 207.994 142.971 207.882 144.507C207.466 150.131 201.658 152.275 196.658 153.075C196.439 153.107 196.367 153.019 196.442 152.811C197.562 149.555 200.682 138.275 206.122 141.051Z" fill="#CA6246"/>
<path d="M125.866 154.163C127.818 153.688 128.552 152.934 128.066 151.899C128.189 150.699 127.701 149.859 126.602 149.379C126.325 149.262 126.277 149.083 126.458 148.843C128.722 145.787 134.514 150.091 131.914 154.267C130.368 156.763 128.216 157.67 125.458 156.987C125.202 156.923 125.005 156.776 124.866 156.547C124.317 155.614 124.65 154.819 125.866 154.163Z" fill="#FB9E50"/>
<path d="M100.986 159.939C95.1623 162.595 86.5623 163.147 81.9143 157.779C79.3543 154.819 86.2983 151.283 88.1783 150.571C92.7623 148.827 98.9303 150.251 103.034 152.707C106.418 154.723 103.906 158.603 100.986 159.939Z" fill="#F98759"/>
<path d="M174.37 150.147C179.09 150.883 184.146 152.435 187.338 156.147C187.482 156.314 187.556 156.531 187.544 156.752C187.532 156.972 187.435 157.18 187.274 157.331L182.674 161.643C179.511 162.235 176.335 162.446 173.146 162.275C168.738 162.315 163.066 160.947 160.762 157.051C160.618 156.809 160.57 156.521 160.626 156.243C161.666 151.323 170.522 149.763 174.37 150.147Z" fill="#F98759"/>
<path d="M128.066 151.899C128.552 152.933 127.818 153.688 125.866 154.163C123.93 154.099 123.242 153.045 123.802 151.003C123.836 150.885 123.902 150.778 123.992 150.695C124.083 150.612 124.194 150.555 124.314 150.531C125.797 150.237 127.048 150.693 128.066 151.899Z" fill="#FCECDE"/>
<path d="M144.778 173.419C143.184 175.616 141.397 177.352 139.418 178.627C140.352 176.536 138.976 174.68 135.29 173.059C133.706 172.36 130.92 172.19 126.93 172.547C123.832 172.819 121.533 174.739 120.034 178.307C116.872 175.251 114.677 171.822 113.45 168.019C112.325 164.718 111.893 161.358 112.154 157.939C112.169 157.776 112.233 157.62 112.337 157.494C112.442 157.367 112.583 157.276 112.741 157.232C112.899 157.187 113.067 157.192 113.223 157.246C113.378 157.299 113.513 157.399 113.61 157.531C121.778 168.843 136.954 170.163 148.826 163.627C149.125 163.456 149.205 163.531 149.066 163.851L144.778 173.419Z" fill="#60080C"/>
<path d="M201.194 162.483C198.418 165.723 195.61 169.795 193.114 172.451C180.674 185.691 159.938 190.923 142.402 191.619C142.205 191.624 142.063 191.718 141.978 191.899C141.935 191.984 141.882 192.08 141.818 192.187L139.41 192.091C139.117 192.075 138.959 191.923 138.938 191.635L138.642 187.715L153.49 185.427C170.05 182.147 183.018 176.563 191.522 161.251C191.574 161.159 191.658 161.089 191.758 161.058C191.858 161.027 191.966 161.036 192.058 161.083C194.975 162.534 198.021 163 201.194 162.483Z" fill="#070608"/>
<path d="M126.507 187.939C126.779 189.272 126.789 190.48 126.539 191.563C123.989 191.749 122.171 191.787 121.083 191.675C106.627 190.147 92.6986 186.827 80.3546 178.867C77.0586 176.456 74.1119 173.648 71.5146 170.443L65.4346 162.059C68.6666 162.677 71.8319 162.515 74.9306 161.571C75.2079 161.485 75.4079 161.576 75.5306 161.843C84.5786 181.707 107.235 185.859 126.507 187.939Z" fill="#070608"/>
<path d="M71.5142 170.443C74.1115 173.648 77.0582 176.456 80.3542 178.867L78.7782 180.099C78.5915 180.248 78.5648 180.422 78.6982 180.619L101.114 212.859L99.3222 224.331C99.2912 224.532 99.3339 224.736 99.4422 224.907C99.5382 225.046 99.5835 225.155 99.5782 225.235L98.8022 230.955C77.6022 224.227 58.4902 210.859 45.2422 193.051C48.5862 192.326 51.8208 192.403 54.9462 193.283C55.1571 193.342 55.378 193.357 55.595 193.327C55.8119 193.296 56.0202 193.221 56.2067 193.106C56.3932 192.991 56.5537 192.839 56.6782 192.658C56.8028 192.478 56.8886 192.274 56.9302 192.059C57.2662 190.336 58.2822 189.174 59.9782 188.571C60.2662 188.47 60.4768 188.28 60.6102 188.003C61.0315 187.118 61.6902 186.515 62.5862 186.195C62.8401 186.102 63.0569 185.924 63.2022 185.691C64.2422 184.016 65.4395 182.483 66.7942 181.091C68.6342 179.195 69.0182 177.219 69.7462 174.859C70.2262 173.323 71.4742 172.387 71.5142 170.443Z" fill="#53926C"/>
<path d="M139.418 178.627C132.453 182.414 125.992 182.307 120.034 178.307C121.533 174.739 123.832 172.819 126.93 172.547C130.92 172.19 133.706 172.36 135.29 173.059C138.976 174.68 140.351 176.536 139.418 178.627Z" fill="#DD4524"/>
<path d="M80.3541 178.867C92.6981 186.827 106.626 190.147 121.082 191.675C122.17 191.787 123.989 191.749 126.538 191.563C126.666 191.755 126.703 191.904 126.65 192.011L124.53 192.963C121.546 193.267 117.714 192.339 117.042 196.603C117.351 195.941 117.021 195.571 116.05 195.491L116.098 195.075C116.135 194.733 115.986 194.595 115.65 194.659C106.674 196.419 103.81 204.363 101.114 212.859L78.6981 180.619C78.5647 180.421 78.5914 180.248 78.7781 180.099L80.3541 178.867Z" fill="#4B855D"/>
<path d="M137.666 187.611C137.234 188.843 138.634 190.395 137.49 191.723C137.314 191.926 137.09 192.032 136.818 192.043L128.186 192.395C128.016 192.406 127.856 192.363 127.706 192.267C127.45 192.107 127.098 192.022 126.65 192.011C126.704 191.904 126.666 191.755 126.538 191.563C126.789 190.48 126.778 189.272 126.506 187.939L137.666 187.611Z" fill="#FB8A30"/>
<path d="M138.643 187.715L138.939 191.635C138.96 191.923 139.117 192.075 139.41 192.091L141.818 192.187C144.442 192.293 146.813 192.971 148.931 194.219C148.824 194.603 148.877 194.864 149.091 195.003L148.339 197.635C147.229 198.835 146.245 200.083 145.387 201.379C144.883 202.131 143.251 201.659 142.579 201.675C139.187 201.739 135.824 202.075 132.491 202.683C127.371 203.619 124.371 196.899 124.531 192.963L126.651 192.011C127.099 192.021 127.451 192.107 127.707 192.267C127.856 192.363 128.016 192.405 128.187 192.395L136.818 192.043C137.09 192.032 137.315 191.925 137.491 191.723C138.635 190.395 137.234 188.843 137.666 187.611C137.949 187.568 138.275 187.603 138.643 187.715Z" fill="#F99B63"/>
<path d="M124.53 192.963C124.37 196.899 127.37 203.619 132.49 202.683C135.823 202.075 139.186 201.739 142.578 201.675C143.25 201.659 144.882 202.131 145.386 201.379C146.245 200.083 147.229 198.835 148.338 197.635C144.898 204.547 139.386 209.243 131.298 209.307C123.938 208.011 119.186 203.776 117.042 196.603C117.714 192.339 121.546 193.267 124.53 192.963Z" fill="#FCB468"/>
<path d="M148.93 194.219C151.464 194.837 153.952 195.933 156.394 197.507C156.272 197.384 156.125 197.483 155.954 197.803C153.896 196.405 151.608 195.472 149.09 195.003C148.877 194.864 148.824 194.603 148.93 194.219Z" fill="#54B685"/>
<path d="M116.05 195.491C111.738 194.747 105.178 208.971 104.034 211.779C102.89 214.571 98.9224 220.827 100.666 224.371C100.693 224.531 100.664 224.718 100.578 224.931C100.533 225.047 100.45 225.145 100.343 225.209C100.236 225.273 100.11 225.299 99.9864 225.283L99.5784 225.235C99.5837 225.155 99.5384 225.046 99.4424 224.907C99.334 224.737 99.2914 224.532 99.3223 224.331L101.114 212.859C103.81 204.363 106.674 196.419 115.65 194.659C115.986 194.595 116.136 194.734 116.098 195.075L116.05 195.491Z" fill="#6DC199"/>
<path d="M149.09 195.003C151.608 195.473 153.896 196.406 155.954 197.803C158.477 199.163 160.394 200.99 161.706 203.283L159.746 202.475C159.626 202.427 159.494 202.414 159.367 202.436C159.24 202.459 159.122 202.517 159.026 202.603C156.418 204.923 151.138 204.715 146.226 205.179C146.111 205.189 145.995 205.169 145.888 205.122C145.782 205.074 145.689 205 145.618 204.907C145.304 204.486 144.88 204.36 144.346 204.531C144.122 204.6 143.93 204.718 143.77 204.883C140.058 208.67 135.901 210.145 131.298 209.307C139.386 209.243 144.898 204.547 148.338 197.635L149.09 195.003Z" fill="#1E8B75"/>
<path d="M116.05 195.491C117.021 195.571 117.351 195.941 117.042 196.603C119.186 203.776 123.938 208.011 131.298 209.307C135.901 210.144 140.058 208.669 143.77 204.883C143.93 204.717 144.122 204.6 144.346 204.531C144.879 204.36 145.303 204.485 145.618 204.907C145.689 205 145.782 205.073 145.888 205.121C145.994 205.168 146.111 205.188 146.226 205.179C151.138 204.715 156.418 204.923 159.026 202.603C159.121 202.516 159.239 202.458 159.367 202.436C159.494 202.413 159.625 202.427 159.746 202.475L161.706 203.283C164.853 208.301 166.701 213.741 167.25 219.603C166.706 220.163 166.354 220.963 166.194 222.003L161.802 226.403C161.731 226.475 161.638 226.52 161.537 226.533C161.437 226.545 161.335 226.523 161.249 226.47C161.163 226.417 161.097 226.336 161.062 226.241C161.028 226.146 161.026 226.043 161.058 225.947L161.162 225.643C161.178 225.593 161.176 225.54 161.157 225.492C161.138 225.444 161.103 225.404 161.058 225.379L160.834 225.243C160.658 225.136 160.562 224.979 160.546 224.771C160.13 219.291 161.082 213.323 159.77 208.067C159.736 207.923 159.651 207.798 159.531 207.713C159.411 207.629 159.264 207.591 159.118 207.608C158.972 207.625 158.837 207.695 158.739 207.804C158.641 207.914 158.586 208.056 158.586 208.203L158.122 232.547C147.423 234.957 137.143 235.997 127.282 235.667L109.41 233.443C109.318 233.431 109.234 233.388 109.172 233.32C109.11 233.252 109.075 233.165 109.074 233.075L108.65 209.875C108.645 209.64 108.525 209.512 108.29 209.491C107.306 209.395 107.69 214.291 107.706 215.339C105.749 215.349 104.455 215.787 103.826 216.651C103.49 217.115 102.927 218.243 102.138 220.035C101.562 221.339 101.658 222.923 100.666 224.371C98.9221 220.827 102.89 214.571 104.034 211.779C105.178 208.971 111.738 194.747 116.05 195.491ZM113.85 211.051C113.973 211.392 114.114 211.672 114.274 211.891C114.33 211.962 114.408 212.013 114.497 212.033C114.585 212.053 114.678 212.042 114.759 212.001C114.841 211.961 114.905 211.893 114.942 211.81C114.979 211.727 114.986 211.634 114.962 211.547L111.754 201.419C111.706 201.264 111.618 201.237 111.49 201.339C110.306 202.283 106.442 207.451 109.866 207.755C110.186 207.787 110.391 207.955 110.482 208.259C110.898 209.635 111.839 210.419 113.306 210.611C113.429 210.628 113.544 210.678 113.64 210.755C113.736 210.833 113.809 210.935 113.85 211.051Z" fill="#35A184"/>
<path d="M156.394 197.507C166.93 203.835 168.802 218.139 168.978 229.587C168.823 229.581 168.666 229.579 168.506 229.579L167.25 219.603C166.701 213.741 164.853 208.301 161.706 203.283C160.394 200.989 158.477 199.163 155.954 197.803C156.125 197.483 156.271 197.384 156.394 197.507Z" fill="#CAE4B9"/>
<path d="M113.306 210.611C111.84 210.419 110.898 209.635 110.482 208.259C110.392 207.955 110.186 207.787 109.866 207.755C106.442 207.451 110.306 202.283 111.49 201.339C111.618 201.238 111.706 201.264 111.754 201.419L114.962 211.547C114.986 211.635 114.979 211.728 114.943 211.811C114.906 211.894 114.841 211.961 114.76 212.002C114.679 212.042 114.586 212.054 114.497 212.033C114.409 212.013 114.33 211.963 114.274 211.891C114.114 211.672 113.973 211.392 113.85 211.051C113.809 210.935 113.736 210.833 113.641 210.756C113.545 210.678 113.429 210.628 113.306 210.611Z" fill="#6DC199"/>
<path d="M166.194 222.003C164.33 225.667 161.098 226.867 161.682 231.739L158.122 232.547L158.586 208.203C158.586 208.056 158.641 207.914 158.739 207.805C158.837 207.695 158.972 207.625 159.118 207.609C159.264 207.592 159.411 207.629 159.531 207.714C159.651 207.798 159.736 207.924 159.77 208.067C161.082 213.323 160.13 219.291 160.546 224.771C160.562 224.979 160.658 225.136 160.834 225.243L161.058 225.379C161.103 225.404 161.138 225.444 161.157 225.493C161.176 225.541 161.178 225.594 161.162 225.643L161.058 225.947C161.026 226.043 161.028 226.147 161.062 226.242C161.097 226.337 161.163 226.418 161.249 226.47C161.335 226.523 161.437 226.545 161.537 226.533C161.638 226.521 161.731 226.475 161.802 226.403L166.194 222.003Z" fill="#2C585D"/>
<path d="M107.706 215.339L106.314 232.515C106.293 232.808 106.141 232.918 105.858 232.843L98.8022 230.955L99.5782 225.235L99.9863 225.283C100.11 225.299 100.236 225.273 100.343 225.209C100.45 225.145 100.533 225.047 100.578 224.931C100.664 224.718 100.693 224.531 100.666 224.371C101.658 222.923 101.562 221.339 102.138 220.035C102.928 218.243 103.49 217.115 103.826 216.651C104.456 215.787 105.749 215.35 107.706 215.339Z" fill="#1E8B75"/>
<path d="M167.25 219.603L168.506 229.579L161.682 231.739C161.098 226.867 164.33 225.667 166.194 222.003C166.354 220.963 166.706 220.163 167.25 219.603Z" fill="#1F7F5B"/>
</svg>
