<svg width="256" height="256" viewBox="0 0 256 256" fill="none" xmlns="http://www.w3.org/2000/svg">
<path d="M45.4224 65.4109C37.8944 69.5389 38.1664 79.6749 46.4784 82.7629C46.7718 82.8749 46.9558 83.0802 47.0304 83.3789L48.6704 89.5869C48.7504 89.9016 48.6811 90.1789 48.4624 90.4189C44.1264 95.1789 41.7184 100.531 47.3664 105.387C47.6064 105.59 47.6144 105.803 47.3904 106.027C41.0624 112.323 45.1984 116.275 51.9344 118.515C52.1904 118.6 52.3371 118.776 52.3744 119.043C52.7264 121.675 51.5424 124.715 54.5984 125.803" stroke="#9B8F92" stroke-width="2"/>
<path d="M54.5986 125.803C48.9292 125.568 45.2279 128.056 43.4945 133.267C39.5345 145.203 47.9346 157.619 61.2145 155.803C62.6012 155.611 63.9852 155.438 65.3666 155.283C65.6386 155.256 65.8359 155.366 65.9586 155.611C75.6866 175.627 93.1745 187.979 114.679 193.051C115.068 193.142 115.289 193.216 115.343 193.275C115.759 193.739 115.655 194.067 115.031 194.259L107.879 196.427" stroke="#FCDAC9" stroke-width="2"/>
<path d="M107.878 196.427C95.857 198.187 84.5876 202.075 74.0703 208.091" stroke="#A6BBCC" stroke-width="2"/>
<path d="M74.0702 208.091L67.3502 211.347C67.2708 211.385 67.2014 211.441 67.1476 211.511C67.0939 211.581 67.0574 211.662 67.041 211.748C67.0246 211.835 67.0289 211.924 67.0534 212.009C67.078 212.093 67.1221 212.171 67.1822 212.235C101.23 248.131 163.302 251.843 196.414 211.947C196.569 211.76 196.54 211.614 196.326 211.507L190.606 208.611" stroke="#E8EEEE" stroke-width="2"/>
<path d="M190.606 208.611C179.294 202.579 167.324 198.443 154.694 196.203" stroke="#A6BBCC" stroke-width="2"/>
<path d="M154.695 196.203L143.927 192.923" stroke="#EDC8B7" stroke-width="2"/>
<path d="M143.927 192.923C165.559 188.299 184.215 175.939 193.455 155.387C193.577 155.115 193.785 155.006 194.079 155.059C195.607 155.339 197.359 155.843 198.559 155.955C206.66 156.702 212.313 153.411 215.519 146.083C218.559 139.131 217.007 127.307 207.695 125.995" stroke="#F6D1BF" stroke-width="2"/>
<path d="M207.695 125.995L209.127 119.155C209.151 119.029 209.206 118.91 209.287 118.808C209.367 118.707 209.472 118.625 209.591 118.571C216.519 115.443 213.607 109.427 211.295 104.379C211.177 104.123 211.217 103.894 211.415 103.691C216.783 98.123 215.935 95.915 212.415 89.707C212.292 89.4936 212.279 89.2723 212.375 89.043C215.756 80.8616 213.783 74.675 206.455 70.483C206.193 70.3336 206.065 70.1096 206.071 69.811C206.087 69.043 206.439 68.011 206.487 67.515C206.844 63.6803 205.335 60.8696 201.959 59.083C201.848 59.0254 201.757 58.9377 201.694 58.8301C201.632 58.7224 201.602 58.5993 201.607 58.475C201.74 55.691 200.663 53.5123 198.375 51.939" stroke="#9B8F92" stroke-width="2"/>
<path d="M198.374 51.9389C195.334 49.9709 191.758 51.0029 188.574 51.6829C188.51 51.6973 188.443 51.6954 188.379 51.6775C188.315 51.6595 188.257 51.626 188.209 51.5801C188.162 51.5341 188.127 51.477 188.106 51.414C188.086 51.351 188.082 51.284 188.094 51.2189C188.825 46.9256 188.017 43.3549 185.67 40.5069C182.694 36.8909 179.782 38.0269 176.03 38.2349C175.753 38.2509 175.508 38.1683 175.294 37.9869C172.772 35.7736 169.806 34.7843 166.398 35.0189C166.062 35.0396 165.73 34.9307 165.472 34.7147C165.215 34.4987 165.051 34.1922 165.014 33.8589C164.486 29.1709 161.937 27.3549 157.366 28.4109C157.052 28.4803 156.772 28.4109 156.526 28.2029C153.865 25.9416 150.94 25.6776 147.75 27.4109C147.652 27.4641 147.542 27.4913 147.431 27.4901C147.319 27.4889 147.21 27.4592 147.113 27.404C147.016 27.3487 146.935 27.2697 146.877 27.1743C146.819 27.0789 146.787 26.9704 146.782 26.8589C146.446 18.8589 137.742 14.0109 130.662 18.1709C129.718 18.7256 128.793 19.3069 127.886 19.9149C127.614 20.0963 127.382 20.0536 127.19 19.7869C123.825 15.0989 119.753 14.5176 114.974 18.0429C114.872 18.1196 114.748 18.1609 114.62 18.1609C114.492 18.1609 114.366 18.1196 114.262 18.0429C105.646 11.7309 100.678 16.7149 98.4223 25.2989C98.3921 25.4174 98.3163 25.5192 98.2114 25.5821C98.1066 25.6451 97.9811 25.664 97.8623 25.6349C96.0223 25.2109 94.1663 24.5789 92.3743 24.6829C86.4223 25.0403 83.417 28.3709 83.3583 34.6749C83.3573 34.7345 83.3444 34.7932 83.3204 34.8477C83.2964 34.9022 83.2618 34.9513 83.2186 34.9923C83.1754 35.0333 83.1245 35.0652 83.0688 35.0863C83.0131 35.1073 82.9538 35.1171 82.8943 35.1149C75.9423 34.9149 73.1423 39.1789 71.7263 45.2909C71.6767 45.5048 71.5446 45.6904 71.3588 45.8072C71.173 45.9241 70.9485 45.9628 70.7343 45.9149C63.8943 44.3709 56.8623 43.2029 54.6783 51.9149C54.6143 52.1869 54.4383 52.3123 54.1503 52.2909C45.6063 51.6269 41.0863 57.3469 45.4223 65.4109" stroke="#A19496" stroke-width="2"/>
<path d="M198.375 51.939C198.22 52.803 198.593 53.4696 199.495 53.939C199.799 54.0936 199.98 54.3416 200.039 54.683L200.815 59.099C200.839 59.2319 200.896 59.3564 200.98 59.4612C201.064 59.5659 201.172 59.6476 201.295 59.699C207.623 62.395 202.199 70.347 207.671 72.163C207.781 72.1852 207.878 72.2504 207.94 72.3442C208.003 72.438 208.025 72.5526 208.003 72.663C207.98 72.7733 207.915 72.8703 207.821 72.9325C207.728 72.9948 207.613 73.0172 207.503 72.995C205.887 72.875 204.335 72.771 202.663 72.963C188.543 74.571 175.599 69.739 162.759 64.659C157.927 62.747 144.167 56.763 139.551 58.883C137.748 59.7096 136.455 60.0376 135.671 59.867C128.831 58.403 123.271 56.915 115.303 56.987C94.8387 57.155 77.7827 65.539 65.8707 82.339C65.7214 82.5416 65.5214 82.659 65.2707 82.691C62.4867 83.051 64.5907 87.259 61.2147 88.307C59.6307 88.7923 58.0334 88.739 56.4227 88.147C56.2201 88.0723 56.0254 88.0936 55.8387 88.211C54.4307 89.123 51.1667 90.035 49.9667 88.227C48.9827 86.747 48.1427 85.819 48.0147 83.883C47.9934 83.6163 47.8947 83.387 47.7187 83.195C47.1481 82.571 46.6841 82.1763 46.3267 82.011C40.6067 79.387 38.9027 73.683 42.8787 68.707C43.7427 67.6243 44.5907 66.5256 45.4227 65.411" stroke="#3E262A" stroke-width="2"/>
<path d="M207.694 125.995C203.033 125.542 200.5 127.59 200.094 132.139C200.092 132.155 200.084 132.17 200.071 132.182C200.058 132.193 200.042 132.199 200.026 132.199C200.011 132.199 199.996 132.193 199.986 132.182C199.977 132.17 199.972 132.155 199.974 132.139C199.772 128.411 199.393 125.2 198.838 122.507C196.332 110.352 193.212 98.1016 189.478 85.755C189.454 85.6777 189.414 85.6059 189.362 85.544C189.31 85.482 189.246 85.4309 189.174 85.3938C189.101 85.3566 189.023 85.334 188.942 85.3274C188.861 85.3207 188.78 85.3301 188.702 85.355C185.721 86.3043 183.46 85.5363 181.918 83.051C181.858 82.9537 181.766 82.88 181.657 82.8422C181.548 82.8044 181.428 82.8047 181.318 82.843C175.206 85.003 173.014 80.203 170.694 75.907C170.636 75.7966 170.544 75.7073 170.431 75.6514C170.318 75.5955 170.189 75.5758 170.062 75.595C167.257 76.0216 164.974 75.155 163.214 72.995C162.985 72.707 162.686 72.5603 162.318 72.555L156.086 72.419C155.814 72.4136 155.556 72.3443 155.31 72.211L152.414 70.595C152.132 70.4403 151.841 70.419 151.542 70.531C147.678 72.043 143.566 73.387 140.862 70.667C138.718 68.507 135.886 65.051 133.478 68.587C127.27 77.723 115.974 72.907 107.542 71.291C107.149 71.2171 106.741 71.285 106.393 71.4827C106.044 71.6804 105.777 71.9951 105.638 72.371C102.358 81.435 94.7265 79.915 87.0705 78.419C86.7088 78.347 86.3334 78.4015 86.0072 78.5734C85.6809 78.7452 85.4236 79.024 85.2785 79.363L84.0225 82.283" stroke="#936353" stroke-width="2"/>
<path d="M84.0226 82.283C81.9586 85.859 77.2946 84.803 74.2226 83.635C73.8607 83.494 73.4612 83.4814 73.0902 83.5992C72.7192 83.7171 72.399 83.9583 72.1826 84.283C71.532 85.259 70.86 86.2003 70.1666 87.107C70.012 87.3096 69.8066 87.4163 69.5506 87.427C68.0786 87.491 67.2066 88.115 66.9346 89.299C64.652 99.1496 62.6386 111.206 60.8946 125.467C60.6066 127.824 60.4973 130.216 60.5666 132.643C60.5826 133.256 60.5186 133.264 60.3746 132.667C59.5266 129.131 57.6013 126.843 54.5986 125.803" stroke="#996C5D" stroke-width="2"/>
<path d="M137.158 146.331C133.614 151.955 128.998 151.587 125.07 146.947C125.005 146.867 124.915 146.81 124.815 146.784C124.715 146.758 124.609 146.765 124.513 146.803C124.416 146.841 124.335 146.909 124.28 146.997C124.225 147.085 124.199 147.188 124.206 147.291C124.42 151.024 126.598 153.224 130.742 153.891" stroke="#EAA482" stroke-width="2"/>
<path d="M130.839 167.643C124.135 167.68 117.201 167.197 110.039 166.195" stroke="#FCDAC9" stroke-width="2"/>
<path d="M110.038 166.195C109.676 166.051 109.324 166.019 108.982 166.099C108.305 166.27 108.076 166.688 108.294 167.355C109.334 170.534 111.604 172.558 115.102 173.427C120.718 174.824 126.1 175.494 131.246 175.435" stroke="#D17D6B" stroke-width="2"/>
<path d="M130.91 194.395L117.214 193.643C117.1 193.636 116.986 193.67 116.895 193.741C116.804 193.811 116.742 193.912 116.72 194.025C116.699 194.138 116.719 194.255 116.778 194.354C116.836 194.453 116.929 194.528 117.038 194.563L130.99 199.187" stroke="#EAA482" stroke-width="2"/>
<path d="M130.99 199.187C130.382 203.486 130.428 207.696 131.126 211.819" stroke="#F4AE8A" stroke-width="2"/>
<path d="M131.126 211.819C119.964 211.803 112.214 206.672 107.878 196.427" stroke="#A39897" stroke-width="2"/>
<path d="M143.927 192.923L130.911 194.395" stroke="#E59C77" stroke-width="2"/>
<path d="M130.911 194.395C130.377 188.022 130.489 181.702 131.247 175.435" stroke="#F4AE8A" stroke-width="2"/>
<path d="M131.247 175.435C137.847 175.251 148.487 174.827 151.495 168.099C151.985 166.995 151.855 166.088 151.103 165.379C151.046 165.327 150.973 165.295 150.896 165.29C150.819 165.284 150.743 165.304 150.679 165.347C150.599 165.4 150.553 165.464 150.543 165.539" stroke="#CB7461" stroke-width="2"/>
<path d="M150.542 165.539C150.19 165.262 149.836 165.168 149.478 165.259C143.42 166.822 137.206 167.616 130.838 167.643" stroke="#F6D1BF" stroke-width="2"/>
<path d="M130.839 167.643L130.743 153.891" stroke="#F4AE8A" stroke-width="2"/>
<path d="M130.743 153.891C134.337 153.939 136.844 152.323 138.263 149.043C138.719 147.987 138.711 146.315 137.159 146.331" stroke="#E59C77" stroke-width="2"/>
<path d="M137.158 146.331C135.582 144.019 130.414 141.659 130.43 139.267C130.58 118.904 130.67 98.083 130.702 76.803C130.702 75.8483 130.257 75.5443 129.366 75.891C122.95 78.379 116.062 76.323 109.662 74.627C109.396 74.5523 109.158 74.6083 108.95 74.795C102.398 80.571 99.5025 82.771 90.3185 82.763C88.2225 82.7576 86.1238 82.5976 84.0225 82.283" stroke="#F4AE8A" stroke-width="2"/>
<path d="M190.606 208.611C183.51 213.507 178.182 217.379 169.094 220.811C136.63 233.067 102.15 228.475 74.0703 208.091" stroke="#8FACBC" stroke-width="2"/>
<path d="M154.694 196.203C154.742 196.523 154.66 196.784 154.446 196.987" stroke="#948684" stroke-width="2"/>
<path d="M154.446 196.987L149.534 195.603C149.413 195.569 149.285 195.569 149.162 195.601C149.04 195.633 148.928 195.697 148.838 195.787C148.753 195.867 148.7 195.966 148.678 196.083C148.653 196.223 148.594 196.355 148.506 196.467C148.418 196.579 148.304 196.667 148.174 196.723C142.366 199.363 136.638 200.184 130.99 199.187" stroke="#E59C77" stroke-width="2"/>
<path d="M154.446 196.987C154.548 197.302 154.542 197.576 154.43 197.811C149.865 207.208 142.097 211.878 131.126 211.819" stroke="#9E8F8C" stroke-width="2"/>
<path d="M150.543 165.539C146.815 172.803 128.799 172.067 122.111 171.019C116.703 170.179 113.295 169.779 110.039 166.195" stroke="#D3A0A0" stroke-width="2"/>
<path d="M178.918 109.483C178.11 104.427 163.111 98.4911 158.695 98.0511C155.399 97.7258 153.588 99.1258 153.262 102.251C152.862 106.091 155.247 107.331 158.735 107.795C164.953 108.632 171.319 109.558 177.831 110.571C177.979 110.594 178.13 110.582 178.273 110.536C178.415 110.489 178.545 110.41 178.651 110.304C178.757 110.198 178.837 110.068 178.883 109.926C178.93 109.783 178.942 109.631 178.918 109.483Z" stroke="#825743" stroke-width="2"/>
<path d="M152.086 135.523C155.606 149.795 173.094 149.379 179.166 137.475" stroke="#F6D1BF" stroke-width="2"/>
<path d="M179.166 137.475C179.822 136.19 180.758 135.054 181.974 134.067C182.084 133.98 182.162 133.859 182.195 133.723C182.228 133.586 182.215 133.443 182.158 133.315C181.534 131.875 181.865 130.942 183.15 130.515C183.396 130.43 183.601 130.291 183.766 130.099C184.278 129.502 184.369 128.912 184.038 128.331C183.955 128.186 183.824 128.074 183.669 128.015C183.514 127.957 183.344 127.955 183.19 128.011L181.902 128.475C181.79 128.516 181.666 128.516 181.554 128.475C181.441 128.434 181.347 128.355 181.286 128.251C177.526 121.792 171.857 118.382 164.278 118.019C154.454 117.547 149.502 126.915 152.086 135.523" stroke="#785340" stroke-width="2"/>
<path d="M179.167 137.475C180.511 131.059 177.239 125.779 171.431 123.075" stroke="#807F7F" stroke-width="2"/>
<path d="M171.43 123.075L169.174 121.563C169.011 121.453 168.816 121.4 168.62 121.415C168.423 121.43 168.238 121.51 168.093 121.644C167.949 121.777 167.853 121.956 167.823 122.15C167.793 122.345 167.829 122.544 167.926 122.715C170.166 126.739 172.27 130.043 169.51 134.443C167.414 137.787 163.43 138.563 160.022 136.779C157.67 135.547 156.942 133.139 156.854 130.651C156.844 130.352 156.732 130.31 156.518 130.523L156.19 130.843C156.03 131.008 155.958 131.203 155.974 131.427L156.526 138.779" stroke="#371B11" stroke-width="2"/>
<path d="M156.526 138.779C154.214 135.539 154.838 131.627 155.278 128.067C155.292 127.95 155.261 127.833 155.192 127.738C155.123 127.642 155.021 127.576 154.906 127.552C154.791 127.528 154.671 127.548 154.57 127.608C154.468 127.668 154.393 127.763 154.358 127.875L152.086 135.523" stroke="#807F7F" stroke-width="2"/>
<path d="M171.43 123.075C174.774 127.048 175.566 131.222 173.806 135.595C170.934 142.747 161.342 145.675 156.526 138.779" stroke="#B69990" stroke-width="2"/>
<path d="M210.462 135.555C208.542 132.555 205.078 131.291 201.686 132.435C200.998 132.665 201.009 132.705 201.718 132.555C205.212 131.83 208.092 132.854 210.358 135.627C210.369 135.638 210.383 135.645 210.398 135.647C210.413 135.648 210.429 135.644 210.441 135.636C210.454 135.627 210.463 135.614 210.467 135.599C210.471 135.585 210.469 135.569 210.462 135.555Z" stroke="#E59C77" stroke-width="2"/>
<path d="M186.624 152.624C186.54 151.791 186.141 150.998 185.452 150.29C184.762 149.583 183.796 148.974 182.607 148.5C181.417 148.026 180.029 147.695 178.521 147.526C177.014 147.357 175.415 147.353 173.818 147.516C170.593 147.843 167.568 148.826 165.408 150.247C163.248 151.668 162.13 153.412 162.301 155.094C162.386 155.927 162.784 156.72 163.474 157.428C164.163 158.135 165.13 158.744 166.319 159.218C167.508 159.692 168.896 160.023 170.404 160.192C171.912 160.361 173.51 160.365 175.107 160.202C178.332 159.875 181.358 158.892 183.518 157.471C185.678 156.05 186.795 154.306 186.624 152.624Z" stroke="#E28770" stroke-width="2"/>
<path d="M102.014 107.355C107.974 106.427 106.358 96.7869 101.078 97.8269C94.8061 99.0589 84.3101 103.003 80.4141 108.627C80.3059 108.784 80.2339 108.964 80.2033 109.152C80.1726 109.341 80.1841 109.534 80.237 109.717C80.2898 109.9 80.3827 110.069 80.5088 110.211C80.6349 110.353 80.7911 110.465 80.9661 110.539C81.4781 110.758 82.2035 110.779 83.1421 110.603C89.4248 109.424 95.7155 108.342 102.014 107.355Z" stroke="#885F4E" stroke-width="2"/>
<path d="M81.4062 135.171C85.8463 150.003 105.574 151.027 108.862 134.571" stroke="#FCDAC9" stroke-width="2"/>
<path d="M108.863 134.571C111.079 113.371 87.4546 114.387 79.0786 128.043C78.7106 128.651 78.1586 128.907 77.5346 128.579C77.4221 128.52 77.2938 128.498 77.168 128.516C77.0422 128.535 76.9255 128.592 76.8347 128.681C76.744 128.77 76.6838 128.886 76.6629 129.011C76.6421 129.137 76.6615 129.266 76.7186 129.379C77.0919 130.136 77.6839 130.616 78.4946 130.819C78.7613 130.883 78.8759 131.051 78.8386 131.323L78.4066 134.443C78.3976 134.509 78.402 134.576 78.4195 134.641C78.4371 134.705 78.4674 134.765 78.5086 134.816C78.5499 134.868 78.6011 134.911 78.6593 134.941C78.7174 134.972 78.7811 134.99 78.8466 134.995L81.4066 135.171" stroke="#7D5C4A" stroke-width="2"/>
<path d="M108.863 134.571L106.431 128.299C106.395 128.204 106.326 128.126 106.237 128.079C106.148 128.032 106.045 128.02 105.946 128.044C105.847 128.068 105.76 128.128 105.701 128.212C105.641 128.295 105.614 128.397 105.623 128.499C106.175 133.707 106.559 138.555 101.095 141.227" stroke="#807F7F" stroke-width="2"/>
<path d="M101.094 141.227C104.369 138.379 105.542 134.92 104.614 130.851C104.513 130.414 104.385 130.406 104.23 130.827C99.2062 144.347 85.4222 134.443 92.4462 123.643C92.4964 123.568 92.5249 123.48 92.5288 123.39C92.5327 123.299 92.5119 123.209 92.4686 123.129C92.4252 123.049 92.3609 122.982 92.2824 122.934C92.2038 122.887 92.114 122.861 92.0222 122.859C91.4569 122.854 91.1582 122.55 91.1262 121.947C91.1156 121.707 90.9902 121.598 90.7502 121.619C90.3502 121.656 90.0622 121.776 89.8862 121.979" stroke="#371B11" stroke-width="2"/>
<path d="M89.8863 121.979C84.073 124.603 81.2463 129 81.4063 135.171" stroke="#807F7F" stroke-width="2"/>
<path d="M101.094 141.227C95.3743 144.907 88.5023 140.939 86.9183 134.651C85.6863 129.787 86.7076 125.696 89.9823 122.379C90.0516 122.304 90.0623 122.224 90.0143 122.139C89.9663 122.059 89.9236 122.006 89.8863 121.979" stroke="#B69990" stroke-width="2"/>
<path d="M57.4625 131.979C53.4225 131.107 50.0304 132.875 48.2144 136.619C48.2053 136.652 48.2088 136.687 48.2244 136.716C48.2399 136.746 48.2665 136.769 48.2996 136.781C48.3327 136.794 48.3703 136.795 48.4058 136.784C48.4414 136.773 48.4727 136.752 48.4944 136.723C50.1958 133.24 53.0011 131.76 56.9105 132.283C57.0011 132.299 57.0838 132.283 57.1584 132.235L57.4784 132.051C57.5318 132.019 57.5265 131.995 57.4625 131.979Z" stroke="#EAA482" stroke-width="2"/>
<path d="M95.1812 154.932C95.2756 153.188 94.1189 151.449 91.9655 150.095C89.8121 148.742 86.8384 147.887 83.6986 147.716C82.1439 147.632 80.5953 147.719 79.141 147.972C77.6868 148.224 76.3555 148.638 75.2231 149.189C74.0907 149.74 73.1794 150.417 72.5413 151.183C71.9031 151.948 71.5506 152.786 71.5039 153.65C71.4095 155.393 72.5662 157.133 74.7196 158.486C76.873 159.84 79.8467 160.695 82.9865 160.865C84.5411 160.949 86.0898 160.863 87.5441 160.61C88.9983 160.358 90.3296 159.944 91.462 159.393C92.5944 158.842 93.5057 158.165 94.1438 157.399C94.7819 156.634 95.1344 155.795 95.1812 154.932Z" stroke="#F69C82" stroke-width="2"/>
<path d="M161.724 122.921C161.53 122.653 161.275 122.433 160.976 122.272C160.677 122.112 160.338 122.015 159.979 121.986C159.62 121.957 159.249 121.998 158.885 122.105C158.522 122.213 158.174 122.385 157.861 122.612C157.229 123.071 156.78 123.726 156.611 124.433C156.442 125.14 156.568 125.841 156.961 126.382C157.155 126.649 157.409 126.87 157.709 127.03C158.008 127.19 158.347 127.288 158.706 127.316C159.064 127.345 159.436 127.304 159.799 127.197C160.163 127.089 160.511 126.917 160.824 126.69C161.455 126.231 161.905 125.576 162.074 124.869C162.243 124.162 162.117 123.461 161.724 122.921Z" stroke="#807F7F" stroke-width="2"/>
<path d="M103.885 126.719C104.288 126.173 104.423 125.464 104.261 124.748C104.099 124.032 103.653 123.368 103.021 122.902C102.39 122.437 101.624 122.207 100.892 122.264C100.16 122.321 99.5228 122.66 99.1199 123.206C98.717 123.753 98.5816 124.462 98.7435 125.178C98.9054 125.894 99.3514 126.558 99.9832 127.024C100.615 127.489 101.381 127.719 102.113 127.662C102.845 127.605 103.482 127.266 103.885 126.719Z" stroke="#807F7F" stroke-width="2"/>
<path d="M198.375 51.9389C198.22 52.8029 198.593 53.4696 199.495 53.9389C199.799 54.0936 199.98 54.3416 200.039 54.6829L200.815 59.0989C200.839 59.2319 200.896 59.3564 200.98 59.4611C201.064 59.5659 201.172 59.6476 201.295 59.6989C207.623 62.3949 202.199 70.3469 207.671 72.1629C207.781 72.1852 207.878 72.2504 207.94 72.3442C208.003 72.4379 208.025 72.5526 208.003 72.6629C207.98 72.7733 207.915 72.8702 207.821 72.9325C207.728 72.9947 207.613 73.0172 207.503 72.9949C205.887 72.8749 204.335 72.7709 202.663 72.9629C188.543 74.5709 175.599 69.7389 162.759 64.6589C157.927 62.7469 144.167 56.7629 139.551 58.8829C137.748 59.7096 136.455 60.0376 135.671 59.8669C128.831 58.4029 123.271 56.9149 115.303 56.9869C94.8387 57.1549 77.7827 65.5389 65.8707 82.3389C65.7214 82.5416 65.5214 82.6589 65.2707 82.6909C62.4867 83.0509 64.5907 87.2589 61.2147 88.3069C59.6307 88.7923 58.0334 88.7389 56.4227 88.1469C56.2201 88.0723 56.0254 88.0936 55.8387 88.2109C54.4307 89.1229 51.1667 90.0349 49.9667 88.2269C48.9827 86.7469 48.1427 85.8189 48.0147 83.8829C47.9934 83.6163 47.8947 83.3869 47.7187 83.1949C47.1481 82.5709 46.6841 82.1763 46.3267 82.0109C40.6067 79.3869 38.9027 73.6829 42.8787 68.7069C43.7427 67.6243 44.5907 66.5256 45.4227 65.4109C41.0867 57.3469 45.6067 51.6269 54.1507 52.2909C54.4387 52.3123 54.6147 52.1869 54.6787 51.9149C56.8627 43.2029 63.8947 44.3709 70.7347 45.9149C70.949 45.9628 71.1734 45.9241 71.3592 45.8072C71.5451 45.6904 71.6771 45.5048 71.7267 45.2909C73.1427 39.1789 75.9427 34.9149 82.8947 35.1149C82.9542 35.1171 83.0136 35.1073 83.0693 35.0863C83.1249 35.0652 83.1759 35.0333 83.2191 34.9923C83.2623 34.9513 83.2969 34.9022 83.3209 34.8477C83.3448 34.7932 83.3577 34.7345 83.3587 34.6749C83.4174 28.3709 86.4227 25.0403 92.3747 24.6829C94.1667 24.5789 96.0227 25.2109 97.8627 25.6349C97.9815 25.664 98.107 25.6451 98.2119 25.5821C98.3167 25.5192 98.3925 25.4174 98.4227 25.2989C100.679 16.7149 105.647 11.7309 114.263 18.0429C114.367 18.1196 114.492 18.1609 114.62 18.1609C114.749 18.1609 114.873 18.1196 114.975 18.0429C119.753 14.5176 123.825 15.0989 127.191 19.7869C127.383 20.0536 127.615 20.0963 127.887 19.9149C128.793 19.3069 129.719 18.7256 130.663 18.1709C137.743 14.0109 146.447 18.8589 146.783 26.8589C146.787 26.9704 146.82 27.0789 146.877 27.1743C146.935 27.2697 147.016 27.3487 147.113 27.404C147.21 27.4592 147.32 27.4889 147.431 27.4901C147.543 27.4913 147.653 27.4641 147.751 27.4109C150.94 25.6776 153.865 25.9416 156.527 28.2029C156.772 28.4109 157.052 28.4803 157.367 28.4109C161.937 27.3549 164.487 29.1709 165.015 33.8589C165.051 34.1922 165.215 34.4987 165.473 34.7147C165.73 34.9307 166.062 35.0396 166.399 35.0189C169.807 34.7843 172.772 35.7736 175.295 37.9869C175.508 38.1683 175.753 38.2509 176.031 38.2349C179.783 38.0269 182.695 36.8909 185.671 40.5069C188.017 43.3549 188.825 46.9256 188.095 51.2189C188.083 51.284 188.087 51.351 188.107 51.414C188.127 51.477 188.162 51.5341 188.21 51.5801C188.257 51.626 188.316 51.6595 188.379 51.6775C188.443 51.6954 188.51 51.6973 188.575 51.6829C191.759 51.0029 195.335 49.9709 198.375 51.9389Z" fill="#442B2E"/>
<path d="M198.374 51.939C200.662 53.5123 201.74 55.691 201.606 58.475C201.601 58.5993 201.632 58.7224 201.694 58.8301C201.757 58.9377 201.848 59.0254 201.958 59.083C205.334 60.8696 206.844 63.6803 206.486 67.515C206.438 68.011 206.086 69.043 206.07 69.811C206.065 70.1096 206.193 70.3336 206.454 70.483C213.782 74.675 215.756 80.8616 212.374 89.043C212.278 89.2723 212.292 89.4936 212.414 89.707C215.934 95.915 216.782 98.123 211.414 103.691C211.217 103.894 211.177 104.123 211.294 104.379C213.606 109.427 216.518 115.443 209.59 118.571C209.472 118.625 209.367 118.707 209.287 118.808C209.206 118.91 209.151 119.029 209.126 119.155L207.694 125.995C203.033 125.542 200.5 127.59 200.094 132.139C200.092 132.155 200.084 132.17 200.071 132.182C200.058 132.193 200.042 132.199 200.026 132.199C200.01 132.199 199.996 132.193 199.986 132.182C199.977 132.17 199.972 132.155 199.974 132.139C199.772 128.411 199.393 125.2 198.838 122.507C196.332 110.352 193.212 98.1016 189.478 85.755C189.454 85.6776 189.414 85.6059 189.362 85.544C189.31 85.482 189.246 85.4309 189.174 85.3938C189.101 85.3566 189.023 85.334 188.942 85.3274C188.861 85.3207 188.78 85.3301 188.702 85.355C185.721 86.3043 183.46 85.5363 181.918 83.051C181.858 82.9537 181.766 82.88 181.657 82.8422C181.548 82.8044 181.428 82.8047 181.318 82.843C175.206 85.003 173.014 80.203 170.694 75.907C170.636 75.7966 170.544 75.7073 170.431 75.6514C170.318 75.5955 170.189 75.5758 170.062 75.595C167.257 76.0216 164.974 75.155 163.214 72.995C162.985 72.707 162.686 72.5603 162.318 72.555L156.086 72.419C155.814 72.4136 155.556 72.3443 155.31 72.211L152.414 70.595C152.132 70.4403 151.841 70.419 151.542 70.531C147.678 72.043 143.566 73.387 140.862 70.667C138.718 68.507 135.886 65.051 133.478 68.587C127.27 77.723 115.974 72.907 107.542 71.291C107.149 71.2171 106.741 71.285 106.393 71.4827C106.044 71.6804 105.777 71.995 105.638 72.371C102.358 81.435 94.7264 79.915 87.0704 78.419C86.7088 78.347 86.3334 78.4015 86.0071 78.5734C85.6809 78.7452 85.4236 79.024 85.2784 79.363L84.0224 82.283C81.9584 85.859 77.2944 84.803 74.2224 83.635C73.8605 83.494 73.461 83.4814 73.09 83.5992C72.719 83.7171 72.3988 83.9583 72.1824 84.283C71.5318 85.259 70.8598 86.2003 70.1664 87.107C70.0118 87.3096 69.8064 87.4163 69.5504 87.427C68.0784 87.491 67.2064 88.115 66.9344 89.299C64.6518 99.1496 62.6384 111.206 60.8944 125.467C60.6064 127.824 60.4971 130.216 60.5664 132.643C60.5824 133.256 60.5184 133.264 60.3744 132.667C59.5264 129.131 57.6011 126.843 54.5984 125.803C51.5424 124.715 52.7264 121.675 52.3744 119.043C52.3371 118.776 52.1904 118.6 51.9344 118.515C45.1984 116.275 41.0624 112.323 47.3904 106.027C47.6144 105.803 47.6064 105.59 47.3664 105.387C41.7184 100.531 44.1264 95.179 48.4624 90.419C48.6811 90.179 48.7504 89.9016 48.6704 89.587L47.0304 83.379C46.9558 83.0803 46.7718 82.875 46.4784 82.763C38.1664 79.675 37.8944 69.539 45.4224 65.411C44.5904 66.5256 43.7424 67.6243 42.8784 68.707C38.9024 73.683 40.6064 79.387 46.3264 82.011C46.6838 82.1763 47.1478 82.571 47.7184 83.195C47.8944 83.387 47.9931 83.6163 48.0144 83.883C48.1424 85.819 48.9824 86.747 49.9664 88.227C51.1664 90.035 54.4304 89.123 55.8384 88.211C56.0251 88.0936 56.2198 88.0723 56.4224 88.147C58.0331 88.739 59.6304 88.7923 61.2144 88.307C64.5904 87.259 62.4864 83.051 65.2704 82.691C65.5211 82.659 65.7211 82.5416 65.8704 82.339C77.7824 65.539 94.8384 57.155 115.302 56.987C123.27 56.915 128.83 58.403 135.67 59.867C136.454 60.0376 137.748 59.7096 139.55 58.883C144.166 56.763 157.926 62.747 162.758 64.659C175.598 69.739 188.542 74.571 202.662 72.963C204.334 72.771 205.886 72.875 207.502 72.995C207.613 73.0172 207.727 72.9948 207.821 72.9325C207.915 72.8703 207.98 72.7733 208.002 72.663C208.025 72.5526 208.002 72.438 207.94 72.3442C207.878 72.2504 207.781 72.1852 207.67 72.163C202.198 70.347 207.622 62.395 201.294 59.699C201.172 59.6476 201.064 59.5659 200.98 59.4612C200.896 59.3564 200.839 59.2319 200.814 59.099L200.038 54.683C199.98 54.3416 199.798 54.0936 199.494 53.939C198.593 53.4696 198.22 52.803 198.374 51.939Z" fill="#382126"/>
<path d="M207.694 125.995C217.006 127.307 218.558 139.131 215.518 146.083C212.313 153.411 206.66 156.702 198.558 155.955C197.358 155.843 195.606 155.339 194.078 155.059C193.785 155.006 193.577 155.115 193.454 155.387C184.214 175.939 165.558 188.299 143.926 192.923L130.91 194.395C130.377 188.022 130.489 181.702 131.246 175.435C137.846 175.251 148.486 174.827 151.494 168.099C151.985 166.995 151.854 166.088 151.102 165.379C151.046 165.327 150.973 165.295 150.896 165.29C150.819 165.284 150.743 165.304 150.678 165.347C150.598 165.4 150.553 165.464 150.542 165.539C150.19 165.262 149.836 165.168 149.478 165.259C143.42 166.822 137.206 167.616 130.838 167.643L130.742 153.891C134.337 153.939 136.844 152.323 138.262 149.043C138.718 147.987 138.71 146.315 137.158 146.331C135.582 144.019 130.414 141.659 130.43 139.267C130.58 118.904 130.67 98.083 130.702 76.803C130.702 75.8483 130.257 75.5443 129.366 75.891C122.95 78.379 116.062 76.323 109.662 74.627C109.396 74.5523 109.158 74.6083 108.95 74.795C102.398 80.571 99.5025 82.771 90.3185 82.763C88.2225 82.7576 86.1238 82.5976 84.0225 82.283L85.2785 79.363C85.4236 79.024 85.6809 78.7452 86.0072 78.5734C86.3334 78.4015 86.7088 78.347 87.0705 78.419C94.7265 79.915 102.358 81.435 105.638 72.371C105.777 71.9951 106.044 71.6804 106.393 71.4827C106.741 71.285 107.149 71.2171 107.542 71.291C115.974 72.907 127.27 77.723 133.478 68.587C135.886 65.051 138.718 68.507 140.862 70.667C143.566 73.387 147.678 72.043 151.542 70.531C151.841 70.419 152.132 70.4403 152.414 70.595L155.31 72.211C155.556 72.3443 155.814 72.4136 156.086 72.419L162.318 72.555C162.686 72.5603 162.985 72.707 163.214 72.995C164.974 75.155 167.257 76.0216 170.062 75.595C170.189 75.5758 170.318 75.5955 170.431 75.6514C170.544 75.7073 170.636 75.7966 170.694 75.907C173.014 80.203 175.206 85.003 181.318 82.843C181.428 82.8047 181.548 82.8044 181.657 82.8422C181.766 82.88 181.858 82.9537 181.918 83.051C183.46 85.5363 185.721 86.3043 188.702 85.355C188.78 85.3301 188.861 85.3207 188.942 85.3274C189.023 85.334 189.101 85.3566 189.174 85.3938C189.246 85.4309 189.31 85.482 189.362 85.544C189.414 85.6059 189.454 85.6777 189.478 85.755C193.212 98.1016 196.332 110.352 198.838 122.507C199.393 125.2 199.772 128.411 199.974 132.139C199.972 132.155 199.977 132.17 199.986 132.182C199.996 132.193 200.011 132.199 200.026 132.199C200.042 132.199 200.058 132.193 200.071 132.182C200.084 132.17 200.092 132.155 200.094 132.139C200.5 127.59 203.033 125.542 207.694 125.995ZM178.918 109.483C178.11 104.427 163.11 98.491 158.694 98.051C155.398 97.7256 153.588 99.1256 153.262 102.251C152.862 106.091 155.246 107.331 158.734 107.795C164.953 108.632 171.318 109.558 177.83 110.571C177.979 110.594 178.13 110.582 178.273 110.536C178.415 110.489 178.545 110.41 178.651 110.304C178.757 110.198 178.837 110.068 178.883 109.925C178.93 109.783 178.942 109.631 178.918 109.483ZM152.086 135.523C155.606 149.795 173.094 149.379 179.166 137.475C179.822 136.19 180.758 135.054 181.974 134.067C182.084 133.98 182.162 133.859 182.195 133.722C182.228 133.586 182.216 133.443 182.158 133.315C181.534 131.875 181.865 130.942 183.15 130.515C183.396 130.43 183.601 130.291 183.766 130.099C184.278 129.502 184.369 128.912 184.038 128.331C183.955 128.185 183.824 128.074 183.669 128.015C183.514 127.957 183.345 127.955 183.19 128.011L181.902 128.475C181.79 128.516 181.666 128.515 181.554 128.474C181.441 128.434 181.347 128.354 181.286 128.251C177.526 121.792 171.857 118.382 164.278 118.019C154.454 117.547 149.502 126.915 152.086 135.523ZM210.462 135.555C208.542 132.555 205.078 131.291 201.686 132.435C200.998 132.664 201.009 132.704 201.718 132.555C205.212 131.83 208.092 132.854 210.358 135.627C210.369 135.638 210.383 135.645 210.398 135.647C210.414 135.648 210.429 135.644 210.441 135.636C210.454 135.627 210.463 135.614 210.467 135.599C210.471 135.584 210.469 135.569 210.462 135.555ZM186.624 152.624C186.539 151.791 186.141 150.998 185.452 150.29C184.762 149.583 183.795 148.974 182.606 148.5C181.417 148.026 180.029 147.695 178.521 147.526C177.013 147.357 175.415 147.353 173.818 147.516C170.593 147.843 167.567 148.826 165.407 150.247C163.248 151.668 162.13 153.412 162.301 155.094C162.386 155.927 162.784 156.72 163.473 157.428C164.163 158.135 165.129 158.744 166.319 159.218C167.508 159.692 168.896 160.023 170.404 160.192C171.912 160.361 173.51 160.365 175.107 160.202C178.332 159.875 181.358 158.892 183.517 157.471C185.677 156.05 186.795 154.306 186.624 152.624Z" fill="#EEA57F"/>
<path d="M137.159 146.331C133.615 151.955 128.999 151.587 125.071 146.947C125.005 146.867 124.915 146.81 124.815 146.784C124.715 146.758 124.609 146.765 124.513 146.803C124.417 146.841 124.335 146.909 124.28 146.997C124.225 147.085 124.199 147.188 124.207 147.291C124.42 151.024 126.599 153.224 130.743 153.891L130.839 167.643C124.135 167.68 117.201 167.198 110.039 166.195C109.676 166.051 109.324 166.019 108.983 166.099C108.305 166.27 108.076 166.688 108.295 167.355C109.335 170.534 111.604 172.558 115.103 173.427C120.719 174.824 126.1 175.494 131.247 175.435C130.489 181.702 130.377 188.022 130.911 194.395L117.215 193.643C117.1 193.636 116.986 193.67 116.895 193.741C116.804 193.811 116.742 193.912 116.721 194.025C116.699 194.138 116.719 194.255 116.778 194.354C116.836 194.453 116.929 194.527 117.039 194.563L130.991 199.187C130.383 203.486 130.428 207.696 131.127 211.819C119.964 211.803 112.215 206.672 107.879 196.427L115.031 194.259C115.655 194.067 115.759 193.739 115.343 193.275C115.289 193.216 115.068 193.142 114.679 193.051C93.1745 187.979 75.6866 175.627 65.9586 155.611C65.8359 155.366 65.6386 155.256 65.3666 155.283C63.9852 155.438 62.6012 155.611 61.2146 155.803C47.9346 157.619 39.5345 145.203 43.4945 133.267C45.2279 128.056 48.9292 125.568 54.5986 125.803C57.6012 126.843 59.5266 129.131 60.3746 132.667C60.5186 133.264 60.5826 133.256 60.5666 132.643C60.4972 130.216 60.6065 127.824 60.8945 125.467C62.6385 111.206 64.6519 99.1496 66.9346 89.299C67.2066 88.115 68.0785 87.491 69.5505 87.427C69.8065 87.4163 70.0119 87.3096 70.1666 87.107C70.8599 86.2003 71.5319 85.259 72.1826 84.283C72.3989 83.9583 72.7191 83.7171 73.0901 83.5992C73.4611 83.4814 73.8607 83.494 74.2225 83.635C77.2945 84.803 81.9585 85.859 84.0225 82.283C86.1239 82.5976 88.2226 82.7576 90.3186 82.763C99.5026 82.771 102.399 80.571 108.951 74.795C109.159 74.6083 109.396 74.5523 109.663 74.627C116.063 76.323 122.951 78.379 129.367 75.891C130.257 75.5443 130.703 75.8483 130.703 76.803C130.671 98.083 130.58 118.904 130.431 139.267C130.415 141.659 135.583 144.019 137.159 146.331ZM102.015 107.355C107.975 106.427 106.359 96.787 101.079 97.827C94.8065 99.059 84.3105 103.003 80.4145 108.627C80.3063 108.784 80.2343 108.964 80.2037 109.153C80.173 109.341 80.1845 109.534 80.2374 109.717C80.2902 109.9 80.3831 110.069 80.5092 110.211C80.6353 110.353 80.7915 110.465 80.9665 110.539C81.4785 110.758 82.2039 110.779 83.1426 110.603C89.4252 109.424 95.7159 108.342 102.015 107.355ZM81.4066 135.171C85.8466 150.003 105.575 151.027 108.863 134.571C111.079 113.371 87.4545 114.387 79.0785 128.043C78.7105 128.651 78.1586 128.907 77.5346 128.579C77.4221 128.52 77.2937 128.498 77.168 128.516C77.0422 128.534 76.9255 128.592 76.8347 128.681C76.7439 128.77 76.6838 128.886 76.6629 129.011C76.642 129.137 76.6615 129.265 76.7186 129.379C77.0919 130.136 77.6839 130.616 78.4946 130.819C78.7612 130.883 78.8759 131.051 78.8385 131.323L78.4066 134.443C78.3975 134.509 78.4019 134.576 78.4195 134.64C78.437 134.705 78.4674 134.764 78.5086 134.816C78.5499 134.868 78.6011 134.91 78.6592 134.941C78.7174 134.972 78.7811 134.99 78.8466 134.995L81.4066 135.171ZM57.4626 131.979C53.4226 131.107 50.0306 132.875 48.2146 136.619C48.2054 136.652 48.2089 136.687 48.2245 136.717C48.24 136.746 48.2666 136.769 48.2997 136.781C48.3328 136.794 48.3704 136.795 48.4059 136.784C48.4415 136.773 48.4728 136.752 48.4945 136.723C50.1959 133.24 53.0012 131.76 56.9106 132.283C57.0012 132.299 57.0839 132.283 57.1586 132.235L57.4786 132.051C57.5319 132.019 57.5266 131.995 57.4626 131.979ZM95.1812 154.932C95.2756 153.188 94.1189 151.449 91.9655 150.096C89.8121 148.742 86.8384 147.887 83.6986 147.717C82.1439 147.632 80.5953 147.719 79.141 147.972C77.6868 148.224 76.3555 148.638 75.2231 149.189C74.0907 149.74 73.1794 150.417 72.5413 151.183C71.9032 151.948 71.5506 152.786 71.5039 153.65C71.4095 155.393 72.5662 157.133 74.7196 158.486C76.873 159.84 79.8467 160.695 82.9865 160.865C84.5412 160.95 86.0898 160.863 87.5441 160.61C88.9983 160.358 90.3296 159.944 91.462 159.393C92.5944 158.842 93.5057 158.165 94.1438 157.399C94.7819 156.634 95.1344 155.795 95.1812 154.932Z" fill="#F9B694"/>
<path d="M101.078 97.8269C106.358 96.7869 107.974 106.427 102.014 107.355C95.7155 108.342 89.4248 109.424 83.1421 110.603C82.2035 110.779 81.4781 110.758 80.9661 110.539C80.7911 110.465 80.6349 110.353 80.5088 110.211C80.3827 110.069 80.2898 109.9 80.237 109.717C80.1841 109.534 80.1726 109.341 80.2033 109.152C80.2339 108.964 80.3059 108.784 80.4141 108.627C84.3101 103.003 94.8061 99.0589 101.078 97.8269Z" fill="#160807"/>
<path d="M158.695 98.0511C163.111 98.4911 178.11 104.427 178.918 109.483C178.942 109.631 178.93 109.783 178.883 109.926C178.837 110.068 178.757 110.198 178.651 110.304C178.545 110.41 178.415 110.489 178.273 110.536C178.13 110.582 177.979 110.594 177.831 110.571C171.319 109.558 164.953 108.632 158.735 107.795C155.247 107.331 152.862 106.091 153.262 102.251C153.588 99.1258 155.399 97.7258 158.695 98.0511Z" fill="#160807"/>
<path d="M179.166 137.475C180.51 131.059 177.238 125.779 171.43 123.075L169.174 121.563C169.011 121.453 168.816 121.4 168.62 121.415C168.423 121.43 168.238 121.51 168.093 121.644C167.949 121.777 167.853 121.956 167.823 122.15C167.793 122.345 167.829 122.544 167.926 122.715C170.166 126.739 172.27 130.043 169.51 134.443C167.414 137.787 163.43 138.563 160.022 136.779C157.67 135.547 156.942 133.139 156.854 130.651C156.844 130.352 156.732 130.31 156.518 130.523L156.19 130.843C156.03 131.008 155.958 131.203 155.974 131.427L156.526 138.779C154.214 135.539 154.838 131.627 155.278 128.067C155.291 127.95 155.26 127.833 155.192 127.738C155.123 127.643 155.021 127.576 154.906 127.552C154.791 127.528 154.671 127.548 154.57 127.608C154.468 127.668 154.393 127.763 154.358 127.875L152.086 135.523C149.502 126.915 154.454 117.547 164.278 118.019C171.857 118.382 177.526 121.792 181.286 128.251C181.347 128.355 181.441 128.434 181.554 128.475C181.666 128.516 181.79 128.516 181.902 128.475L183.19 128.011C183.344 127.955 183.514 127.957 183.669 128.015C183.824 128.074 183.955 128.186 184.038 128.331C184.369 128.912 184.278 129.502 183.766 130.099C183.601 130.291 183.396 130.43 183.15 130.515C181.865 130.942 181.534 131.875 182.158 133.315C182.215 133.443 182.228 133.586 182.195 133.723C182.162 133.859 182.084 133.98 181.974 134.067C180.758 135.054 179.822 136.19 179.166 137.475ZM161.724 122.921C161.53 122.653 161.275 122.433 160.976 122.272C160.677 122.112 160.338 122.015 159.979 121.986C159.62 121.957 159.249 121.998 158.885 122.105C158.522 122.213 158.174 122.385 157.861 122.612C157.229 123.071 156.78 123.726 156.611 124.433C156.442 125.14 156.568 125.841 156.961 126.381C157.155 126.649 157.409 126.87 157.709 127.03C158.008 127.19 158.347 127.288 158.706 127.316C159.064 127.345 159.436 127.304 159.799 127.197C160.163 127.089 160.511 126.917 160.824 126.69C161.455 126.231 161.905 125.576 162.074 124.869C162.243 124.162 162.117 123.461 161.724 122.921Z" fill="#010100"/>
<path d="M108.863 134.571L106.431 128.299C106.395 128.204 106.326 128.126 106.237 128.079C106.148 128.032 106.045 128.02 105.946 128.044C105.847 128.069 105.76 128.128 105.701 128.212C105.641 128.296 105.613 128.398 105.623 128.499C106.175 133.707 106.559 138.555 101.095 141.227C104.369 138.379 105.543 134.92 104.615 130.851C104.513 130.414 104.385 130.406 104.231 130.827C99.2066 144.347 85.4226 134.443 92.4466 123.643C92.4967 123.568 92.5252 123.48 92.5292 123.39C92.5331 123.299 92.5123 123.209 92.4689 123.129C92.4256 123.049 92.3612 122.982 92.2827 122.934C92.2042 122.887 92.1143 122.861 92.0226 122.859C91.4572 122.854 91.1586 122.55 91.1266 121.947C91.1159 121.707 90.9906 121.598 90.7506 121.619C90.3506 121.656 90.0626 121.776 89.8866 121.979C84.0732 124.603 81.2466 129 81.4066 135.171L78.8466 134.995C78.7811 134.99 78.7174 134.972 78.6593 134.941C78.6011 134.911 78.5499 134.868 78.5086 134.816C78.4674 134.765 78.4371 134.705 78.4195 134.641C78.402 134.576 78.3976 134.509 78.4066 134.443L78.8386 131.323C78.8759 131.051 78.7613 130.883 78.4946 130.819C77.6839 130.616 77.0919 130.136 76.7186 129.379C76.6615 129.266 76.6421 129.137 76.6629 129.011C76.6838 128.886 76.744 128.77 76.8347 128.681C76.9255 128.592 77.0422 128.535 77.168 128.516C77.2938 128.498 77.4221 128.52 77.5346 128.579C78.1586 128.907 78.7106 128.651 79.0786 128.043C87.4546 114.387 111.079 113.371 108.863 134.571ZM103.885 126.72C104.288 126.173 104.423 125.464 104.261 124.748C104.1 124.032 103.654 123.368 103.022 122.903C102.39 122.437 101.624 122.207 100.892 122.264C100.16 122.321 99.523 122.66 99.1201 123.207C98.7172 123.753 98.5818 124.462 98.7437 125.178C98.9056 125.894 99.3516 126.558 99.9835 127.024C100.615 127.49 101.381 127.719 102.113 127.662C102.845 127.605 103.482 127.266 103.885 126.72Z" fill="#010100"/>
<path d="M101.094 141.227C95.3743 144.907 88.5023 140.939 86.9183 134.651C85.6863 129.787 86.7076 125.696 89.9823 122.379C90.0516 122.304 90.0623 122.224 90.0143 122.139C89.9663 122.059 89.9236 122.006 89.8863 121.979C90.0623 121.776 90.3503 121.656 90.7503 121.619C90.9903 121.598 91.1156 121.707 91.1263 121.947C91.1583 122.55 91.4569 122.854 92.0223 122.859C92.114 122.861 92.2039 122.887 92.2824 122.934C92.3609 122.982 92.4252 123.049 92.4686 123.129C92.512 123.209 92.5328 123.299 92.5289 123.39C92.5249 123.48 92.4964 123.568 92.4463 123.643C85.4223 134.443 99.2063 144.347 104.23 130.827C104.385 130.406 104.513 130.414 104.614 130.851C105.542 134.92 104.369 138.379 101.094 141.227Z" fill="#6D3521"/>
<path d="M171.43 123.075C174.774 127.048 175.566 131.222 173.806 135.595C170.934 142.747 161.342 145.675 156.526 138.779L155.974 131.427C155.958 131.203 156.03 131.008 156.19 130.843L156.518 130.523C156.732 130.31 156.844 130.352 156.854 130.651C156.942 133.139 157.67 135.547 160.022 136.779C163.43 138.563 167.414 137.787 169.51 134.443C172.27 130.043 170.166 126.739 167.926 122.715C167.829 122.544 167.793 122.345 167.823 122.15C167.853 121.956 167.949 121.777 168.093 121.644C168.238 121.51 168.423 121.43 168.62 121.415C168.816 121.4 169.011 121.453 169.174 121.563L171.43 123.075Z" fill="#6D3521"/>
<path d="M89.8863 121.979C89.9237 122.006 89.9663 122.059 90.0143 122.139C90.0623 122.224 90.0517 122.304 89.9823 122.379C86.7077 125.696 85.6863 129.787 86.9183 134.651C88.5023 140.939 95.3743 144.907 101.094 141.227C106.558 138.555 106.174 133.707 105.622 128.499C105.613 128.397 105.641 128.295 105.7 128.212C105.76 128.128 105.847 128.069 105.946 128.044C106.044 128.02 106.148 128.032 106.237 128.079C106.326 128.126 106.395 128.204 106.43 128.299L108.862 134.571C105.574 151.027 85.8463 150.003 81.4063 135.171C81.2463 129 84.073 124.603 89.8863 121.979Z" fill="#FEFDFE"/>
<path d="M160.824 126.69C162.139 125.734 162.542 124.046 161.724 122.92C160.906 121.794 159.177 121.656 157.861 122.612C156.546 123.568 156.143 125.255 156.961 126.381C157.779 127.507 159.508 127.645 160.824 126.69Z" fill="#FEFDFE"/>
<path d="M99.9833 127.024C101.299 127.994 103.046 127.858 103.885 126.72C104.724 125.582 104.337 123.873 103.022 122.903C101.706 121.932 99.959 122.069 99.12 123.207C98.281 124.345 98.6675 126.053 99.9833 127.024Z" fill="#FEFDFE"/>
<path d="M171.43 123.075C177.238 125.779 180.51 131.059 179.166 137.475C173.094 149.379 155.606 149.795 152.086 135.523L154.358 127.875C154.393 127.763 154.468 127.667 154.57 127.608C154.671 127.548 154.791 127.528 154.906 127.552C155.021 127.576 155.123 127.642 155.192 127.738C155.261 127.833 155.292 127.95 155.278 128.067C154.838 131.627 154.214 135.539 156.526 138.779C161.342 145.675 170.934 142.747 173.806 135.595C175.566 131.222 174.774 127.048 171.43 123.075Z" fill="#FEFDFE"/>
<path d="M48.2144 136.619C50.0304 132.875 53.4225 131.107 57.4625 131.979C57.5265 131.995 57.5318 132.019 57.4784 132.051L57.1584 132.235C57.0838 132.283 57.0011 132.299 56.9104 132.283C53.0011 131.76 50.1958 133.24 48.4944 136.723C48.4727 136.752 48.4414 136.773 48.4058 136.784C48.3703 136.795 48.3327 136.794 48.2996 136.781C48.2665 136.769 48.2399 136.746 48.2244 136.716C48.2088 136.687 48.2053 136.652 48.2144 136.619Z" fill="#DB926F"/>
<path d="M201.686 132.435C205.078 131.291 208.542 132.555 210.462 135.555C210.469 135.569 210.471 135.585 210.467 135.599C210.463 135.614 210.454 135.627 210.441 135.636C210.429 135.644 210.413 135.648 210.398 135.647C210.383 135.645 210.369 135.638 210.358 135.627C208.092 132.854 205.212 131.83 201.718 132.555C201.009 132.705 200.998 132.665 201.686 132.435Z" fill="#DB926F"/>
<path d="M130.742 153.891C126.598 153.224 124.42 151.024 124.206 147.291C124.199 147.188 124.225 147.085 124.28 146.997C124.335 146.909 124.416 146.841 124.513 146.803C124.609 146.765 124.715 146.758 124.815 146.784C124.915 146.81 125.005 146.867 125.07 146.947C128.998 151.587 133.614 151.955 137.158 146.331C138.71 146.315 138.718 147.987 138.262 149.043C136.844 152.323 134.337 153.939 130.742 153.891Z" fill="#DB926F"/>
<path d="M175.107 160.202C181.823 159.52 186.98 156.127 186.624 152.624C186.268 149.12 180.535 146.833 173.818 147.516C167.102 148.198 161.945 151.591 162.301 155.094C162.657 158.598 168.39 160.885 175.107 160.202Z" fill="#D56860"/>
<path d="M82.9864 160.865C89.5247 161.219 94.9845 158.563 95.1811 154.932C95.3778 151.301 90.2368 148.071 83.6985 147.717C77.1602 147.362 71.7005 150.019 71.5038 153.65C71.3072 157.281 76.4481 160.511 82.9864 160.865Z" fill="#F38270"/>
<path d="M150.542 165.539C146.814 172.803 128.798 172.067 122.11 171.019C116.702 170.179 113.294 169.779 110.038 166.195C117.201 167.198 124.134 167.68 130.838 167.643C137.206 167.616 143.419 166.822 149.478 165.259C149.835 165.168 150.19 165.262 150.542 165.539Z" fill="#FEFDFE"/>
<path d="M131.246 175.435C126.1 175.494 120.718 174.824 115.102 173.427C111.604 172.558 109.334 170.534 108.294 167.355C108.076 166.688 108.305 166.27 108.982 166.099C109.324 166.019 109.676 166.051 110.038 166.195C113.294 169.779 116.702 170.179 122.11 171.019C128.798 172.067 146.814 172.803 150.542 165.539C150.553 165.464 150.598 165.4 150.678 165.347C150.742 165.304 150.819 165.284 150.896 165.29C150.973 165.295 151.046 165.327 151.102 165.379C151.854 166.088 151.985 166.995 151.494 168.099C148.486 174.827 137.846 175.251 131.246 175.435Z" fill="#A84342"/>
<path d="M143.926 192.923L154.694 196.203C154.742 196.523 154.66 196.784 154.446 196.987L149.534 195.603C149.413 195.569 149.285 195.569 149.163 195.601C149.04 195.633 148.928 195.698 148.838 195.787C148.753 195.867 148.7 195.966 148.678 196.083C148.653 196.224 148.594 196.356 148.506 196.467C148.418 196.579 148.304 196.667 148.174 196.723C142.366 199.363 136.638 200.184 130.99 199.187L117.038 194.563C116.929 194.528 116.836 194.453 116.778 194.354C116.719 194.255 116.699 194.138 116.72 194.025C116.742 193.912 116.804 193.811 116.895 193.741C116.986 193.67 117.1 193.636 117.214 193.643L130.91 194.395L143.926 192.923Z" fill="#DB926F"/>
<path d="M154.446 196.987C154.548 197.302 154.542 197.576 154.43 197.811C149.865 207.208 142.097 211.878 131.126 211.819C130.428 207.696 130.382 203.486 130.99 199.187C136.638 200.184 142.366 199.363 148.174 196.723C148.304 196.667 148.418 196.579 148.506 196.467C148.594 196.355 148.653 196.223 148.678 196.083C148.7 195.966 148.753 195.867 148.838 195.787C148.928 195.697 149.04 195.633 149.163 195.601C149.285 195.569 149.413 195.569 149.534 195.603L154.446 196.987Z" fill="#EEA57F"/>
<path d="M154.694 196.203C167.324 198.443 179.294 202.579 190.606 208.611C183.51 213.507 178.182 217.379 169.094 220.811C136.63 233.067 102.15 228.475 74.0703 208.091C84.5876 202.075 95.857 198.187 107.878 196.427C112.214 206.672 119.964 211.803 131.126 211.819C142.097 211.878 149.865 207.208 154.43 197.811C154.542 197.576 154.548 197.302 154.446 196.987C154.66 196.784 154.742 196.523 154.694 196.203Z" fill="#4D7999"/>
<path d="M74.0702 208.091C102.15 228.475 136.63 233.067 169.094 220.811C178.182 217.379 183.51 213.507 190.606 208.611L196.326 211.507C196.54 211.614 196.569 211.76 196.414 211.947C163.302 251.843 101.23 248.131 67.1822 212.235C67.1221 212.171 67.078 212.093 67.0534 212.009C67.0289 211.924 67.0246 211.835 67.041 211.748C67.0574 211.662 67.0939 211.581 67.1476 211.511C67.2014 211.441 67.2708 211.385 67.3502 211.347L74.0702 208.091Z" fill="#D1DEDE"/>
</svg>
