<svg width="1191" height="196" viewBox="0 0 1191 196" fill="none" xmlns="http://www.w3.org/2000/svg">
<path d="M190.594 85.0854L190.544 85.0387L190.585 85.0793C189.708 84.1866 188.724 83.3785 187.641 82.6584C187.268 82.6553 186.892 82.5803 186.532 82.4237C185.95 82.1761 185.496 81.7596 185.186 81.2615C183.454 80.4381 181.64 79.9087 179.802 79.6487C178.195 79.4267 177.087 77.9452 177.312 76.3416C177.534 74.7411 179.016 73.6263 180.613 73.8484C182.445 74.1087 184.265 74.5784 186.028 75.2579C186.307 73.98 186.464 72.6773 186.464 71.3555C186.461 68.474 185.784 65.5612 184.34 62.8272V62.8241C182.69 59.6923 180.285 57.2527 177.454 55.5771C174.976 54.1113 172.183 53.2435 169.307 53.0524C169.097 55.6583 168.474 58.2736 167.384 60.7979C166.745 62.2824 165.023 62.9711 163.535 62.3322C162.051 61.6933 161.362 59.971 162.001 58.483C163.044 56.0529 163.535 53.5409 163.542 51.0576C163.542 50.7004 163.526 50.3467 163.51 49.9926C163.316 46.5542 162.17 43.2249 160.228 40.3967C158.283 37.5654 155.562 35.2413 152.17 33.7824C149.74 32.7331 147.222 32.2412 144.741 32.2412C139.99 32.2412 135.386 34.0703 131.916 37.2989C132.567 39.5101 132.927 41.8464 132.927 44.2642C132.927 45.8801 131.615 47.1893 129.999 47.1893C128.38 47.1893 127.067 45.8801 127.067 44.2642C127.067 41.8904 126.631 39.6414 125.835 37.5497L125.836 37.5524C124.486 34.0198 122.095 30.991 119.04 28.8491C115.986 26.7069 112.29 25.4543 108.27 25.4543C104.772 25.4543 101.517 26.3999 98.7193 28.0536C96.4814 29.3751 94.5474 31.1575 93.0315 33.2557C95.9956 37.3242 97.745 42.3475 97.7435 47.7593C97.7435 49.3755 96.4328 50.6844 94.815 50.6844C93.1942 50.6844 91.8834 49.3752 91.8834 47.7593C91.8819 42.9986 90.1309 38.6706 87.225 35.3631L87.2204 35.36C83.7644 31.4201 78.7219 28.9525 73.077 28.949C69.1543 28.9521 65.5371 30.1392 62.5225 32.1846C59.5128 34.2296 57.1218 37.1267 55.7046 40.5245C54.7851 42.7452 54.2686 45.1945 54.2686 47.7593C54.2686 49.3755 52.9594 50.6844 51.3401 50.6844C49.7224 50.6844 48.4105 49.3752 48.4105 47.7593C48.4105 45.382 48.7565 43.0802 49.3828 40.9004C47.1763 40.0047 44.7914 39.5158 42.336 39.5158C40.9472 39.5158 39.5346 39.6754 38.1205 39.9982C33.9505 40.9567 30.4504 43.2115 27.9044 46.2525C26.0646 48.448 24.7458 51.0538 24.0567 53.8598C30.1155 53.9727 36.1662 56.309 40.8312 60.8783C41.9865 62.0087 42.0072 63.8627 40.8748 65.0184C39.7444 66.1737 37.8889 66.1929 36.7328 65.0651C33.067 61.4793 28.33 59.6973 23.5759 59.6912C22.7241 59.6912 21.8751 59.754 21.0325 59.8634L21.0218 59.8665H21.0172H21.0141C17.0221 60.4116 13.1844 62.2281 10.1338 65.3346C6.54609 69.0019 4.7687 73.7281 4.76755 78.4854C4.76755 81.2133 5.35784 83.9443 6.53538 86.4624C7.46408 88.4481 8.75416 90.302 10.414 91.9305L10.4171 91.9336C12.3044 93.7875 14.4776 95.15 16.7936 96.0488C18.3015 96.628 19.0514 98.3258 18.4673 99.8352C17.8831 101.345 16.1872 102.096 14.6793 101.511C11.6444 100.339 8.78019 98.5386 6.31105 96.1146C5.22884 95.0497 4.26109 93.9096 3.41239 92.7103C1.1982 95.8811 0 99.674 0 103.532C0.00153125 106.523 0.714328 109.546 2.22682 112.38C3.92727 115.556 6.38876 118.03 9.27976 119.724C11.5705 121.068 14.1277 121.904 16.7603 122.198L16.7553 122.029C16.7553 120.479 16.8996 118.957 17.1718 117.485C17.4662 115.894 18.9948 114.845 20.5842 115.135C22.1767 115.427 23.2275 116.961 22.9347 118.552C22.7249 119.68 22.6135 120.842 22.6135 122.029C22.6135 122.48 22.6307 122.931 22.6621 123.382C22.6966 123.861 22.7467 124.318 22.8191 124.754L22.8221 124.775L22.8252 124.797C24.1658 133.995 32.1065 140.858 41.4096 140.858C41.8544 140.858 42.3054 140.839 42.7582 140.807H42.7628C46.8876 140.51 50.591 138.916 53.5225 136.442C55.5928 134.694 57.2745 132.517 58.4348 130.062C59.1254 128.599 60.8729 127.973 62.3357 128.665C63.798 129.357 64.4227 131.102 63.7322 132.564C62.4838 135.205 60.7757 137.585 58.7135 139.621C59.8657 143.153 62.0283 146.201 64.8473 148.459C68.087 151.049 72.1613 152.571 76.5587 152.571C77.0035 152.571 77.451 152.558 77.9085 152.524H77.9131C80.7034 152.321 83.2843 151.525 85.572 150.275C85.2118 148.587 85.0127 146.861 85.0127 145.12C85.0127 141.525 85.8067 137.867 87.47 134.422C88.1713 132.959 89.9238 132.351 91.38 133.053C92.8362 133.755 93.4503 135.505 92.747 136.962C91.4723 139.612 90.8709 142.383 90.8709 145.12C90.8709 147.04 91.1687 148.944 91.7399 150.761L91.7414 150.764C93.2416 155.549 96.6334 159.721 101.516 162.073C104.154 163.347 106.926 163.949 109.665 163.949C114.006 163.949 118.256 162.43 121.615 159.674L121.625 159.668C123.669 157.983 125.388 155.853 126.616 153.31L126.619 153.3C127.768 150.923 128.367 148.43 128.476 145.943C128.548 144.328 129.917 143.075 131.536 143.144C133.149 143.219 134.401 144.584 134.332 146.201C134.185 149.458 133.399 152.746 131.893 155.853L131.896 155.85C130.684 158.361 129.099 160.576 127.238 162.461C130.693 167.428 136.44 170.548 142.654 170.544C143.809 170.544 144.981 170.435 146.164 170.216C150.684 169.36 154.498 166.974 157.21 163.676C159.92 160.379 161.495 156.187 161.495 151.762C161.495 151.624 161.492 151.49 161.488 151.361V151.343C161.473 150.341 161.366 149.301 161.166 148.255C160.699 145.765 159.747 143.507 158.448 141.502C156.556 139.833 154.445 137.66 152.463 135.236C150.355 132.652 148.401 129.83 147.091 126.983C146.23 125.076 145.616 123.156 145.604 121.124C145.604 120.225 145.739 119.295 146.067 118.396C146.399 117.497 146.938 116.633 147.652 115.925V115.928C148.795 114.782 150.649 114.782 151.793 115.928C152.936 117.068 152.936 118.928 151.793 120.068C151.68 120.187 151.624 120.275 151.567 120.422C151.511 120.573 151.464 120.795 151.464 121.123C151.451 121.859 151.756 123.112 152.419 124.543C153.074 125.975 154.048 127.581 155.191 129.169C157.462 132.351 160.409 135.477 162.626 137.375L162.927 137.635L163.15 137.96C164.966 140.663 166.288 143.773 166.927 147.171V147.174C167.018 147.66 167.077 148.142 167.139 148.63C167.428 148.643 167.722 148.668 168.016 148.668C171.734 148.665 175.47 147.566 178.759 145.254C181.374 143.419 183.363 141.055 184.712 138.402C186.062 135.746 186.764 132.805 186.761 129.846C186.761 127.074 186.141 124.296 184.888 121.706C183.739 122.079 182.567 122.373 181.374 122.58C179.78 122.856 178.264 121.784 177.985 120.187C177.716 118.593 178.787 117.081 180.381 116.805C185.571 115.909 190.315 112.89 193.259 108.039C195.12 104.985 195.997 101.625 196 98.2955C196 93.4166 194.099 88.631 190.594 85.0854ZM56.3454 62.7242C59.1484 59.4167 62.8658 57.0647 66.859 55.5269C70.8601 53.9892 75.1583 53.2469 79.277 53.2469C83.2874 53.25 87.1331 53.9421 90.4077 55.4454C91.875 56.1222 92.517 57.8632 91.8402 59.3325C91.1607 60.804 89.4196 61.4433 87.9508 60.7665C85.6849 59.7111 82.5952 59.1005 79.277 59.1036C75.8696 59.1036 72.2272 59.736 68.9652 60.995C65.6971 62.2476 62.8314 64.1238 60.8163 66.5072V66.5102C59.7735 67.741 57.9241 67.8979 56.6884 66.8517C55.4542 65.8058 55.2996 63.958 56.3454 62.7242ZM123.031 131.995C119.626 132.001 116.534 131.616 113.71 130.961C113.788 131.766 113.842 132.659 113.842 133.614C113.842 135.527 113.638 137.71 113.032 140.003C112.428 142.293 111.415 144.698 109.816 147.009C108.895 148.337 107.071 148.669 105.738 147.748C104.409 146.828 104.076 145.005 104.999 143.671C106.173 141.973 106.913 140.222 107.368 138.507C107.822 136.79 107.983 135.112 107.983 133.615C107.985 131.55 107.675 129.837 107.451 128.873C106.021 128.225 104.692 127.492 103.464 126.69C98.5612 123.508 95.279 119.318 93.2137 115.324C91.834 112.659 90.985 110.072 90.539 107.829C90.2821 106.552 90.1554 105.383 90.1554 104.328C90.1554 102.709 91.4658 101.397 93.0866 101.397C94.7044 101.397 96.0151 102.709 96.0151 104.328C96.0101 105.187 96.1935 106.608 96.6586 108.225C97.1203 109.85 97.858 111.701 98.9245 113.561C101.062 117.288 104.46 121.027 109.696 123.455C113.196 125.077 117.551 126.133 123.031 126.136C124.648 126.136 125.961 127.448 125.961 129.064C125.961 130.683 124.648 131.995 123.031 131.995ZM143.657 110.601C143.053 112.101 141.349 112.834 139.846 112.23C138.349 111.632 137.619 109.937 138.211 108.434V108.43L138.23 108.387C138.248 108.336 138.276 108.249 138.317 108.13C138.396 107.898 138.505 107.529 138.615 107.071C138.84 106.147 139.063 104.841 139.063 103.407L139.053 103.197C135.041 104.563 131.302 105.186 127.862 105.186C122.663 105.192 118.168 103.767 114.507 101.603C110.84 99.439 107.99 96.5732 105.86 93.67C103.439 90.3659 100.261 87.4091 96.623 85.3109C92.9806 83.2123 88.9028 81.9663 84.5713 81.9632C80.7692 81.9724 76.7401 82.9183 72.5231 85.2267C68.5284 87.4252 65.9494 90.3502 64.2876 93.5575C62.6358 96.7616 61.9452 100.275 61.9467 103.467C61.9387 106.426 62.5592 109.101 63.3731 110.795C64.0652 112.261 63.4405 114.006 61.9777 114.701C60.5169 115.39 58.769 114.77 58.0753 113.304C56.8071 110.602 56.0958 107.207 56.0882 103.467C56.0897 99.756 56.8289 95.7035 58.6316 91.8229C54.9998 92.6467 51.6253 93.0131 48.5452 93.0096C46.8838 93.0127 45.3196 92.8971 43.8286 92.7153C43.7252 93.1034 43.5453 93.4794 43.2743 93.8086L43.2727 93.8113H43.2697L43.2352 93.8553C43.2038 93.8993 43.1491 93.9682 43.0771 94.0589C42.9343 94.2469 42.7215 94.5382 42.4539 94.9172C41.9214 95.6717 41.1811 96.793 40.3806 98.2056C38.777 101.025 36.956 104.992 36.0648 109.455C35.7501 111.043 34.2047 112.074 32.6183 111.754C31.0319 111.437 30.0033 109.897 30.321 108.306C31.383 103.006 33.4685 98.5126 35.2834 95.3146C36.2275 93.6512 37.0949 92.3455 37.7296 91.4497C35.3401 90.7327 33.2714 89.8557 31.5851 88.9629C27.7294 86.9145 25.7143 84.8569 25.5512 84.6911C24.4284 83.5258 24.4633 81.6723 25.6266 80.551C26.7885 79.4298 28.6363 79.4642 29.7572 80.6169L29.7602 80.6138L29.7886 80.6421L29.9689 80.8144C30.1411 80.971 30.4213 81.2121 30.8034 81.513C31.5675 82.1171 32.7485 82.947 34.3268 83.7804C37.4881 85.4529 42.2143 87.1473 48.5452 87.1538C52.9897 87.1538 58.2419 86.3047 64.3362 83.9623C65.8832 82.5248 67.659 81.2091 69.7071 80.0913C74.7166 77.3385 79.7731 76.1043 84.5709 76.1077C90.0425 76.1077 95.1412 77.6956 99.5492 80.2386C103.962 82.7878 107.706 86.2832 110.584 90.204C112.33 92.5843 114.634 94.8797 117.481 96.5556C120.335 98.2312 123.722 99.3241 127.861 99.3276C130.691 99.3276 133.891 98.8047 137.502 97.536C136.629 96.1143 135.31 94.7453 133.146 93.5115C131.737 92.716 131.242 90.9245 132.037 89.5184C132.833 88.1089 134.621 87.6139 136.028 88.4067C139.495 90.361 141.816 92.9476 143.159 95.6476C144.515 98.3472 144.922 101.081 144.922 103.408C144.91 107.466 143.732 110.391 143.657 110.601ZM142.561 74.7066C135.715 74.7097 129.726 72.8618 124.881 70.065C124.204 71.0171 123.286 72.2011 122.106 73.5008C119.457 76.4071 115.558 79.8241 110.345 81.6968C108.821 82.2419 107.146 81.4464 106.601 79.9213C106.057 78.3962 106.851 76.7233 108.375 76.1785C112.216 74.8161 115.432 72.1165 117.665 69.6768C118.694 68.5621 119.499 67.5159 120.083 66.7016C117.187 64.2589 114.908 61.4778 113.348 58.6216C111.857 55.8719 110.996 53.0467 110.988 50.2908C110.988 48.675 112.299 47.3658 113.916 47.3658C115.534 47.3658 116.846 48.675 116.846 50.2908C116.839 51.7723 117.358 53.7484 118.492 55.8186C119.621 57.895 121.335 60.0621 123.569 61.9976C128.041 65.8748 134.508 68.8469 142.561 68.8469C144.177 68.8469 145.489 70.1592 145.489 71.7781C145.489 73.3978 144.177 74.7066 142.561 74.7066ZM165.655 115.96C164.622 117.206 162.774 117.381 161.527 116.351C160.281 115.321 160.106 113.473 161.136 112.226C164.324 108.343 165.508 104.441 165.518 100.698C165.524 97.2937 164.487 94.0023 162.852 91.2368C161.227 88.4649 158.997 86.2542 156.849 85.023C155.418 84.1931 154.055 83.8141 152.978 83.8172C151.358 83.8172 150.046 82.508 150.046 80.8887C150.046 79.2728 151.359 77.9605 152.978 77.9605C154.763 77.9605 156.504 78.3962 158.158 79.1254C159.808 79.852 161.374 80.8764 162.827 82.129C165.725 84.6345 168.189 88.0511 169.733 92.0507C170.763 94.7162 171.381 97.6413 171.381 100.698C171.39 105.728 169.674 111.108 165.655 115.96Z" fill="#D97706"/>
<path d="M298.25 109.125H275.625V92.1875H298.25C301.333 92.1875 303.833 91.6667 305.75 90.625C307.667 89.5833 309.062 88.1458 309.938 86.3125C310.854 84.4375 311.312 82.3333 311.312 80C311.312 77.5 310.854 75.1875 309.938 73.0625C309.062 70.9375 307.667 69.2292 305.75 67.9375C303.833 66.6042 301.333 65.9375 298.25 65.9375H283.875V140H261.938V49H298.25C305.542 49 311.812 50.3333 317.062 53C322.354 55.6667 326.417 59.3333 329.25 64C332.083 68.625 333.5 73.9167 333.5 79.875C333.5 85.75 332.083 90.875 329.25 95.25C326.417 99.625 322.354 103.042 317.062 105.5C311.812 107.917 305.542 109.125 298.25 109.125ZM345.312 49H381.125C388.125 49 394.208 50.0417 399.375 52.125C404.542 54.2083 408.521 57.2917 411.312 61.375C414.146 65.4583 415.562 70.5 415.562 76.5C415.562 81.7083 414.75 86.0625 413.125 89.5625C411.5 93.0625 409.229 95.9583 406.312 98.25C403.438 100.5 400.083 102.354 396.25 103.812L389.062 107.875H359L358.875 90.9375H381.125C383.917 90.9375 386.229 90.4375 388.062 89.4375C389.896 88.4375 391.271 87.0208 392.188 85.1875C393.146 83.3125 393.625 81.0833 393.625 78.5C393.625 75.875 393.146 73.625 392.188 71.75C391.229 69.875 389.812 68.4375 387.938 67.4375C386.104 66.4375 383.833 65.9375 381.125 65.9375H367.25V140H345.312V49ZM395.125 140L375 99.75L398.25 99.625L418.625 139.062V140H395.125ZM505.812 92.6875V96.375C505.812 103.333 504.833 109.583 502.875 115.125C500.958 120.625 498.229 125.333 494.688 129.25C491.146 133.125 486.958 136.104 482.125 138.188C477.292 140.229 471.958 141.25 466.125 141.25C460.25 141.25 454.875 140.229 450 138.188C445.167 136.104 440.958 133.125 437.375 129.25C433.833 125.333 431.083 120.625 429.125 115.125C427.208 109.583 426.25 103.333 426.25 96.375V92.6875C426.25 85.7292 427.208 79.4792 429.125 73.9375C431.083 68.3958 433.812 63.6875 437.312 59.8125C440.854 55.8958 445.042 52.9167 449.875 50.875C454.75 48.7917 460.125 47.75 466 47.75C471.833 47.75 477.167 48.7917 482 50.875C486.875 52.9167 491.083 55.8958 494.625 59.8125C498.167 63.6875 500.917 68.3958 502.875 73.9375C504.833 79.4792 505.812 85.7292 505.812 92.6875ZM483.562 96.375V92.5625C483.562 88.0625 483.167 84.1042 482.375 80.6875C481.625 77.2292 480.5 74.3333 479 72C477.5 69.6667 475.646 67.9167 473.438 66.75C471.271 65.5417 468.792 64.9375 466 64.9375C463.083 64.9375 460.542 65.5417 458.375 66.75C456.208 67.9167 454.396 69.6667 452.938 72C451.479 74.3333 450.375 77.2292 449.625 80.6875C448.917 84.1042 448.562 88.0625 448.562 92.5625V96.375C448.562 100.833 448.917 104.792 449.625 108.25C450.375 111.667 451.479 114.562 452.938 116.938C454.438 119.312 456.271 121.104 458.438 122.312C460.646 123.521 463.208 124.125 466.125 124.125C468.917 124.125 471.396 123.521 473.562 122.312C475.729 121.104 477.542 119.312 479 116.938C480.5 114.562 481.625 111.667 482.375 108.25C483.167 104.792 483.562 100.833 483.562 96.375ZM553.375 111.438V49H575.25V111.438C575.25 117.521 573.854 122.792 571.062 127.25C568.312 131.708 564.562 135.167 559.812 137.625C555.104 140.042 549.812 141.25 543.938 141.25C537.854 141.25 532.438 140.229 527.688 138.188C522.979 136.146 519.271 133 516.562 128.75C513.896 124.5 512.562 119.083 512.562 112.5H534.562C534.562 115.583 534.917 118 535.625 119.75C536.333 121.458 537.375 122.667 538.75 123.375C540.167 124.042 541.896 124.375 543.938 124.375C545.938 124.375 547.625 123.875 549 122.875C550.417 121.833 551.5 120.354 552.25 118.438C553 116.479 553.375 114.146 553.375 111.438ZM651.812 123.125V140H603.312V123.125H651.812ZM611.125 49V140H589.188V49H611.125ZM645.562 85.125V101.438H603.312V85.125H645.562ZM652 49V65.9375H603.312V49H652ZM706.125 49V140H684.188V49H706.125ZM733.5 49V65.9375H657.438V49H733.5ZM818.062 92.6875V96.375C818.062 103.333 817.083 109.583 815.125 115.125C813.208 120.625 810.479 125.333 806.938 129.25C803.396 133.125 799.208 136.104 794.375 138.188C789.542 140.229 784.208 141.25 778.375 141.25C772.5 141.25 767.125 140.229 762.25 138.188C757.417 136.104 753.208 133.125 749.625 129.25C746.083 125.333 743.333 120.625 741.375 115.125C739.458 109.583 738.5 103.333 738.5 96.375V92.6875C738.5 85.7292 739.458 79.4792 741.375 73.9375C743.333 68.3958 746.062 63.6875 749.562 59.8125C753.104 55.8958 757.292 52.9167 762.125 50.875C767 48.7917 772.375 47.75 778.25 47.75C784.083 47.75 789.417 48.7917 794.25 50.875C799.125 52.9167 803.333 55.8958 806.875 59.8125C810.417 63.6875 813.167 68.3958 815.125 73.9375C817.083 79.4792 818.062 85.7292 818.062 92.6875ZM795.812 96.375V92.5625C795.812 88.0625 795.417 84.1042 794.625 80.6875C793.875 77.2292 792.75 74.3333 791.25 72C789.75 69.6667 787.896 67.9167 785.688 66.75C783.521 65.5417 781.042 64.9375 778.25 64.9375C775.333 64.9375 772.792 65.5417 770.625 66.75C768.458 67.9167 766.646 69.6667 765.188 72C763.729 74.3333 762.625 77.2292 761.875 80.6875C761.167 84.1042 760.812 88.0625 760.812 92.5625V96.375C760.812 100.833 761.167 104.792 761.875 108.25C762.625 111.667 763.729 114.562 765.188 116.938C766.688 119.312 768.521 121.104 770.688 122.312C772.896 123.521 775.458 124.125 778.375 124.125C781.167 124.125 783.646 123.521 785.812 122.312C787.979 121.104 789.792 119.312 791.25 116.938C792.75 114.562 793.875 111.667 794.625 108.25C795.417 104.792 795.812 100.833 795.812 96.375ZM901.625 49V140H879.688V49H901.625ZM929 49V65.9375H852.938V49H929ZM967.875 140H947.688L947.812 123.125H967.875C972.042 123.125 975.562 122.125 978.438 120.125C981.354 118.125 983.562 115.146 985.062 111.188C986.604 107.188 987.375 102.271 987.375 96.4375V92.5C987.375 88.125 986.938 84.2917 986.062 81C985.229 77.6667 983.979 74.8958 982.312 72.6875C980.646 70.4375 978.562 68.75 976.062 67.625C973.604 66.5 970.771 65.9375 967.562 65.9375H947.312V49H967.562C973.729 49 979.375 50.0625 984.5 52.1875C989.667 54.2708 994.125 57.2708 997.875 61.1875C1001.67 65.0625 1004.58 69.6667 1006.62 75C1008.71 80.2917 1009.75 86.1667 1009.75 92.625V96.4375C1009.75 102.854 1008.71 108.729 1006.62 114.062C1004.58 119.396 1001.69 124 997.938 127.875C994.188 131.75 989.75 134.75 984.625 136.875C979.542 138.958 973.958 140 967.875 140ZM960.25 49V140H938.312V49H960.25ZM1058.38 68.125L1036.19 140H1012.62L1046.06 49H1061L1058.38 68.125ZM1076.75 140L1054.5 68.125L1051.62 49H1066.75L1100.38 140H1076.75ZM1075.88 106.062V123H1029.19V106.062H1075.88ZM1168.38 85.125V102H1121.69V85.125H1168.38ZM1129 49V140H1107.06V49H1129ZM1183.12 49V140H1161.25V49H1183.12Z" fill="#D97706"/>
</svg>
