<svg width="512" height="512" viewBox="0 0 512 512" fill="none" xmlns="http://www.w3.org/2000/svg">
<path d="M497.879 222.264L497.748 222.142L497.854 222.248C495.563 219.916 492.994 217.805 490.164 215.924C489.19 215.916 488.208 215.72 487.268 215.311C485.747 214.664 484.56 213.576 483.75 212.275C479.226 210.124 474.489 208.741 469.687 208.062C465.49 207.482 462.594 203.612 463.183 199.423C463.763 195.242 467.634 192.33 471.806 192.91C476.592 193.59 481.346 194.817 485.952 196.592C486.68 193.254 487.089 189.851 487.089 186.398C487.081 178.871 485.314 171.262 481.542 164.12V164.112C477.231 155.931 470.948 149.558 463.552 145.181C457.08 141.352 449.783 139.085 442.272 138.586C441.724 145.393 440.096 152.225 437.249 158.819C435.58 162.697 431.081 164.496 427.194 162.827C423.316 161.158 421.517 156.659 423.186 152.772C425.91 146.424 427.194 139.862 427.211 133.375C427.211 132.442 427.17 131.518 427.129 130.593C426.622 121.611 423.627 112.914 418.555 105.526C413.474 98.13 406.365 92.059 397.505 88.248C391.157 85.507 384.579 84.222 378.099 84.222C365.688 84.222 353.662 89 344.596 97.434C346.298 103.21 347.239 109.313 347.239 115.629C347.239 119.85 343.811 123.27 339.589 123.27C335.359 123.27 331.931 119.85 331.931 115.629C331.931 109.428 330.79 103.553 328.711 98.089L328.715 98.096C325.189 88.868 318.942 80.956 310.962 75.361C302.985 69.765 293.328 66.493 282.827 66.493C273.689 66.493 265.188 68.963 257.879 73.283C252.033 76.735 246.981 81.391 243.021 86.872C250.764 97.5 255.334 110.622 255.33 124.759C255.33 128.981 251.906 132.4 247.68 132.4C243.446 132.4 240.022 128.98 240.022 124.759C240.018 112.323 235.444 101.017 227.853 92.377L227.841 92.369C218.813 82.077 205.641 75.631 190.895 75.622C180.648 75.63 171.199 78.731 163.324 84.074C155.462 89.416 149.216 96.984 145.514 105.86C143.112 111.661 141.763 118.059 141.763 124.759C141.763 128.981 138.343 132.4 134.113 132.4C129.887 132.4 126.46 128.98 126.46 124.759C126.46 118.549 127.364 112.536 129 106.842C123.236 104.502 117.006 103.225 110.592 103.225C106.964 103.225 103.274 103.642 99.58 104.485C88.687 106.989 79.544 112.879 72.893 120.823C68.087 126.558 64.642 133.365 62.842 140.695C78.669 140.99 94.475 147.093 106.661 159.029C109.679 161.982 109.733 166.825 106.775 169.844C103.822 172.862 98.975 172.912 95.955 169.966C86.379 160.599 74.005 155.944 61.586 155.928C59.361 155.928 57.143 156.092 54.942 156.378L54.914 156.386H54.902H54.894C44.466 157.81 34.441 162.555 26.472 170.67C17.1 180.25 12.457 192.596 12.454 205.023C12.454 212.149 13.996 219.283 17.072 225.861C19.498 231.048 22.868 235.891 27.204 240.145L27.212 240.153C32.142 244.996 37.819 248.555 43.869 250.903C47.808 252.416 49.767 256.851 48.241 260.794C46.715 264.737 42.285 266.701 38.346 265.171C30.418 262.111 22.936 257.407 16.486 251.075C13.659 248.293 11.131 245.315 8.914 242.182C3.13 250.465 0 260.373 0 270.452C0.004 278.265 1.866 286.16 5.817 293.564C10.259 301.86 16.689 308.323 24.241 312.749C30.225 316.259 36.905 318.443 43.782 319.212L43.769 318.77C43.769 314.72 44.146 310.744 44.857 306.899C45.626 302.743 49.619 300.002 53.771 300.762C57.931 301.524 60.676 305.532 59.911 309.688C59.363 312.633 59.072 315.668 59.072 318.769C59.072 319.947 59.117 321.125 59.199 322.303C59.289 323.555 59.42 324.749 59.609 325.887L59.617 325.944L59.625 326.001C63.127 350.029 83.87 367.955 108.172 367.955C109.334 367.955 110.512 367.905 111.695 367.823H111.707C122.482 367.046 132.156 362.882 139.814 356.419C145.222 351.854 149.615 346.168 152.646 339.753C154.45 335.933 159.015 334.297 162.836 336.105C166.656 337.913 168.288 342.47 166.484 346.291C163.223 353.188 158.761 359.405 153.374 364.723C156.384 373.952 162.033 381.912 169.397 387.811C177.86 394.577 188.503 398.553 199.99 398.553C201.152 398.553 202.321 398.52 203.516 398.43H203.528C210.817 397.899 217.559 395.82 223.535 392.556C222.594 388.146 222.074 383.638 222.074 379.09C222.074 369.698 224.148 360.142 228.493 351.142C230.325 347.322 234.903 345.734 238.707 347.568C242.511 349.4 244.115 353.973 242.278 357.778C238.948 364.7 237.377 371.939 237.377 379.09C237.377 384.105 238.155 389.078 239.647 393.824L239.651 393.832C243.57 406.333 252.43 417.23 265.184 423.374C272.077 426.703 279.317 428.274 286.472 428.274C297.811 428.274 308.913 424.306 317.687 417.107L317.715 417.091C323.054 412.69 327.545 407.126 330.752 400.483L330.76 400.458C333.762 394.248 335.325 387.736 335.611 381.24C335.799 377.019 339.374 373.746 343.604 373.926C347.817 374.123 351.089 377.69 350.909 381.912C350.525 390.42 348.471 399.01 344.536 407.126L344.544 407.118C341.378 413.679 337.238 419.463 332.378 424.388C341.402 437.363 356.415 445.512 372.646 445.504C375.664 445.504 378.725 445.217 381.817 444.645C393.623 442.411 403.587 436.177 410.672 427.562C417.75 418.948 421.864 408 421.864 396.44C421.864 396.08 421.856 395.729 421.847 395.393V395.345C421.806 392.727 421.528 390.011 421.004 387.278C419.785 380.774 417.299 374.875 413.904 369.639C408.962 365.279 403.448 359.601 398.27 353.269C392.764 346.52 387.659 339.149 384.239 331.712C381.989 326.73 380.385 321.714 380.353 316.405C380.353 314.057 380.705 311.627 381.564 309.279C382.431 306.931 383.838 304.673 385.704 302.824V302.832C388.69 299.838 393.533 299.838 396.52 302.832C399.506 305.81 399.506 310.67 396.52 313.647C396.225 313.958 396.078 314.187 395.931 314.572C395.784 314.965 395.661 315.546 395.661 316.404C395.628 318.326 396.423 321.6 398.157 325.338C399.867 329.077 402.411 333.274 405.398 337.422C411.329 345.734 419.027 353.899 424.82 358.857L425.606 359.536L426.187 360.386C430.932 367.446 434.384 375.57 436.053 384.447V384.455C436.291 385.723 436.446 386.982 436.609 388.259C437.362 388.292 438.131 388.357 438.9 388.357C448.611 388.349 458.371 385.478 466.962 379.439C473.793 374.645 478.988 368.469 482.514 361.539C486.04 354.601 487.873 346.919 487.865 339.189C487.865 331.948 486.245 324.692 482.973 317.926C479.97 318.9 476.911 319.669 473.793 320.208C469.629 320.929 465.669 318.13 464.941 313.958C464.237 309.794 467.035 305.843 471.199 305.123C484.756 302.783 497.15 294.897 504.841 282.224C509.7 274.247 511.991 265.469 512 256.772C512 244.027 507.034 231.526 497.879 222.264ZM147.188 163.851C154.51 155.211 164.221 149.067 174.652 145.05C185.104 141.033 196.332 139.094 207.091 139.094C217.567 139.102 227.613 140.91 236.167 144.837C240 146.605 241.677 151.153 239.909 154.991C238.134 158.835 233.586 160.505 229.749 158.737C223.83 155.98 215.759 154.385 207.091 154.393C198.19 154.393 188.675 156.045 180.154 159.334C171.617 162.606 164.131 167.507 158.867 173.733V173.741C156.143 176.956 151.312 177.366 148.084 174.633C144.86 171.901 144.456 167.074 147.188 163.851ZM321.386 344.803C312.493 344.819 304.415 343.813 297.039 342.103C297.243 344.206 297.382 346.537 297.382 349.033C297.382 354.031 296.85 359.733 295.268 365.723C293.689 371.703 291.042 377.986 286.865 384.024C284.46 387.493 279.695 388.36 276.213 385.955C272.741 383.55 271.873 378.788 274.283 375.303C277.351 370.869 279.282 366.295 280.471 361.813C281.657 357.329 282.079 352.945 282.079 349.034C282.083 343.642 281.273 339.167 280.688 336.647C276.954 334.954 273.481 333.04 270.274 330.945C257.466 322.633 248.892 311.687 243.497 301.255C239.893 294.293 237.675 287.535 236.51 281.677C235.839 278.339 235.508 275.287 235.508 272.531C235.508 268.301 238.931 264.874 243.165 264.874C247.391 264.874 250.815 268.301 250.815 272.531C250.802 274.773 251.281 278.487 252.496 282.709C253.702 286.955 255.629 291.79 258.415 296.649C263.999 306.385 272.875 316.153 286.554 322.494C295.696 326.732 307.072 329.489 321.386 329.497C325.612 329.497 329.04 332.925 329.04 337.146C329.04 341.375 325.612 344.803 321.386 344.803ZM375.268 288.917C373.689 292.836 369.238 294.75 365.311 293.171C361.401 291.609 359.495 287.183 361.04 283.255V283.247L361.09 283.133C361.138 283.001 361.212 282.773 361.318 282.462C361.523 281.856 361.809 280.891 362.096 279.696C362.685 277.282 363.266 273.871 363.266 270.124L363.241 269.576C352.761 273.143 342.993 274.771 334.006 274.771C320.425 274.788 308.685 271.065 299.121 265.412C289.541 259.759 282.096 252.273 276.533 244.689C270.209 236.058 261.905 228.334 252.403 222.853C242.888 217.371 232.236 214.116 220.921 214.108C210.989 214.132 200.464 216.603 189.448 222.633C179.013 228.376 172.276 236.017 167.935 244.395C163.62 252.765 161.816 261.944 161.82 270.281C161.799 278.012 163.42 284.999 165.546 289.425C167.354 293.254 165.722 297.811 161.901 299.627C158.085 301.427 153.519 299.807 151.707 295.979C148.394 288.919 146.536 280.05 146.516 270.282C146.52 260.587 148.451 250.001 153.16 239.864C143.673 242.016 134.858 242.973 126.812 242.964C122.472 242.972 118.386 242.67 114.491 242.195C114.221 243.209 113.751 244.191 113.043 245.051L113.039 245.058H113.031L112.941 245.173C112.859 245.288 112.716 245.468 112.528 245.705C112.155 246.196 111.599 246.957 110.9 247.947C109.509 249.918 107.575 252.847 105.484 256.537C101.295 263.901 96.538 274.266 94.21 285.924C93.388 290.072 89.351 292.764 85.207 291.929C81.063 291.102 78.376 287.077 79.206 282.921C81.98 269.078 87.428 257.339 92.169 248.985C94.635 244.64 96.901 241.229 98.559 238.889C92.317 237.016 86.913 234.725 82.508 232.393C72.436 227.042 67.172 221.667 66.746 221.234C63.813 218.19 63.904 213.348 66.943 210.419C69.978 207.49 74.805 207.58 77.733 210.591L77.741 210.583L77.815 210.657L78.286 211.107C78.736 211.516 79.468 212.146 80.466 212.932C82.462 214.51 85.547 216.678 89.67 218.855C97.928 223.224 110.274 227.65 126.812 227.667C138.422 227.667 152.142 225.449 168.062 219.33C172.103 215.575 176.742 212.138 182.092 209.218C195.178 202.027 208.387 198.803 220.92 198.812C235.213 198.812 248.532 202.96 260.047 209.603C271.574 216.262 281.355 225.393 288.873 235.635C293.434 241.853 299.451 247.849 306.888 252.227C314.345 256.604 323.193 259.459 334.004 259.468C341.396 259.468 349.757 258.102 359.19 254.788C356.908 251.074 353.463 247.498 347.81 244.275C344.129 242.197 342.836 237.517 344.914 233.844C346.993 230.162 351.664 228.869 355.338 230.94C364.394 236.045 370.457 242.802 373.966 249.855C377.509 256.907 378.572 264.049 378.572 270.128C378.54 280.727 375.464 288.369 375.268 288.917ZM372.404 195.152C354.52 195.16 338.877 190.333 326.221 183.027C324.45 185.514 322.053 188.607 318.972 192.002C312.051 199.594 301.866 208.52 288.248 213.412C284.268 214.836 279.891 212.758 278.467 208.774C277.048 204.79 279.121 200.42 283.101 198.997C293.136 195.438 301.537 188.386 307.371 182.013C310.059 179.101 312.161 176.368 313.687 174.241C306.12 167.86 300.167 160.595 296.093 153.134C292.198 145.951 289.949 138.571 289.928 131.372C289.928 127.151 293.352 123.731 297.577 123.731C301.803 123.731 305.231 127.151 305.231 131.372C305.211 135.242 306.569 140.404 309.53 145.812C312.479 151.236 316.958 156.897 322.792 161.953C334.474 172.081 351.369 179.845 372.403 179.845C376.625 179.845 380.053 183.273 380.053 187.502C380.054 191.733 376.626 195.152 372.404 195.152ZM432.732 302.915C430.033 306.171 425.206 306.629 421.949 303.938C418.694 301.246 418.235 296.419 420.927 293.163C429.255 283.019 432.347 272.825 432.373 263.048C432.389 254.155 429.681 245.557 425.41 238.333C421.164 231.092 415.34 225.317 409.728 222.101C405.989 219.933 402.43 218.943 399.615 218.951C395.385 218.951 391.958 215.531 391.958 211.301C391.958 207.08 395.386 203.652 399.615 203.652C404.279 203.652 408.827 204.79 413.147 206.695C417.458 208.593 421.549 211.269 425.345 214.541C432.913 221.086 439.351 230.011 443.384 240.459C446.076 247.422 447.688 255.063 447.688 263.047C447.712 276.187 443.229 290.242 432.732 302.915Z" fill="#FAFAFA"/>
</svg>
