<svg width="425" height="188" viewBox="0 0 425 188" fill="none" xmlns="http://www.w3.org/2000/svg">
<path d="M37.5 103.875L4 96L15 3H121.375V35.75H49.375L45.25 71.875C47.25 70.7083 50.625 69.3333 55.375 67.75C60.2083 66.0833 65.5417 65.25 71.375 65.25C80.375 65.25 88.3333 66.625 95.25 69.375C102.25 72.0417 108.167 76 113 81.25C117.833 86.4167 121.458 92.7917 123.875 100.375C126.375 107.958 127.625 116.625 127.625 126.375C127.625 134.208 126.333 141.792 123.75 149.125C121.25 156.375 117.375 162.917 112.125 168.75C106.958 174.5 100.417 179.083 92.5 182.5C84.5833 185.833 75.2083 187.5 64.375 187.5C56.2917 187.5 48.4167 186.25 40.75 183.75C33.0833 181.25 26.1667 177.667 20 173C13.9167 168.25 9.08333 162.542 5.5 155.875C2 149.125 0.291667 141.583 0.375 133.25H42.75C43 137.667 44.0417 141.5 45.875 144.75C47.7083 148 50.1667 150.542 53.25 152.375C56.4167 154.125 60.0417 155 64.125 155C68.2917 155 71.75 154.167 74.5 152.5C77.25 150.833 79.4167 148.542 81 145.625C82.5833 142.708 83.7083 139.375 84.375 135.625C85.0417 131.792 85.375 127.75 85.375 123.5C85.375 119 84.875 114.958 83.875 111.375C82.9583 107.792 81.4583 104.75 79.375 102.25C77.2917 99.6667 74.5833 97.7083 71.25 96.375C68 95.0417 64.0833 94.375 59.5 94.375C53.4167 94.375 48.625 95.4167 45.125 97.5C41.625 99.5833 39.0833 101.708 37.5 103.875ZM276.375 77.375V110.625C276.375 123.708 274.833 135.083 271.75 144.75C268.75 154.417 264.417 162.417 258.75 168.75C253.167 175.083 246.5 179.792 238.75 182.875C231 185.958 222.458 187.5 213.125 187.5C205.625 187.5 198.625 186.542 192.125 184.625C185.625 182.625 179.75 179.625 174.5 175.625C169.333 171.542 164.875 166.458 161.125 160.375C157.375 154.292 154.5 147.125 152.5 138.875C150.5 130.542 149.5 121.125 149.5 110.625V77.375C149.5 64.2083 151 52.8333 154 43.25C157.083 33.5833 161.458 25.5833 167.125 19.25C172.792 12.9167 179.5 8.20833 187.25 5.125C195 2.04167 203.542 0.5 212.875 0.5C220.375 0.5 227.333 1.5 233.75 3.5C240.25 5.41667 246.125 8.41667 251.375 12.5C256.625 16.5 261.083 21.5417 264.75 27.625C268.5 33.7083 271.375 40.9167 273.375 49.25C275.375 57.5 276.375 66.875 276.375 77.375ZM234.25 115.75V72C234.25 66.1667 233.917 61.0833 233.25 56.75C232.667 52.4167 231.75 48.75 230.5 45.75C229.333 42.75 227.875 40.3333 226.125 38.5C224.375 36.5833 222.375 35.2083 220.125 34.375C217.958 33.4583 215.542 33 212.875 33C209.542 33 206.542 33.7083 203.875 35.125C201.292 36.4583 199.083 38.625 197.25 41.625C195.417 44.625 194 48.625 193 53.625C192.083 58.625 191.625 64.75 191.625 72V115.75C191.625 121.667 191.917 126.833 192.5 131.25C193.167 135.583 194.083 139.292 195.25 142.375C196.5 145.375 198 147.833 199.75 149.75C201.5 151.583 203.5 152.917 205.75 153.75C208 154.583 210.458 155 213.125 155C216.375 155 219.292 154.333 221.875 153C224.458 151.667 226.667 149.5 228.5 146.5C230.417 143.417 231.833 139.375 232.75 134.375C233.75 129.292 234.25 123.083 234.25 115.75ZM424.875 77.375V110.625C424.875 123.708 423.333 135.083 420.25 144.75C417.25 154.417 412.917 162.417 407.25 168.75C401.667 175.083 395 179.792 387.25 182.875C379.5 185.958 370.958 187.5 361.625 187.5C354.125 187.5 347.125 186.542 340.625 184.625C334.125 182.625 328.25 179.625 323 175.625C317.833 171.542 313.375 166.458 309.625 160.375C305.875 154.292 303 147.125 301 138.875C299 130.542 298 121.125 298 110.625V77.375C298 64.2083 299.5 52.8333 302.5 43.25C305.583 33.5833 309.958 25.5833 315.625 19.25C321.292 12.9167 328 8.20833 335.75 5.125C343.5 2.04167 352.042 0.5 361.375 0.5C368.875 0.5 375.833 1.5 382.25 3.5C388.75 5.41667 394.625 8.41667 399.875 12.5C405.125 16.5 409.583 21.5417 413.25 27.625C417 33.7083 419.875 40.9167 421.875 49.25C423.875 57.5 424.875 66.875 424.875 77.375ZM382.75 115.75V72C382.75 66.1667 382.417 61.0833 381.75 56.75C381.167 52.4167 380.25 48.75 379 45.75C377.833 42.75 376.375 40.3333 374.625 38.5C372.875 36.5833 370.875 35.2083 368.625 34.375C366.458 33.4583 364.042 33 361.375 33C358.042 33 355.042 33.7083 352.375 35.125C349.792 36.4583 347.583 38.625 345.75 41.625C343.917 44.625 342.5 48.625 341.5 53.625C340.583 58.625 340.125 64.75 340.125 72V115.75C340.125 121.667 340.417 126.833 341 131.25C341.667 135.583 342.583 139.292 343.75 142.375C345 145.375 346.5 147.833 348.25 149.75C350 151.583 352 152.917 354.25 153.75C356.5 154.583 358.958 155 361.625 155C364.875 155 367.792 154.333 370.375 153C372.958 151.667 375.167 149.5 377 146.5C378.917 143.417 380.333 139.375 381.25 134.375C382.25 129.292 382.75 123.083 382.75 115.75Z" fill="#0A0A0A"/>
</svg>
