<svg width="800" height="800" viewBox="0 0 800 800" fill="none" xmlns="http://www.w3.org/2000/svg">
<path opacity="0.5" d="M733.333 400C733.333 584.093 584.093 733.333 400 733.333C215.905 733.333 66.6665 584.093 66.6665 400C66.6665 215.905 215.905 66.6666 400 66.6666C584.093 66.6666 733.333 215.905 733.333 400Z" fill="#D97706"/>
<path d="M400.007 300C436.827 300 466.673 270.152 466.673 233.333C466.673 196.514 436.827 166.667 400.007 166.667C363.187 166.667 333.34 196.514 333.34 233.333C333.34 270.152 363.187 300 400.007 300Z" fill="#D97706"/>
<path d="M209.761 310.315C197.051 304.928 182.38 310.863 176.99 323.573C171.6 336.283 177.535 350.96 190.246 356.35L190.29 356.367L190.378 356.403L190.679 356.533L191.779 356.99C192.729 357.383 194.104 357.95 195.869 358.663C199.398 360.087 204.486 362.103 210.833 364.517C223.51 369.333 241.285 375.753 261.721 382.18C294.683 392.55 336.267 403.497 375.007 407.103V448.407C375.007 462.79 370.873 476.867 363.093 488.963L278.977 619.813C271.511 631.43 274.873 646.897 286.488 654.363C298.102 661.83 313.57 658.467 321.036 646.853L400.007 524.01L478.977 646.853C486.443 658.467 501.91 661.83 513.527 654.363C525.14 646.897 528.503 631.43 521.037 619.813L436.917 488.963C429.14 476.867 425.007 462.79 425.007 448.407V407.103C463.747 403.497 505.33 392.55 538.293 382.18C558.73 375.753 576.503 369.333 589.18 364.517C595.527 362.103 600.617 360.087 604.143 358.663C605.91 357.95 607.283 357.383 608.233 356.99L609.333 356.533L609.637 356.403L609.723 356.367L609.76 356.353C622.47 350.963 628.413 336.283 623.023 323.573C617.633 310.863 602.957 304.93 590.247 310.317L589.997 310.422L589.09 310.8C588.273 311.139 587.037 311.647 585.417 312.302C582.177 313.611 577.41 315.5 571.42 317.776C559.427 322.334 542.59 328.414 523.29 334.487C484.017 346.84 437.047 358.333 400.007 358.333C362.963 358.333 315.997 346.84 276.724 334.487C257.421 328.414 240.588 322.334 228.592 317.776C222.602 315.5 217.837 313.611 214.597 312.302C212.977 311.647 211.74 311.139 210.922 310.8L210.015 310.422L209.807 310.334L209.761 310.315Z" fill="#D97706"/>
</svg>
