<svg width="800" height="800" viewBox="0 0 800 800" fill="none" xmlns="http://www.w3.org/2000/svg">
<path d="M231.342 66.6666C245.204 66.6666 256.442 77.4736 256.442 90.8046V139.496C278.706 139.08 303.661 139.08 331.74 139.08H465.603C493.68 139.08 518.636 139.08 540.9 139.496V90.8046C540.9 77.4736 552.136 66.6666 566 66.6666C579.86 66.6666 591.1 77.4736 591.1 90.8046V141.631C639.266 145.341 670.89 154.444 694.12 176.786C717.353 199.128 726.82 229.539 730.676 275.862L733.333 300H97.4852H66.6665V275.862C70.5235 229.539 79.9898 199.128 103.221 176.786C126.453 154.444 158.075 145.341 206.243 141.631V90.8046C206.243 77.4736 217.48 66.6666 231.342 66.6666Z" fill="#D97706"/>
<path opacity="0.5" d="M733.317 466.67V400.003C733.317 372.033 733.21 322.176 732.78 300H66.9723C66.542 322.176 66.651 372.033 66.651 400.003V466.67C66.651 592.377 66.651 655.23 105.703 694.283C144.756 733.337 207.61 733.337 333.318 733.337H466.65C592.36 733.337 655.213 733.337 694.267 694.283C733.317 655.23 733.317 592.377 733.317 466.67Z" fill="#D97706"/>
<path d="M600 566.667C600 585.077 585.077 600 566.667 600C548.257 600 533.333 585.077 533.333 566.667C533.333 548.257 548.257 533.333 566.667 533.333C585.077 533.333 600 548.257 600 566.667Z" fill="#D97706"/>
<path d="M600 433.333C600 451.743 585.077 466.667 566.667 466.667C548.257 466.667 533.333 451.743 533.333 433.333C533.333 414.923 548.257 400 566.667 400C585.077 400 600 414.923 600 433.333Z" fill="#D97706"/>
<path d="M433.333 566.667C433.333 585.077 418.41 600 400 600C381.59 600 366.667 585.077 366.667 566.667C366.667 548.257 381.59 533.333 400 533.333C418.41 533.333 433.333 548.257 433.333 566.667Z" fill="#D97706"/>
<path d="M433.333 433.333C433.333 451.743 418.41 466.667 400 466.667C381.59 466.667 366.667 451.743 366.667 433.333C366.667 414.923 381.59 400 400 400C418.41 400 433.333 414.923 433.333 433.333Z" fill="#D97706"/>
<path d="M266.667 566.667C266.667 585.077 251.743 600 233.333 600C214.924 600 200 585.077 200 566.667C200 548.257 214.924 533.333 233.333 533.333C251.743 533.333 266.667 548.257 266.667 566.667Z" fill="#D97706"/>
<path d="M266.667 433.333C266.667 451.743 251.743 466.667 233.333 466.667C214.924 466.667 200 451.743 200 433.333C200 414.923 214.924 400 233.333 400C251.743 400 266.667 414.923 266.667 433.333Z" fill="#D97706"/>
</svg>
