<svg width="800" height="800" viewBox="0 0 800 800" fill="none" xmlns="http://www.w3.org/2000/svg">
<path opacity="0.5" fill-rule="evenodd" clip-rule="evenodd" d="M232.574 44.2243C243.814 52.242 246.427 67.854 238.409 79.0947L225.54 97.1363C246.401 112.945 251.024 142.587 235.725 164.036L222.038 183.225C214.02 194.465 198.408 197.078 187.167 189.06C175.927 181.042 173.314 165.43 181.332 154.19L194.201 136.148C173.34 120.339 168.717 90.6973 184.016 69.2484L197.703 50.0597C205.721 38.819 221.333 36.2063 232.574 44.2243ZM365.907 44.2243C377.147 52.242 379.76 67.854 371.743 79.0947L358.873 97.1363C379.733 112.945 384.357 142.587 369.057 164.036L355.37 183.225C347.353 194.465 331.741 197.078 320.5 189.06C309.26 181.042 306.647 165.43 314.665 154.19L327.534 136.148C306.673 120.339 302.05 90.6973 317.349 69.2484L331.037 50.0597C339.053 38.819 354.667 36.2063 365.907 44.2243ZM499.24 44.2243C510.48 52.242 513.093 67.854 505.077 79.0947L492.207 97.1363C513.067 112.945 517.69 142.587 502.39 164.036L488.703 183.225C480.687 194.465 465.073 197.078 453.833 189.06C442.593 181.042 439.98 165.43 448 154.19L460.867 136.148C440.007 120.339 435.383 90.6973 450.683 69.2484L464.37 50.0597C472.387 38.819 488 36.2063 499.24 44.2243Z" fill="#D97706"/>
<path opacity="0.5" d="M320.447 733.333H346.227C434.92 733.333 479.267 733.333 508.1 706.357C530.44 685.457 537.24 654.187 541.917 600H124.756C129.431 654.187 136.232 685.457 158.573 706.357C187.407 733.333 231.753 733.333 320.447 733.333Z" fill="#D97706"/>
<path fill-rule="evenodd" clip-rule="evenodd" d="M109.48 375.537C105.038 308.896 102.816 275.575 122.576 254.454C142.336 233.333 175.73 233.333 242.518 233.333H424.15C490.937 233.333 524.33 233.333 544.09 254.454C549.507 260.242 553.27 266.946 555.79 275H566.667C654.113 275 725 345.887 725 433.333C725 520.78 654.113 591.667 566.667 591.667H542.603C542.377 594.503 542.15 597.28 541.913 600H124.753C123.395 584.25 122.216 566.567 120.887 546.637L109.48 375.537ZM546.11 541.667H566.667C626.497 541.667 675 493.163 675 433.333C675 373.503 626.497 325 566.667 325H560.023C559.6 339.337 558.49 356.007 557.187 375.537L546.11 541.667Z" fill="#D97706"/>
</svg>
