<svg width="800" height="800" viewBox="0 0 800 800" fill="none" xmlns="http://www.w3.org/2000/svg">
<path d="M600 400C600 510.457 510.457 600 400 600C289.543 600 200 510.457 200 400C200 289.543 289.543 200 400 200C510.457 200 600 289.543 600 400Z" fill="#D97706"/>
<path fill-rule="evenodd" clip-rule="evenodd" d="M400 41.6665C413.807 41.6665 425 52.8595 425 66.6665V99.9998C425 113.807 413.807 125 400 125C386.193 125 375 113.807 375 99.9998V66.6665C375 52.8595 386.193 41.6665 400 41.6665ZM146.62 146.62C156.383 136.857 172.213 136.857 181.976 146.62L195.07 159.715C204.833 169.478 204.833 185.307 195.07 195.07C185.307 204.833 169.478 204.833 159.715 195.07L146.62 181.975C136.857 172.212 136.857 156.383 146.62 146.62ZM653.37 146.629C663.133 156.392 663.133 172.221 653.37 181.984L640.277 195.079C630.513 204.842 614.683 204.842 604.92 195.079C595.157 185.315 595.157 169.486 604.92 159.723L618.017 146.629C627.78 136.866 643.607 136.866 653.37 146.629ZM41.6667 400C41.6667 386.193 52.8597 375 66.6667 375H100C113.807 375 125 386.193 125 400C125 413.806 113.807 425 100 425H66.6667C52.8597 425 41.6667 413.806 41.6667 400ZM675 400C675 386.193 686.193 375 700 375H733.333C747.14 375 758.333 386.193 758.333 400C758.333 413.806 747.14 425 733.333 425H700C686.193 425 675 413.806 675 400ZM604.92 604.92C614.683 595.156 630.513 595.156 640.277 604.92L653.37 618.016C663.133 627.78 663.133 643.607 653.37 653.37C643.607 663.133 627.78 663.133 618.017 653.37L604.92 640.276C595.157 630.513 595.157 614.683 604.92 604.92ZM195.07 604.93C204.833 614.693 204.833 630.523 195.07 640.286L181.976 653.38C172.213 663.143 156.383 663.143 146.62 653.38C136.857 643.617 136.857 627.786 146.62 618.023L159.715 604.93C169.478 595.166 185.307 595.166 195.07 604.93ZM400 675C413.807 675 425 686.193 425 700V733.333C425 747.14 413.807 758.333 400 758.333C386.193 758.333 375 747.14 375 733.333V700C375 686.193 386.193 675 400 675Z" fill="#D97706"/>
</svg>
