<svg width="800" height="800" viewBox="0 0 800 800" fill="none" xmlns="http://www.w3.org/2000/svg">
<path opacity="0.4" d="M559.619 36.9606H240.381C101.715 36.9606 19.0479 119.627 19.0479 258.294V577.531C19.0479 716.198 101.715 798.865 240.381 798.865H559.619C698.286 798.865 780.953 716.198 780.953 577.531V258.294C780.953 119.627 698.286 36.9606 559.619 36.9606Z" fill="#D97706"/>
<path d="M640.4 298.679C640.4 314.298 627.828 327.251 611.828 327.251H411.828C396.211 327.251 383.259 314.298 383.259 298.679C383.259 283.06 396.211 270.108 411.828 270.108H611.828C627.828 270.108 640.4 283.06 640.4 298.679Z" fill="#D97706"/>
<path d="M322.688 261.725L236.974 347.439C231.259 353.153 224.021 355.82 216.783 355.82C209.545 355.82 201.926 353.153 196.593 347.439L168.021 318.867C156.593 307.82 156.593 289.534 168.021 278.486C179.069 267.439 196.974 267.439 208.402 278.486L216.783 286.867L282.307 221.344C293.354 210.296 311.259 210.296 322.688 221.344C333.735 232.391 333.735 250.677 322.688 261.725Z" fill="#D97706"/>
<path d="M640.4 565.345C640.4 580.964 627.828 593.916 611.828 593.916H411.828C396.211 593.916 383.259 580.964 383.259 565.345C383.259 549.726 396.211 536.773 411.828 536.773H611.828C627.828 536.773 640.4 549.726 640.4 565.345Z" fill="#D97706"/>
<path d="M322.688 528.392L236.974 614.107C231.259 619.821 224.021 622.488 216.783 622.488C209.545 622.488 201.926 619.821 196.593 614.107L168.021 585.535C156.593 574.488 156.593 556.202 168.021 545.154C179.069 534.107 196.974 534.107 208.402 545.154L216.783 553.535L282.307 488.011C293.354 476.964 311.259 476.964 322.688 488.011C333.735 499.059 333.735 517.345 322.688 528.392Z" fill="#D97706"/>
</svg>
